<svg xmlns="http://www.w3.org/2000/svg" xmlns:xlink="http://www.w3.org/1999/xlink" xmlns:lucid="lucid" width="1538.63" height="1274"><g transform="translate(-21.873145979703395 340.5)" lucid:page-tab-id="0_0"><path d="M1000 356a6 6 0 0 1 6-6h510.37a6 6 0 0 1 6 6v265a6 6 0 0 1-6 6H1006a6 6 0 0 1-6-6z" stroke="#232f3e" fill="#fff" fill-opacity="0"/><path d="M1000 350h56v56h-56v-56z" stroke="#fff" stroke-opacity="0" fill="#232f3e"/><path d="M1040.88 391.22h-25c-4.13.05-7.57-3.1-7.9-7.2v-.64c-.15-3.4 1.97-6.38 5.25-7.36v-.66c.12-4.22 2.44-7.75 6.24-9.57 4.13-1.86 8.73-.96 11.8 2.3 1.1 1.1 1.85 2.2 2.45 3.6 1.2-1 2.72-1.32 4.24-.9 2.24.8 3.68 2.74 3.76 5.1 3.68.65 6.32 3.8 6.28 7.56 0 7.07-7.04 7.73-7.12 7.76zm-26.7-13.88c-2.83.6-4.75 3.14-4.6 6.04v.53c.3 3.33 3.1 5.84 6.4 5.76h24.98c3.04-.3 5.4-2.64 5.68-5.7.28-3.43-2.24-6.5-5.68-6.78-.44-.05-.72-.44-.64-.87.08-1.83-1-3.44-2.72-4.13-1.32-.37-2.64.13-3.44 1.24-.2.25-.44.38-.76.33-.28-.05-.48-.24-.6-.5-.6-1.6-1.4-2.85-2.6-4.04-2.68-2.8-6.6-3.6-10.13-2-3.24 1.6-5.2 4.63-5.32 8.24-.04.4-.04.74 0 1.14.04.4-.2.76-.6.84z" stroke="#fff" stroke-opacity="0" fill="#fff"/><use xlink:href="#a" transform="matrix(1,0,0,1,1071,370) translate(0 17.77777777777778)"/><path d="M980 46a6 6 0 0 1 6-6h548a6 6 0 0 1 6 6v598a6 6 0 0 1-6 6H986a6 6 0 0 1-6-6z" fill="#fff" fill-opacity="0"/><path d="M983.7 40.47l.45-.18.9-.23.95-.07h2m3.96 0h3.97m3.97 0h3.97m3.97 0h3.97m3.98 0h3.97m3.98 0h3.97m3.97 0h3.97m3.97 0h3.98m3.97 0h3.97m3.97 0h3.96m3.97 0h3.98m3.98 0h3.97m3.97 0h3.97m3.96 0h3.97m3.97 0h3.97m3.97 0h3.98m3.97 0h3.96m3.97 0h3.97m3.97 0h3.97m3.97 0h3.98m3.97 0h3.98m3.97 0h3.97m3.97 0h3.97m3.98 0h3.97m3.97 0h3.97m3.97 0h3.97m3.97 0h3.98m3.97 0h3.97m3.97 0h3.96m3.97 0h3.97m3.98 0h3.97m3.97 0h3.97m3.96 0h3.97m3.97 0h3.97m3.97 0h3.97m4 0h3.96m3.97 0h3.97m3.97 0h3.97m3.97 0h3.98m3.97 0h3.97m3.98 0h3.97m3.97 0h3.97m3.98 0h3.97m3.97 0h3.97m3.96 0h3.97m3.98 0h3.98m3.97 0h3.97m3.97 0h3.96m3.97 0h3.97m3.97 0h3.97m3.98 0h3.97m3.96 0h3.97m3.97 0h3.97m3.97 0h3.97m3.98 0h3.97m3.98 0h3.97m3.97 0h3.97m3.97 0h3.98m3.97 0h3.97m3.97 0h3.97m3.97 0h3.97m3.98 0h3.97m3.97 0h3.97m3.96 0h3.97m3.97 0h3.98m3.97 0h3.97m3.97 0h3.96m3.97 0h3.97m3.97 0h3.97m3.97 0h2l.94.07.9.22.45.17m3.23 3.24l.18.45.23.9.07.95v2m0 3.98v4m0 3.97v4m0 3.98v3.98m0 4v4m0 3.97v4m0 3.98v3.98m0 4v3.98m0 4v3.98m0 4v3.97m0 4v3.98m0 3.98v4m0 4v3.97m0 4v3.98m0 3.98v4m0 3.98v4m0 3.98v4m0 3.97v4m0 3.98v3.98m0 4v4m0 3.97v4m0 3.98v3.98m0 4v3.98m0 4v3.98m0 4v3.97m0 4v3.98m0 3.98v4m0 4v3.97m0 4v3.98m0 3.98v4m0 3.98v4m0 3.98v4m0 3.97v4m0 3.98v3.98m0 4v4m0 3.97v4m0 3.98v3.98m0 4V343m0 4v3.98m0 4v3.97m0 4v3.98m0 3.98v4m0 4v3.97m0 4v3.98m0 3.98v4m0 3.98v4m0 3.98v4m0 3.97v4m0 3.98v3.98m0 4v4m0 3.97v4m0 3.98v3.98m0 4v3.98m0 4v3.98m0 4v3.97m0 4v3.98m0 3.98v4m0 4v3.97m0 4v3.98m0 3.98v4m0 3.98v4m0 3.98v4m0 3.97v4m0 3.98v3.98m0 4v4m0 3.97v4m0 3.98v3.98m0 4v3.98m0 4v3.98m0 4v3.97m0 4v3.98m0 3.98v4m0 4v3.97m0 4v3.98m0 3.98v4m0 3.98v2l-.07.94-.22.9-.17.45m-3.24 3.23l-.45.18-.9.23-.95.07h-2m-3.96 0h-3.97m-3.97 0h-3.97m-3.97 0h-3.97m-3.98 0h-3.97m-3.97 0h-3.98m-3.97 0h-3.97m-3.97 0h-3.98m-3.97 0h-3.97m-3.97 0h-3.96m-3.97 0h-3.98m-3.98 0h-3.97m-3.97 0h-3.97m-3.96 0h-3.97m-3.97 0h-3.97m-3.97 0h-3.98m-3.97 0h-3.96m-3.97 0H1397m-3.97 0h-3.97m-3.97 0h-3.98m-3.97 0h-3.98m-3.97 0h-3.97m-3.97 0h-3.97m-3.98 0h-3.97m-3.97 0h-3.97m-3.97 0h-3.97m-3.97 0h-3.98m-3.97 0h-3.97m-3.97 0h-3.96m-3.97 0h-3.97m-3.98 0h-3.97m-3.97 0h-3.97m-3.96 0h-3.97m-3.97 0h-3.97m-3.97 0H1262m-4 0h-3.96m-3.97 0h-3.97m-3.97 0h-3.97m-3.97 0h-3.98m-3.97 0h-3.97m-3.98 0h-3.97m-3.97 0h-3.97m-3.98 0h-3.97m-3.97 0h-3.97m-3.96 0h-3.97m-3.98 0h-3.98m-3.97 0h-3.97m-3.97 0h-3.96m-3.97 0h-3.97m-3.97 0h-3.97m-3.98 0h-3.97m-3.96 0h-3.97m-3.97 0h-3.97m-3.97 0h-3.97m-3.98 0h-3.97m-3.98 0h-3.97m-3.97 0h-3.97m-3.97 0h-3.98m-3.97 0h-3.97m-3.97 0h-3.97m-3.97 0h-3.97m-3.98 0h-3.97m-3.97 0h-3.97m-3.96 0h-3.97m-3.97 0h-3.98m-3.97 0h-3.97m-3.97 0h-3.96m-3.97 0h-3.97m-3.97 0h-3.97m-3.97 0h-2l-.94-.07-.9-.22-.45-.17m-3.23-3.24l-.18-.45-.23-.9-.07-.95v-2m0-3.98v-4m0-3.97v-4m0-3.98v-3.98m0-4v-4m0-3.97v-4m0-3.98v-3.98m0-4v-3.98m0-4v-3.98m0-4v-3.97m0-4v-3.98m0-3.98v-4m0-4v-3.97m0-4v-3.98m0-3.98v-4m0-3.98v-4m0-3.98v-4m0-3.97v-4m0-3.98v-3.98m0-4v-4m0-3.97v-4m0-3.98v-3.98m0-4v-3.98m0-4v-3.98m0-4v-3.97m0-4v-3.98m0-3.98v-4m0-4v-3.97m0-4v-3.98m0-3.98v-4m0-3.98v-4m0-3.98v-4m0-3.97v-4m0-3.98v-3.98m0-4v-4m0-3.97v-4m0-3.98v-3.98m0-4V347m0-4v-3.98m0-4v-3.97m0-4v-3.98m0-3.98v-4m0-4v-3.97m0-4v-3.98m0-3.98v-4m0-3.98v-4m0-3.98v-4m0-3.97v-4m0-3.98v-3.98m0-4v-4m0-3.97v-4m0-3.98v-3.98m0-4v-3.98m0-4v-3.98m0-4v-3.97m0-4v-3.98m0-3.98v-4m0-4v-3.97m0-4v-3.98m0-3.98v-4m0-3.98v-4m0-3.98v-4m0-3.97v-4m0-3.98v-3.98m0-4v-4m0-3.97v-4m0-3.98v-3.98m0-4v-3.98m0-4v-3.98m0-4v-3.97m0-4v-3.98m0-3.98v-4m0-4v-3.97m0-4v-3.98m0-3.98v-4m0-3.98v-2l.07-.94.22-.9.17-.45" stroke="#5a6c86" fill="none"/><path d="M1262.36 425.42l58 8.62v5.08c0 7.55-26 13.65-58 13.65s-58-6.1-58-13.64v-5.53z" fill="#8c3123"/><path d="M1262.4 462.13c24.2 0 44.93-3.53 53.57-8.5l2.88-4.78 1.15-4.4v5.45l-19 81c0 5.08-17.3 9.1-38.6 9.1-21.33 0-38.6-4.02-38.6-9.1l-19.02-81v-5.35l4.38 9.27c8.75 4.87 29.26 8.3 53.23 8.3z" fill="#8c3123"/><path d="M1262.37 420c32 0 58 6.12 58 13.62 0 7.5-26 13.57-58 13.57s-57.98-6.02-57.98-13.58c-.02-7.56 25.96-13.62 57.97-13.62z" fill="#e05243"/><path d="M1262.37 456.6c29.85 0 54.4-5.2 57.62-12.06l-19.03 81c0 5.05-17.28 9.1-38.6 9.1s-38.6-4.05-38.6-9.1l-19.03-81c3.23 6.85 27.78 12.07 57.63 12.07z" fill="#e05243"/><path d="M1248.72 464.38h25.1v24.96h-25.1v-24.96zM1241.13 498.17c6.83 0 12.38 5.5 12.38 12.3 0 6.8-5.54 12.3-12.37 12.3-6.84 0-12.4-5.5-12.4-12.3 0-6.8 5.56-12.3 12.4-12.3zM1293.18 522.2h-24.8l12.4-22.94 12.4 22.94z" fill="#fff"/><use xlink:href="#b" transform="matrix(1,0,0,1,1204.3731459797034,540) translate(2.5061728395061778 17.77777777777778)"/><use xlink:href="#c" transform="matrix(1,0,0,1,1204.3731459797034,540) translate(74.11111111111111 17.77777777777778)"/><use xlink:href="#d" transform="matrix(1,0,0,1,1204.3731459797034,540) translate(27.814814814814817 44.44444444444444)"/><path d="M737.63 134.33h120v120h-120v-120z" stroke="#000" stroke-opacity="0" fill="url(#e)"/><path d="M782.6 171.77h3.8v3.8h-3.8v18.62c0-.42.25-.92.58-1.25l5.6-5.6 2.65 2.64-4.3 4.27 4.3 4.3-2.64 2.63-5.62-5.6c-.33-.34-.58-.83-.58-1.33V213h3.8v3.78h-3.8v16.82c0 .66-.33 1.23-.9 1.65-.25.16-.6.24-1 .24-.25 0-.5-.1-.82-.17l-22.46-11.3c-.66-.33-1.07-.9-1.07-1.65v-54.32c0-.66.33-1.32.9-1.65l22.54-13.1c.57-.33 1.32-.33 1.9 0 .57.33.9 1 .9 1.65zm56.3-3.7v54.31c0 .75-.4 1.32-1.07 1.65l-22.45 11.3c-.33.08-.58.16-.83.16-.4 0-.74-.1-1-.25-.57-.42-.9-1-.9-1.65v-16.82h-3.8v-3.8h3.8v-18.7c0 .5-.25.98-.57 1.3l-5.62 5.62-2.64-2.64 4.3-4.3-4.3-4.27 2.64-2.65 5.62 5.6c.32.33.57.83.57 1.24v-18.64h-3.8v-3.8h3.8v-16.8c0-.67.33-1.33.9-1.66.6-.33 1.33-.33 1.9 0L838 166.4c.58.34.9 1 .9 1.66zm-60-9.9l-18.84 10.96v52.1l18.83 9.32zm56.3 10.96l-18.83-10.97v72.4l18.82-9.33zm-32.04 16.4l-7.5 20.62-3.56-1.24 7.5-20.6zm-13.05-9.97v-3.8h5.63v3.8zm9.43 0v-3.8h5.6v3.8zm-9.42 41.22v-3.8h5.63v3.8zm9.43 0v-3.8h5.6v3.8z" stroke="#000" stroke-opacity="0" fill="#fff"/><use xlink:href="#f" transform="matrix(1,0,0,1,707.6268540202966,263.33333333333326) translate(25.21604938271605 17.77777777777778)"/><use xlink:href="#g" transform="matrix(1,0,0,1,707.6268540202966,263.33333333333326) translate(67.19135802469137 17.77777777777778)"/><path d="M1062.37 159h80v80h-80v-80z" stroke="#fff" stroke-opacity="0" stroke-width="2" fill="#cc2264"/><path d="M1119.44 192.6v-6.4c0-.6-.48-1.07-1.05-1.07h-14.97v-2.24c2.15-.43 3.72-2.03 4.16-4.17.6-2.88-1.28-5.7-4.17-6.3-2.88-.58-5.68 1.3-6.3 4.17-.56 2.88 1.27 5.7 4.16 6.3v2.23h-14.92c-.62 0-1.05.48-1.05 1.07v4.27h-8.57c-.57 0-1.05.48-1.05 1.06v5.34c0 .58.5 1.06 1.06 1.06h8.57v2.14h-8.57c-.57 0-1.05.48-1.05 1.06v5.34c0 .58.5 1.06 1.06 1.06h8.57v4.27c0 .6.44 1.07 1.05 1.07h14.9v2.24c-2.13.43-3.7 2.03-4.14 4.17-.57 2.88 1.26 5.7 4.15 6.3 2.88.58 5.72-1.3 6.3-4.17.6-2.88-1.28-5.7-4.17-6.3v-2.23h14.96c.56 0 1.04-.48 1.04-1.07v-5.33h-2.14v4.26h-29.87v-3.2h8.52c.62 0 1.1-.48 1.1-1.06v-5.34c0-.58-.48-1.06-1.1-1.06h-8.52v-2.14h8.52c.62 0 1.1-.48 1.1-1.06v-5.34c0-.58-.48-1.06-1.1-1.06h-8.52v-3.2h29.87v5.33zm-13.86 27.73c0 1.76-1.45 3.2-3.2 3.2-1.8 0-3.2-1.44-3.2-3.2 0-1.76 1.4-3.2 3.2-3.2 1.75 0 3.2 1.44 3.2 3.2zm-10.67-18.13v3.2h-17.05v-3.2zm0-9.6v3.2h-17.05v-3.2zm4.3-14.93c0-1.76 1.4-3.2 3.18-3.2 1.75 0 3.2 1.44 3.2 3.2 0 1.76-1.45 3.2-3.2 3.2-1.8 0-3.2-1.44-3.2-3.2z" stroke="#fff" stroke-opacity="0" stroke-width="2" fill="#fff"/><path d="M1127.98 194.73h-21.35c-.6 0-1.06.48-1.06 1.07v7.47c0 .58.47 1.06 1.06 1.06h21.35c.6 0 1.06-.48 1.06-1.06v-7.47c0-.6-.47-1.07-1.06-1.07zm-1.08 7.47h-19.2v-5.33h19.2z" stroke="#fff" stroke-opacity="0" stroke-width="2" fill="#fff"/><use xlink:href="#h" transform="matrix(1,0,0,1,1032.3731459797034,247.99999999999994) translate(47.160493827160494 17.77777777777778)"/><use xlink:href="#i" transform="matrix(1,0,0,1,1032.3731459797034,247.99999999999994) translate(21.913580246913575 44.44444444444444)"/><path d="M620 746a6 6 0 0 1 6-6h348a6 6 0 0 1 6 6v108a6 6 0 0 1-6 6H626a6 6 0 0 1-6-6z" stroke="#3a414a" fill="#fff"/><use xlink:href="#j" transform="matrix(1,0,0,1,632,752) translate(121.82716049382717 38.77777777777778)"/><use xlink:href="#k" transform="matrix(1,0,0,1,632,752) translate(171.14814814814815 38.77777777777778)"/><use xlink:href="#l" transform="matrix(1,0,0,1,632,752) translate(168 65.44444444444446)"/><path d="M800 444.5V306.87" stroke="#3a414a" fill="none"/><path d="M800.5 445h-1v-.5h1z" stroke="#3a414a" stroke-width=".05" fill="#3a414a"/><path d="M800 300.98l7.64 12.9h-15.28z" stroke="#3a414a" fill="#3a414a"/><path d="M800 732.63V491.5" stroke="#3a414a" fill="none"/><path d="M800 738.52l-7.64-12.9h15.28z" stroke="#3a414a" fill="#3a414a"/><path d="M800.5 491.5h-1v-.5h1z" stroke="#3a414a" stroke-width=".05" fill="#3a414a"/><path d="M1262.37 280.5v123.12M1262.37 280.5v-.5" stroke="#3a414a" fill="none"/><path d="M1262.37 418.38l-4.63-14.26h9.27z" stroke="#3a414a" fill="#3a414a"/><path d="M1002.37 70.67a6 6 0 0 1 6-6h508a6 6 0 0 1 6 6v256.66a6 6 0 0 1-6 6h-508a6 6 0 0 1-6-6z" stroke="#232f3e" fill="#fff" fill-opacity="0"/><path d="M1002.37 64.67h56v56h-56v-56z" stroke="#fff" stroke-opacity="0" fill="#232f3e"/><path d="M1043.25 105.88h-25c-4.13.06-7.57-3.08-7.9-7.2v-.63c-.15-3.4 1.97-6.38 5.25-7.36v-.67c.13-4.22 2.45-7.75 6.25-9.58 4.12-1.84 8.72-.94 11.8 2.33 1.08 1.08 1.84 2.2 2.44 3.58 1.2-1 2.7-1.3 4.23-.9 2.24.8 3.68 2.75 3.76 5.1 3.67.66 6.3 3.8 6.27 7.57 0 7.07-7.04 7.73-7.12 7.75zM1016.57 92c-2.85.6-4.77 3.15-4.6 6.05v.53c.27 3.32 3.07 5.83 6.4 5.75h24.96c3.04-.3 5.4-2.64 5.68-5.7.3-3.43-2.23-6.5-5.67-6.78-.44-.05-.72-.45-.64-.87.07-1.85-1-3.46-2.73-4.14-1.32-.37-2.64.13-3.44 1.24-.2.24-.44.37-.76.3v.02c-.28-.06-.48-.24-.6-.5-.6-1.62-1.4-2.86-2.6-4.04-2.68-2.8-6.6-3.6-10.12-2-3.24 1.6-5.2 4.64-5.33 8.25-.03.4-.03.75 0 1.14.04.4-.2.77-.6.85z" stroke="#fff" stroke-opacity="0" fill="#fff"/><use xlink:href="#m" transform="matrix(1,0,0,1,1073.3731459797034,84.66666666666663) translate(0 17.77777777777778)"/><use xlink:href="#n" transform="matrix(1,0,0,1,1073.3731459797034,84.66666666666663) translate(110.92592592592592 17.77777777777778)"/><path d="M1286.32 223.03h-12.95c-.65 0-1.25-.38-1.5-.98l-18.16-38.9h-7.3c-.92 0-1.7-.75-1.7-1.68v-11.22c0-.92.78-1.68 1.7-1.68h16.15c.7 0 1.25.38 1.5.98l18.1 38.9h4.17c.9 0 1.7.75 1.7 1.73v11.17c0 .92-.8 1.68-1.7 1.68zm-11.9-3.43h10.17v-7.73h-3.52c-.65 0-1.26-.38-1.52-.98l-18.05-38.96h-13.37v7.8h6.66c.7 0 1.3.37 1.55.97z" stroke="#fff" stroke-opacity="0" fill="#d86613"/><path d="M1251.18 223.03h-13.82c-.92 0-1.7-.77-1.7-1.7 0-.28.06-.48.18-.72l14.45-30.26c.3-.6.86-.97 1.53-.97s1.24.33 1.53.94l6.92 14.32c.22.47.22.97 0 1.44l-7.56 16c-.3.6-.87.97-1.54.97zm-11.1-3.4h10l6.83-14.27-5.1-10.37z" stroke="#fff" stroke-opacity="0" fill="#d86613"/><path d="M1262.37 239c-22.08 0-40-17.92-40-40s17.92-40 40-40 40 17.92 40 40-17.92 40-40 40zm0-76.56c-20.24 0-36.56 16.32-36.56 36.56 0 20.24 16.33 36.56 36.57 36.56 20.24 0 36.56-16.32 36.56-36.56 0-20.24-16.32-36.56-36.56-36.56z" stroke="#fff" stroke-opacity="0" fill="#d86613"/><use xlink:href="#o" transform="matrix(1,0,0,1,1192.3731459797034,247.99999999999994) translate(29.907407407407405 17.77777777777778)"/><use xlink:href="#p" transform="matrix(1,0,0,1,1192.3731459797034,247.99999999999994) translate(27.469135802469133 44.44444444444444)"/><path d="M858.13 194.33H1046" stroke="#3a414a" fill="none"/><path d="M858.14 194.83h-.5v-1h.5z" stroke="#3a414a" stroke-width=".05" fill="#3a414a"/><path d="M1060.76 194.33l-14.27 4.64v-9.27z" stroke="#3a414a" fill="#3a414a"/><path d="M1142.87 199H1206" stroke="#3a414a" fill="none"/><path d="M1142.9 199.5h-.53v-1h.52z" stroke="#3a414a" stroke-width=".05" fill="#3a414a"/><path d="M1220.76 199l-14.27 4.63v-9.26z" stroke="#3a414a" fill="#3a414a"/><path d="M778.04 447.7h43.92c6.7 0 6.7 0 6.7 6.74v29.8c0 6.75 0 6.75-6.7 6.75h-43.92c-6.7 0-6.7 0-6.7-6.76v-29.8c0-6.75 0-6.75 6.7-6.75z" fill="#7d7c7c"/><path d="M778.04 445h43.92c6.7 0 6.7 0 6.7 6.76v29.8c0 6.75 0 6.75-6.7 6.75h-43.92c-6.7 0-6.7 0-6.7-6.75v-29.8c0-6.75 0-6.75 6.7-6.75z" fill="#fff"/><path d="M824.64 458.8c0 5.7-4.62 10.34-10.3 10.34-5.7 0-10.32-4.63-10.32-10.34 0-5.7 4.62-10.34 10.3-10.34 5.7 0 10.32 4.63 10.32 10.34z" fill="#759c3e"/><path d="M821.53 458.8c0 1.5-1.2 2.7-2.7 2.7-1.48 0-2.7-1.2-2.7-2.7 0-1.5 1.22-2.7 2.7-2.7 1.5 0 2.7 1.2 2.7 2.7z" fill="#fff"/><path d="M810.84 463.2h-11.92l-1.08-1.88-4.03.37-1.55-1.6-1.4-.3-3.68 2.2-4.58-3.53 2.5-4.05h25.74v8.77z" fill="#759c3e"/><path d="M795.97 474.7c0 5.72-4.62 10.35-10.3 10.35-5.7 0-10.32-4.63-10.32-10.34 0-5.7 4.62-10.32 10.3-10.32 5.7 0 10.32 4.63 10.32 10.33z" fill="#7d7c7c"/><path d="M783.84 474.7c0 1.5-1.2 2.7-2.7 2.7-1.47 0-2.68-1.2-2.68-2.7 0-1.48 1.2-2.7 2.7-2.7 1.48 0 2.68 1.22 2.68 2.7z" fill="#fff"/><path d="M789.16 470.32h11.92l1.07 1.9 4.04-.4 1.54 1.6 1.4.3 3.7-2.2 4.56 3.52-2.5 4.06h-25.74v-8.78zM1237.9 779.7h43.9c6.72 0 6.72 0 6.72 6.74v29.8c0 6.75 0 6.75-6.7 6.75h-43.92c-6.7 0-6.7 0-6.7-6.76v-29.8c0-6.75 0-6.75 6.7-6.75z" fill="#7d7c7c"/><path d="M1237.9 777h43.9c6.72 0 6.72 0 6.72 6.76v29.8c0 6.75 0 6.75-6.7 6.75h-43.92c-6.7 0-6.7 0-6.7-6.75v-29.8c0-6.75 0-6.75 6.7-6.75z" fill="#fff"/><path d="M1284.5 790.8c0 5.7-4.63 10.34-10.32 10.34-5.7 0-10.3-4.63-10.3-10.34 0-5.7 4.6-10.34 10.3-10.34 5.7 0 10.3 4.63 10.3 10.34z" fill="#759c3e"/><path d="M1281.38 790.8c0 1.5-1.2 2.7-2.7 2.7-1.48 0-2.68-1.2-2.68-2.7 0-1.5 1.2-2.7 2.7-2.7 1.48 0 2.68 1.2 2.68 2.7z" fill="#fff"/><path d="M1270.7 795.2h-11.93l-1.07-1.88-4.04.37-1.55-1.6-1.4-.3-3.68 2.2-4.57-3.53 2.5-4.05h25.74v8.77z" fill="#759c3e"/><path d="M1255.82 806.7c0 5.72-4.62 10.35-10.3 10.35-5.7 0-10.3-4.63-10.3-10.34 0-5.7 4.6-10.33 10.3-10.33 5.68 0 10.3 4.64 10.3 10.34z" fill="#7d7c7c"/><path d="M1243.7 806.7c0 1.5-1.2 2.7-2.7 2.7-1.48 0-2.7-1.2-2.7-2.7 0-1.48 1.22-2.7 2.7-2.7 1.5 0 2.7 1.22 2.7 2.7z" fill="#fff"/><path d="M1249 802.32h11.93l1.07 1.9 4.04-.4 1.56 1.6 1.4.3 3.68-2.2 4.57 3.52-2.5 4.06H1249v-8.78z" fill="#7d7c7c"/><path d="M1380 200h80v80h-80v-80z" stroke="#000" stroke-opacity="0" fill="url(#q)"/><path d="M1442.1 225.53c0 .65-.36 1.24-.9 1.56l-21.23 12.3v26.24c0 .64-.34 1.24-.88 1.56-.3.16-.64.27-.94.27-.34 0-.63-.1-.92-.27l-20.07-11.6c-.6-.4-.93-.98-.93-1.63v-25.6c0-.63.34-1.22.93-1.55l22.12-12.8c.52-.37 1.2-.37 1.8 0l20 9.9c.64.38 1 .97 1 1.6zm-23.7 11.88l20.42-11.8-18.6-9.26-21.5 12.42v24.84l18.76 10.86v-25.5c0-.63.34-1.22.93-1.55zm25.63-6.38c.6.32.93.9.93 1.56v21.5c0 .64-.34 1.24-.93 1.56l-17.5 11.6c-.33.17-.67.28-1 .28-.3 0-.64-.1-.9-.2-.57-.34-.9-.98-.9-1.63v-10.5c0-.64.33-1.23.82-1.55l7.94-5.97v-10.1c0-.97.77-1.4 1.06-1.56l8.67-5c.6-.33 1.27-.33 1.8 0zm-1.56 22.68v-19.94l-7.5 4.35v10.17c0 .43-.2.76-.5 1.02l-8.27 6.23v8.93z" stroke="#000" stroke-opacity="0" fill="#fff"/><use xlink:href="#r" transform="matrix(1,0,0,1,1350,289) translate(46.60493827160494 17.77777777777778)"/><path d="M1439.2 154.97c1.85-1.84 3.6-3.67 5.45-5.53.56-.63 1.28-1.3 1.84-1.95-.5-.74-1.3-1.28-2-1.57-1.37-.64-2.73-.43-4 .45-1.7 1.16-2.4 3-2.4 5.28.08.9.24 1.77.63 2.54l.48.77m2.1 1.74c.87.38 1.9.33 2.8.13.47-.23 1.67-.84 2.07-.75h.08l.08.04c.24.16.48.37.64.7.32.75.16 1.5-.48 1.93l-.17.16c-2.32 1.6-4.8 1.37-7.04-.1-1.13-.7-1.92-1.77-2.56-3.04l-.16-.3c-1.44-3.05-1.28-6.25.4-9.15.56-1 1.28-1.78 2.15-2.37l.4-.22c2.16-1.5 4.48-1.4 6.72-.08 1.12.7 2.16 1.74 2.8 3.12l.08.25c.56 1-.08 1.87-.72 2.46-.8.7-1.5 1.54-2.23 2.27-1.68 1.65-3.28 3.33-4.88 4.98zm17.26-13.85h.24c.72 0 1.2.58 1.2 1.44 0 1.2-.96 1.5-1.76 1.5-1.12 0-2.16.78-2.88 1.67-.96 1.1-1.36 2.5-1.36 4.05v6.98c0 .82-.4 1.46-1.12 1.46h-.24c-.63 0-1.1-.64-1.1-1.46v-7.38c0-2.84 1.18-5.17 3.1-6.78 1.2-.97 2.48-1.5 3.92-1.5zm-30.22 4.96c.96-1.1 1.84-2.24 2.8-3.35.32-.3 1.28-1.6 1.68-1.6h.48v.02c.56.13.96.54.96 1.24v.3c0 .48-.4 1.05-.72 1.4-.56.7-1.12 1.37-1.68 2.05l-2.96 3.54c1.28 1.5 2.56 3 3.76 4.52.4.43.72.86 1.04 1.27.16.15.32.33.4.56.16.18.16.4.16.63v.38c-.08.65-.48 1.18-1.04 1.18h-.24c-.4 0-.88-.55-1.12-.84-.56-.64-1.12-1.32-1.68-1.97l-1.84-2.18v3.5c0 .78-.4 1.44-1.12 1.44h-.16c-.72 0-1.12-.65-1.12-1.44v-19.63c0-.8.4-1.42 1.12-1.42h.16c.72 0 1.12.64 1.12 1.43v8.98zm-7.9-1.94c-.33-.2-1.05-.27-1.45-.3-2-.1-3.45 1.27-4.33 3.4-.32.73-.4 1.52-.4 2.34 0 2.47 1.04 4.2 2.88 5.25.72.4 1.6.46 2.32.46.64 0 1.6-.47 2.16-.78l.08-.07h.5v.02c.54.14 1.02.54 1.02 1.25v.3c0 1.76-2.7 2.14-3.75 2.24-3.68.3-6.4-2.1-7.44-6.22-.16-.7-.24-1.42-.24-2.17V151c0-3.12 1.35-5.62 3.6-7.2 1.03-.75 2.15-1.14 3.43-1.14h.48c1.3 0 2.5.46 3.53 1.32l.08.07.08.1c.1.24.24.5.24.78v.27c0 .75-.48 1.14-1.03 1.27l-.1.02h-.15c-.32-.03-1.12-.46-1.52-.64zm-22.08 5.48c0 2.2.88 3.8 2.48 4.97.72.53 1.52.78 2.4.78 1.76 0 3.12-1.1 4.08-2.95.48-.86.63-1.84.63-2.83 0-2.06-.8-3.6-2.23-4.74-.8-.63-1.6-.93-2.56-.93-2 0-3.52 1.23-4.4 3.38-.24.76-.4 1.53-.4 2.34zm4.56-8.6h.32c2.8 0 4.95 1.62 6.3 4.55.57 1.14.8 2.4.8 3.75v.6c0 3.1-1.26 5.6-3.5 7.2-1.04.72-2.24 1.1-3.44 1.1h-.48c-2.64 0-4.72-1.54-6.08-4.23-.56-1.25-.88-2.63-.88-4.08v-.6c0-3.12 1.28-5.6 3.52-7.2 1.04-.75 2.24-1.1 3.44-1.1zm-20.47 8.6c0 2.27.96 3.97 2.64 5.06.63.43 1.35.68 2.15.68 1.84 0 3.2-1.05 4.16-2.93.5-.88.65-1.83.65-2.85 0-1.97-.72-3.5-2.08-4.65-.8-.68-1.68-1.02-2.72-1.02-2 0-3.44 1.23-4.32 3.38-.32.76-.48 1.53-.48 2.34zm9.6-6.46v-6.1c0-.8.48-1.44 1.12-1.44h.23c.72 0 1.13.63 1.13 1.45v12.84c0 3.13-1.3 5.62-3.6 7.2-1.04.73-2.16 1.12-3.44 1.12h-.5c-2.63 0-4.7-1.55-6-4.24-.63-1.25-.95-2.63-.95-4.08v-.6c0-3.12 1.28-5.6 3.6-7.2 1.04-.75 2.16-1.1 3.36-1.1h.5c1.83 0 3.35.8 4.55 2.14zM1426.12 97.07h7.22v8.7h3.57c1.7 0 3.44-.33 4.98-.98.77-.33 1.68-.77 2.45-1.3-1.05-1.57-1.54-3.57-1.68-5.5-.2-2.72.2-6.17 1.75-8.22l.77-1.03.84.8c2.32 2.17 4.2 5.2 4.5 8.65 2.72-.97 5.94-.7 8.32.92l1 .7-.5 1.2c-2.04 4.7-6.3 6.15-10.44 5.88-6.16 18.42-19.68 27.1-36 27.1-8.47 0-16.24-3.77-20.65-12.68l-.07-.16-.63-1.57c-1.47-3.95-1.96-8.22-1.68-12.54l.14-1.3h6.08v-8.7h7.14v-8.53h14.36V80h8.54v17.07z" stroke="#000" stroke-opacity="0" fill="#394d54"/><path d="M1449.35 100.28c.47-4.44-2.36-7.9-4.04-9.6-2 2.77-2.34 9.94.82 13-1.75 1.84-5.45 3.52-9.2 3.52h-45.88c-.34 4.7.34 9 1.95 12.7l.46 1.13c.34.67.74 1.3 1.14 1.92 1.9.17 3.57.2 5.18.17 3.16-.08 5.65-.54 7.6-1.34.27-.08.6.08.74.42.07.33-.07.7-.33.84-.28.12-.55.2-.82.3-1.55.5-3.16.87-5.32 1.04h-.13c-.07 0-.13 0-.2.04-.8.04-1.75.04-2.63.04-1 0-2 0-3.1-.08l-.06.04c3.84 5.1 9.82 8.17 17.3 8.17 15.86 0 29.3-8.4 35.23-27.16 4.24.5 8.34-.8 10.16-5.07-2.96-2.05-6.73-1.38-8.88-.1z" stroke="#000" stroke-opacity="0" fill="#00aada"/><path d="M1449.34 100.27c.44-4.43-2.35-7.92-4.03-9.58-2 2.73-2.33 9.93.8 12.96-1.73 1.87-5.42 3.53-9.16 3.53h-43.17c-.17 7.16 2.07 12.64 6.03 15.92 3.13-.08 5.64-.54 7.6-1.34.28-.1.6.08.67.44.1.32 0 .68-.34.83-.22.1-.5.17-.78.28-1.5.5-3.3.9-5.42 1.08l-.05-.06c5.4 3.32 13.23 3.28 22.22-.83 10.06-4.56 19.38-13.35 25.9-23.37-.1.04-.15.1-.26.14z" stroke="#000" stroke-opacity="0" fill="#24b8eb"/><path d="M1391.15 112.9c.27 2.5.92 4.85 1.84 7l.47 1.12c.33.67.7 1.32 1.08 1.93 1.9.16 3.67.2 5.23.16 3.13-.07 5.66-.5 7.6-1.3.27-.13.6.05.7.4.1.34-.05.7-.32.83-.27.12-.54.22-.8.3-1.52.53-3.3.9-5.4 1.04-.05.02-.2.02-.27.02-.82.05-1.73.07-2.65.07-.97 0-2-.02-3.13-.08 3.83 5.1 9.87 8.2 17.37 8.2 13.52 0 25.33-6.16 32.18-19.7h-53.93z" stroke="#000" stroke-opacity="0" fill="#008bb8"/><path d="M1394.2 112.9c.8 4.4 2.77 7.85 5.6 10.2 3.1-.06 5.64-.5 7.57-1.3.3-.12.63.06.72.4.08.34-.06.7-.33.84l-.8.3c-1.53.52-3.37.9-5.47 1.04 5.42 3.3 13.22 3.24 22.18-.86 5.42-2.47 10.62-6.17 15.32-10.63h-44.8z" stroke="#000" stroke-opacity="0" fill="#039bc6"/><path d="M1402.5 99.1h.48v6.16h-.5v-6.17zm-.96 0h.5v6.16h-.5v-6.17zm-.93 0h.52v6.16h-.5v-6.17zm-.93 0h.5v6.16h-.5v-6.17zm-.95 0h.52v6.16h-.52v-6.17zm-.9 0h.48v6.16h-.5v-6.17zm-.53-.62h6.2v7.4h-6.2v-7.4zM1409.64 90.56h.5v6.16h-.5v-6.16zm-.94 0h.5v6.16h-.5v-6.16zm-.94 0h.5v6.16h-.5v-6.16zm-.94 0h.5v6.16h-.5v-6.16zm-.94 0h.5v6.16h-.5v-6.16zm-.92 0h.5v6.16h-.5v-6.16zm-.52-.6h6.2v7.38h-6.2v-7.4z" stroke="#000" stroke-opacity="0" fill="#00acd3"/><path d="M1409.64 99.1h.5v6.16h-.5v-6.17zm-.94 0h.5v6.16h-.5v-6.17zm-.94 0h.5v6.16h-.5v-6.17zm-.94 0h.5v6.16h-.5v-6.17zm-.94 0h.5v6.16h-.5v-6.17zm-.92 0h.5v6.16h-.5v-6.17zm-.52-.62h6.2v7.4h-6.2v-7.4z" stroke="#000" stroke-opacity="0" fill="#20c2ef"/><path d="M1416.8 99.1h.5v6.16h-.5v-6.17zm-.95 0h.5v6.16h-.5v-6.17zm-.93 0h.5v6.16h-.5v-6.17zm-.95 0h.5v6.16h-.5v-6.17zm-.93 0h.5v6.16h-.5v-6.17zm-.92 0h.5v6.16h-.5v-6.17zm-.52-.62h6.2v7.4h-6.2v-7.4z" stroke="#000" stroke-opacity="0" fill="#00acd3"/><path d="M1416.8 90.56h.5v6.16h-.5v-6.16zm-.95 0h.5v6.16h-.5v-6.16zm-.93 0h.5v6.16h-.5v-6.16zm-.95 0h.5v6.16h-.5v-6.16zm-.93 0h.5v6.16h-.5v-6.16zm-.92 0h.5v6.16h-.5v-6.16zm-.52-.6h6.2v7.38h-6.2v-7.4zM1423.95 99.1h.5v6.16h-.5v-6.17zm-.94 0h.52v6.16h-.5v-6.17zm-.93 0h.5v6.16h-.5v-6.17zm-.94 0h.5v6.16h-.5v-6.17zm-.94 0h.5v6.16h-.5v-6.17zm-.93 0h.5v6.16h-.5v-6.17zm-.52-.62h6.2v7.4h-6.2v-7.4z" stroke="#000" stroke-opacity="0" fill="#20c2ef"/><path d="M1423.95 90.56h.5v6.16h-.5v-6.16zm-.94 0h.52v6.16h-.5v-6.16zm-.93 0h.5v6.16h-.5v-6.16zm-.94 0h.5v6.16h-.5v-6.16zm-.94 0h.5v6.16h-.5v-6.16zm-.93 0h.5v6.16h-.5v-6.16zm-.52-.6h6.2v7.38h-6.2v-7.4z" stroke="#000" stroke-opacity="0" fill="#00acd3"/><path d="M1423.95 82.03h.5v6.17h-.5v-6.17zm-.94 0h.52v6.17h-.5v-6.17zm-.93 0h.5v6.17h-.5v-6.17zm-.94 0h.5v6.17h-.5v-6.17zm-.94 0h.5v6.17h-.5v-6.17zm-.93 0h.5v6.17h-.5v-6.17zm-.52-.6h6.2v7.38h-6.2v-7.38z" stroke="#000" stroke-opacity="0" fill="#20c2ef"/><path d="M1431.1 99.1h.5v6.16h-.5v-6.17zm-.94 0h.5v6.16h-.5v-6.17zm-.93 0h.5v6.16h-.5v-6.17zm-.95 0h.5v6.16h-.5v-6.17zm-.93 0h.5v6.16h-.5v-6.17zm-.93 0h.5v6.16h-.5v-6.17zm-.5-.62h6.2v7.4h-6.2v-7.4z" stroke="#000" stroke-opacity="0" fill="#00acd3"/><path d="M1410.26 117.85c.94 0 1.7.9 1.7 2.04 0 1.1-.76 2.03-1.7 2.03-.95 0-1.7-.92-1.7-2.04 0-1.14.75-2.05 1.7-2.05" stroke="#000" stroke-opacity="0" fill="#d4edf1"/><path d="M1410.26 118.43c.15 0 .3.03.44.1-.15.1-.25.3-.25.52 0 .33.22.6.5.6.2 0 .36-.14.44-.32.05.17.08.36.08.56 0 .8-.55 1.45-1.22 1.45-.68 0-1.23-.65-1.23-1.46 0-.82.55-1.47 1.23-1.47M1380 113.63H1459.58c-1.75-.53-5.5-1.24-4.86-3.94-3.18 4.33-10.74 3.03-12.65.9-2.15 3.7-14.56 2.28-15.44-.6-2.7 3.75-10.98 3.75-13.7 0-.86 2.88-13.27 4.3-15.42.6-1.9 2.14-9.46 3.43-12.65-.9.64 2.7-3.1 3.4-4.85 3.92" stroke="#000" stroke-opacity="0" fill="#394d54"/><path d="M1414.8 132.54c-4.24-2.4-6.55-5.65-7.86-9.2-1.57.53-3.46.87-5.66 1.02-.82.06-1.7.08-2.6.08-1.06 0-2.17-.03-3.34-.1 3.9 4.62 8.66 8.18 17.52 8.25.64 0 1.3-.02 1.95-.06z" stroke="#000" stroke-opacity="0" fill="#bfdbe0"/><path d="M1408.52 126.62c-.58-.95-1.15-2.14-1.57-3.3-1.58.55-3.46.9-5.66 1.04 1.5.98 3.65 1.88 7.22 2.26z" stroke="#000" stroke-opacity="0" fill="#d4edf1"/><use xlink:href="#s" transform="matrix(1,0,0,1,1350,168.99999999999997) translate(34.876543209876544 17.77777777777778)"/><path d="M1379.5 240h-32.3a6 6 0 0 1-6-6v-29a6 6 0 0 0-6-6h-16.44" stroke="#3a414a" fill="none"/><path d="M1380 240.5h-.5v-1h.5z" stroke="#3a414a" stroke-width=".05" fill="#3a414a"/><path d="M1304 199l14.26-4.63v9.26z" stroke="#3a414a" fill="#3a414a"/><path d="M1259.85 760.62v-60.55a.07.07 0 0 1 .08-.07.07.07 0 0 0 .07-.07v-56.05" stroke="#3a414a" fill="none"/><path d="M1259.85 775.38l-4.63-14.26h9.27zM1260 629.12l4.63 14.26h-9.27z" stroke="#3a414a" fill="#3a414a"/><path d="M1183.62 800H996.38" stroke="#3a414a" fill="none"/><path d="M1198.38 800l-14.26 4.63v-9.26zM981.62 800l14.26-4.63v9.26z" stroke="#3a414a" fill="#3a414a"/><path d="M1151.2-1a6 6 0 0 1 6-6h228a6 6 0 0 1 6 6v51.33a6 6 0 0 1-6 6h-228a6 6 0 0 1-6-6z" stroke="#000" stroke-opacity="0" fill="#fff" fill-opacity="0"/><use xlink:href="#t" transform="matrix(1,0,0,1,1156.1865729898518,-2.0000000000000355) translate(33.672839506172835 31.27777777777778)"/><use xlink:href="#u" transform="matrix(1,0,0,1,1156.1865729898518,-2.0000000000000355) translate(119.96913580246913 31.27777777777778)"/><path d="M726 650a6 6 0 0 1-6-6V292a6 6 0 0 1 6-6h51.33a6 6 0 0 1 6 6v352a6 6 0 0 1-6 6z" stroke="#000" stroke-opacity="0" fill="#fff" fill-opacity="0"/><use xlink:href="#v" transform="matrix(6.123233995736766e-17,-1,1,6.123233995736766e-17,725.0000000000001,645) translate(132.64814814814815 31.27777777777778)"/><use xlink:href="#w" transform="matrix(6.123233995736766e-17,-1,1,6.123233995736766e-17,725.0000000000001,645) translate(185.67283950617286 31.27777777777778)"/><path d="M1131.2 829a6 6 0 0 1 6-6h248a6 6 0 0 1 6 6v78a6 6 0 0 1-6 6h-248a6 6 0 0 1-6-6z" stroke="#000" stroke-opacity="0" fill="#fff" fill-opacity="0"/><use xlink:href="#x" transform="matrix(1,0,0,1,1136.1865729898518,827.9999999999999) translate(37.09876543209876 30.27777777777778)"/><use xlink:href="#y" transform="matrix(1,0,0,1,1136.1865729898518,827.9999999999999) translate(96.29629629629629 30.27777777777778)"/><use xlink:href="#z" transform="matrix(1,0,0,1,1136.1865729898518,827.9999999999999) translate(108.64197530864197 30.27777777777778)"/><use xlink:href="#y" transform="matrix(1,0,0,1,1136.1865729898518,827.9999999999999) translate(166.0493827160494 30.27777777777778)"/><use xlink:href="#A" transform="matrix(1,0,0,1,1136.1865729898518,827.9999999999999) translate(178.39506172839506 30.27777777777778)"/><use xlink:href="#B" transform="matrix(1,0,0,1,1136.1865729898518,827.9999999999999) translate(58.39506172839506 56.94444444444445)"/><use xlink:href="#C" transform="matrix(1,0,0,1,1136.1865729898518,827.9999999999999) translate(117.5925925925926 56.94444444444445)"/><path d="M623.22-254a6 6 0 0 1 6-6h336.8a6 6 0 0 1 6 6V2.5a6 6 0 0 1-6 6h-336.8a6 6 0 0 1-6-6z" stroke="#232f3e" fill="#fff" fill-opacity="0"/><path d="M623.22-260h56v56h-56v-56z" stroke="#fff" stroke-opacity="0" fill="#232f3e"/><path d="M664.1-218.78h-25c-4.13.05-7.57-3.1-7.9-7.2v-.64c-.15-3.4 1.97-6.38 5.25-7.36v-.66c.12-4.22 2.44-7.75 6.24-9.57 4.12-1.86 8.72-.96 11.8 2.3 1.08 1.1 1.84 2.2 2.44 3.6 1.2-1 2.72-1.32 4.24-.9 2.24.8 3.68 2.74 3.76 5.1 3.68.65 6.32 3.8 6.28 7.56 0 7.07-7.04 7.73-7.12 7.76zm-26.7-13.88c-2.83.6-4.75 3.14-4.6 6.04v.53c.3 3.33 3.1 5.84 6.4 5.76h24.98c3.04-.3 5.4-2.64 5.68-5.7.28-3.43-2.24-6.5-5.68-6.78-.44-.05-.72-.44-.64-.87.08-1.83-1-3.44-2.72-4.13-1.32-.37-2.64.13-3.44 1.24-.2.25-.44.38-.76.33-.28-.05-.48-.24-.6-.5-.6-1.6-1.4-2.85-2.6-4.04-2.68-2.8-6.6-3.6-10.13-2-3.25 1.6-5.2 4.63-5.33 8.24-.04.4-.04.74 0 1.14.04.4-.2.76-.6.84z" stroke="#fff" stroke-opacity="0" fill="#fff"/><use xlink:href="#D" transform="matrix(1,0,0,1,694.2201405152224,-240) translate(108 17.77777777777778)"/><use xlink:href="#E" transform="matrix(1,0,0,1,694.2201405152224,-240) translate(218.92592592592592 17.77777777777778)"/><path d="M927.16-71.8h-12.94c-.65 0-1.26-.38-1.52-.98l-18.14-38.9h-7.32c-.9 0-1.7-.75-1.7-1.68v-11.22c0-.92.8-1.7 1.7-1.7h16.15c.7 0 1.25.4 1.5 1L923-86.4h4.16c.92 0 1.7.77 1.7 1.75v11.16c0 .94-.78 1.7-1.7 1.7zm-11.9-3.43h10.17v-7.73h-3.5c-.65 0-1.26-.4-1.52-1l-18.05-38.93h-13.38v7.8h6.67c.7 0 1.3.38 1.56.98z" stroke="#fff" stroke-opacity="0" fill="#d86613"/><path d="M892.03-71.8H878.2c-.9 0-1.68-.77-1.68-1.72 0-.27.05-.47.17-.7l14.44-30.27c.3-.6.87-.97 1.53-.97.67 0 1.24.34 1.54.94l6.92 14.3c.23.5.23 1 0 1.46l-7.55 16c-.3.6-.87.97-1.54.97zm-11.1-3.4h10l6.83-14.27-5.1-10.38z" stroke="#fff" stroke-opacity="0" fill="#d86613"/><path d="M903.22-55.83c-22.08 0-40-17.92-40-40s17.92-40 40-40 40 17.92 40 40-17.92 40-40 40zm0-76.56c-20.24 0-36.56 16.33-36.56 36.57 0 20.24 16.32 36.56 36.56 36.56 20.24 0 36.56-16.32 36.56-36.56 0-20.24-16.32-36.56-36.56-36.56z" stroke="#fff" stroke-opacity="0" fill="#d86613"/><use xlink:href="#F" transform="matrix(1,0,0,1,833.2201405152224,-46.833333333333286) translate(29.907407407407405 17.77777777777778)"/><use xlink:href="#G" transform="matrix(1,0,0,1,833.2201405152224,-46.833333333333286) translate(27.469135802469133 44.44444444444444)"/><path d="M693.55-115.67h80v80h-80v-80z" stroke="#000" stroke-opacity="0" fill="url(#H)"/><path d="M755.64-90.13c0 .64-.34 1.23-.88 1.56l-21.24 12.3v26.24c0 .65-.34 1.24-.88 1.56-.3.16-.63.27-.92.27-.34 0-.64-.1-.93-.27l-20.08-11.6c-.6-.4-.93-.98-.93-1.62v-25.58c0-.65.34-1.24.92-1.56l22.12-12.8c.53-.37 1.22-.37 1.8 0l20.02 9.9c.64.37.98.96.98 1.6zm-23.68 11.88l20.4-11.83-18.6-9.25-21.48 12.42v24.83l18.75 10.86v-25.5c0-.64.35-1.23.93-1.55zm25.63-6.4c.57.32.9.9.9 1.56v21.5c0 .66-.33 1.25-.9 1.57L740.1-48.4c-.34.15-.7.25-1.03.25-.3 0-.63-.1-.87-.2-.6-.33-.93-.98-.93-1.63v-10.48c0-.64.34-1.23.83-1.56l7.94-5.96v-10.1c0-.98.78-1.4 1.07-1.57l8.68-5c.6-.32 1.27-.32 1.8 0zm-1.57 22.7v-19.96l-7.5 4.35v10.16c0 .44-.2.76-.5 1.03l-8.27 6.24v8.92z" stroke="#000" stroke-opacity="0" fill="#fff"/><use xlink:href="#I" transform="matrix(1,0,0,1,663.5534738485557,-26.666666666666657) translate(46.60493827160494 17.77777777777778)"/><path d="M751.25-160.86c1.84-1.84 3.6-3.67 5.43-5.53.56-.63 1.28-1.28 1.84-1.94-.48-.73-1.28-1.27-2-1.57-1.36-.64-2.7-.44-4 .45-1.67 1.15-2.4 3-2.4 5.28.1.9.25 1.76.65 2.53.16.28.32.53.48.78m2.08 1.74c.88.36 1.9.32 2.8.1.47-.2 1.67-.82 2.07-.73h.08l.08.04c.24.15.48.35.64.7.32.74.16 1.5-.48 1.92l-.16.16c-2.32 1.58-4.8 1.36-7.03-.1-1.12-.72-1.92-1.78-2.56-3.05l-.16-.3c-1.43-3.06-1.27-6.25.4-9.15.57-1 1.3-1.8 2.17-2.38l.4-.23c2.16-1.5 4.47-1.4 6.7-.1 1.13.72 2.17 1.76 2.8 3.14l.1.26c.55 1-.1 1.88-.73 2.47-.8.7-1.52 1.54-2.24 2.27-1.68 1.65-3.28 3.33-4.87 4.98zM770.6-173h.23c.72 0 1.2.6 1.2 1.46 0 1.2-.96 1.5-1.75 1.5-1.12 0-2.16.8-2.88 1.67-.96 1.1-1.36 2.5-1.36 4.06v6.97c0 .82-.4 1.45-1.12 1.45h-.24c-.64 0-1.12-.63-1.12-1.45v-7.4c0-2.82 1.2-5.15 3.12-6.76 1.2-.97 2.48-1.5 3.92-1.5zm-30.23 4.97c.96-1.1 1.84-2.24 2.8-3.35.32-.3 1.28-1.6 1.68-1.6h.48c.56.15.96.56.96 1.26v.3c0 .47-.4 1.04-.73 1.38l-1.68 2.06-2.97 3.53c1.28 1.52 2.56 3.02 3.76 4.54.4.42.7.85 1.03 1.26.16.15.32.34.4.56.16.18.16.4.16.64v.38c-.1.66-.5 1.18-1.05 1.18H745c-.4 0-.87-.54-1.1-.84-.57-.63-1.13-1.3-1.7-1.97l-1.83-2.16v3.5c0 .78-.4 1.44-1.1 1.44h-.17c-.72 0-1.12-.66-1.12-1.45V-177c0-.8.4-1.43 1.12-1.43h.16c.72 0 1.12.64 1.12 1.43v8.97zm-7.9-1.94c-.33-.2-1.05-.28-1.45-.3-2-.1-3.44 1.27-4.32 3.4-.32.73-.4 1.52-.4 2.34 0 2.47 1.04 4.2 2.88 5.25.72.4 1.6.46 2.32.46.64 0 1.6-.48 2.16-.8l.08-.07h.48v.04c.56.13 1.04.54 1.04 1.24v.3c0 1.77-2.72 2.15-3.76 2.24-3.68.3-6.4-2.08-7.43-6.2-.16-.7-.24-1.44-.24-2.18v-.57c0-3.13 1.35-5.62 3.6-7.2 1.03-.75 2.15-1.14 3.43-1.14h.48c1.28 0 2.48.45 3.52 1.3l.08.08.08.13c.08.22.24.5.24.77v.27c0 .75-.48 1.13-1.04 1.27l-.08.02h-.16c-.32-.02-1.12-.45-1.52-.63zm-22.07 5.48c0 2.2.88 3.82 2.47 4.97.72.52 1.52.77 2.4.77 1.76 0 3.12-1.1 4.08-2.94.48-.86.64-1.84.64-2.84 0-2.06-.8-3.6-2.25-4.73-.8-.64-1.6-.93-2.56-.93-2 0-3.53 1.22-4.4 3.38-.25.74-.4 1.5-.4 2.33zm4.55-8.6h.32c2.8 0 4.96 1.63 6.32 4.55.55 1.16.8 2.43.8 3.77v.58c0 3.13-1.3 5.63-3.53 7.2-1.04.74-2.24 1.12-3.44 1.12h-.48c-2.64 0-4.7-1.54-6.07-4.24-.56-1.24-.88-2.63-.88-4.08v-.6c0-3.1 1.28-5.58 3.5-7.2 1.05-.74 2.25-1.1 3.45-1.1zm-20.46 8.6c0 2.28.95 3.98 2.63 5.06.63.43 1.35.68 2.15.68 1.84 0 3.2-1.04 4.16-2.92.48-.88.64-1.84.64-2.85 0-1.98-.72-3.5-2.08-4.65-.8-.68-1.68-1.02-2.72-1.02-2 0-3.43 1.22-4.3 3.38-.33.74-.5 1.5-.5 2.33zm9.58-6.45v-6.1c0-.8.48-1.44 1.12-1.44h.24c.72 0 1.12.64 1.12 1.46v12.84c0 3.13-1.28 5.63-3.6 7.2-1.04.74-2.16 1.12-3.44 1.12h-.48c-2.63 0-4.7-1.54-6-4.24-.63-1.24-.95-2.63-.95-4.08v-.6c0-3.1 1.27-5.6 3.6-7.2 1.02-.74 2.14-1.1 3.34-1.1h.48c1.84 0 3.36.8 4.56 2.15zM738.16-218.77h7.2v8.7h3.58c1.68 0 3.43-.32 4.97-.97.78-.33 1.7-.76 2.46-1.3-1.05-1.56-1.54-3.56-1.68-5.5-.2-2.7.2-6.16 1.75-8.22l.77-1.02.84.8c2.3 2.17 4.2 5.2 4.5 8.65 2.72-.97 5.94-.7 8.32.92l.98.7-.5 1.18c-2.02 4.7-6.3 6.16-10.43 5.88-6.15 18.42-19.66 27.12-35.98 27.12-8.47 0-16.24-3.78-20.66-12.7l-.07-.16-.64-1.56c-1.47-3.94-1.96-8.2-1.68-12.53l.14-1.3h6.1v-8.7h7.14v-8.53h14.35v-8.53h8.56v17.06z" stroke="#000" stroke-opacity="0" fill="#394d54"/><path d="M761.38-215.55c.47-4.44-2.35-7.92-4.03-9.6-2.02 2.77-2.36 9.94.8 13-1.75 1.84-5.44 3.52-9.2 3.52h-45.88c-.33 4.7.34 9 1.95 12.7l.47 1.12c.33.66.73 1.3 1.14 1.92 1.88.17 3.56.2 5.18.17 3.16-.1 5.64-.56 7.6-1.35.26-.1.6.08.74.42.06.33-.07.7-.34.83s-.54.2-.8.3c-1.56.5-3.17.88-5.32 1.04h-.14c-.06 0-.13 0-.2.05-.8.03-1.75.03-2.62.03-1 0-2.02 0-3.1-.1l-.06.06c3.83 5.1 9.82 8.16 17.28 8.16 15.87 0 29.32-8.38 35.24-27.15 4.24.5 8.34-.8 10.16-5.06-2.96-2.06-6.73-1.4-8.88-.1z" stroke="#000" stroke-opacity="0" fill="#00aada"/><path d="M761.37-215.56c.45-4.43-2.35-7.93-4.02-9.58-2 2.73-2.35 9.94.78 12.97-1.73 1.87-5.42 3.53-9.16 3.53H705.8c-.16 7.17 2.07 12.64 6.04 15.92 3.12-.07 5.64-.54 7.6-1.33.27-.1.6.07.66.43.1.33 0 .7-.33.83-.23.12-.5.2-.8.3-1.5.5-3.28.9-5.4 1.08l-.06-.07c5.43 3.32 13.25 3.3 22.24-.82 10.05-4.58 19.37-13.37 25.9-23.38-.1.03-.16.1-.27.14z" stroke="#000" stroke-opacity="0" fill="#24b8eb"/><path d="M703.2-202.95c.26 2.5.9 4.87 1.82 7.02l.5 1.12c.3.66.7 1.3 1.07 1.92 1.87.16 3.65.2 5.22.16 3.12-.08 5.66-.5 7.6-1.32.27-.12.6.06.7.4.1.35-.05.72-.32.84s-.54.22-.8.3c-1.52.53-3.3.88-5.4 1.04-.06.02-.22.02-.27.02-.8.06-1.73.08-2.65.08-.97 0-2-.02-3.13-.08 3.83 5.12 9.87 8.2 17.37 8.2 13.54 0 25.35-6.15 32.2-19.7h-53.93z" stroke="#000" stroke-opacity="0" fill="#008bb8"/><path d="M706.23-202.94c.8 4.4 2.78 7.86 5.6 10.22 3.1-.07 5.64-.52 7.57-1.32.32-.1.63.07.72.4.1.35-.05.72-.32.84l-.8.3c-1.52.52-3.36.9-5.47 1.05 5.42 3.3 13.22 3.24 22.18-.86 5.43-2.5 10.63-6.2 15.33-10.64h-44.8z" stroke="#000" stroke-opacity="0" fill="#039bc6"/><path d="M714.52-216.74h.5v6.16h-.5v-6.16zm-.94 0h.5v6.16h-.5v-6.16zm-.94 0h.5v6.16h-.5v-6.16zm-.94 0h.5v6.16h-.5v-6.16zm-.94 0h.5v6.16h-.5v-6.16zm-.92 0h.5v6.16h-.5v-6.16zm-.5-.62h6.18v7.4h-6.2v-7.4zM721.67-225.27h.5v6.16h-.5v-6.17zm-.94 0h.5v6.16h-.5v-6.17zm-.93 0h.5v6.16h-.5v-6.17zm-.95 0h.5v6.16h-.5v-6.17zm-.93 0h.5v6.16h-.5v-6.17zm-.93 0h.48v6.16h-.5v-6.17zm-.52-.62h6.2v7.4h-6.2v-7.4z" stroke="#000" stroke-opacity="0" fill="#00acd3"/><path d="M721.67-216.74h.5v6.16h-.5v-6.16zm-.94 0h.5v6.16h-.5v-6.16zm-.93 0h.5v6.16h-.5v-6.16zm-.95 0h.5v6.16h-.5v-6.16zm-.93 0h.5v6.16h-.5v-6.16zm-.93 0h.48v6.16h-.5v-6.16zm-.52-.62h6.2v7.4h-6.2v-7.4z" stroke="#000" stroke-opacity="0" fill="#20c2ef"/><path d="M728.83-216.74h.5v6.16h-.5v-6.16zm-.94 0h.5v6.16h-.5v-6.16zm-.95 0h.5v6.16h-.5v-6.16zm-.94 0h.52v6.16h-.5v-6.16zm-.93 0h.5v6.16h-.5v-6.16zm-.92 0h.5v6.16h-.5v-6.16zm-.52-.62h6.2v7.4h-6.2v-7.4z" stroke="#000" stroke-opacity="0" fill="#00acd3"/><path d="M728.83-225.27h.5v6.16h-.5v-6.17zm-.94 0h.5v6.16h-.5v-6.17zm-.95 0h.5v6.16h-.5v-6.17zm-.94 0h.52v6.16h-.5v-6.17zm-.93 0h.5v6.16h-.5v-6.17zm-.92 0h.5v6.16h-.5v-6.17zm-.52-.62h6.2v7.4h-6.2v-7.4zM735.98-216.74h.5v6.16h-.5v-6.16zm-.94 0h.5v6.16h-.5v-6.16zm-.93 0h.5v6.16h-.5v-6.16zm-.94 0h.5v6.16h-.5v-6.16zm-.93 0h.5v6.16h-.5v-6.16zm-.93 0h.5v6.16h-.5v-6.16zm-.5-.62h6.2v7.4h-6.2v-7.4z" stroke="#000" stroke-opacity="0" fill="#20c2ef"/><path d="M735.98-225.27h.5v6.16h-.5v-6.17zm-.94 0h.5v6.16h-.5v-6.17zm-.93 0h.5v6.16h-.5v-6.17zm-.94 0h.5v6.16h-.5v-6.17zm-.93 0h.5v6.16h-.5v-6.17zm-.93 0h.5v6.16h-.5v-6.17zm-.5-.62h6.2v7.4h-6.2v-7.4z" stroke="#000" stroke-opacity="0" fill="#00acd3"/><path d="M735.98-233.8h.5v6.17h-.5v-6.17zm-.94 0h.5v6.17h-.5v-6.17zm-.93 0h.5v6.17h-.5v-6.17zm-.94 0h.5v6.17h-.5v-6.17zm-.93 0h.5v6.17h-.5v-6.17zm-.93 0h.5v6.17h-.5v-6.17zm-.5-.6h6.2v7.38h-6.2v-7.4z" stroke="#000" stroke-opacity="0" fill="#20c2ef"/><path d="M743.14-216.74h.5v6.16h-.5v-6.16zm-.94 0h.5v6.16h-.5v-6.16zm-.94 0h.5v6.16h-.5v-6.16zm-.94 0h.5v6.16h-.5v-6.16zm-.94 0h.5v6.16h-.5v-6.16zm-.92 0h.5v6.16h-.5v-6.16zm-.52-.62h6.2v7.4h-6.2v-7.4z" stroke="#000" stroke-opacity="0" fill="#00acd3"/><path d="M722.3-197.98c.94 0 1.7.9 1.7 2.04 0 1.12-.76 2.03-1.7 2.03-.95 0-1.72-.92-1.72-2.04 0-1.13.77-2.04 1.7-2.04" stroke="#000" stroke-opacity="0" fill="#d4edf1"/><path d="M722.3-197.4c.15 0 .3.03.44.1-.15.1-.25.3-.25.5 0 .34.2.6.5.6.17 0 .34-.12.42-.3.06.17.1.36.1.56 0 .8-.55 1.46-1.23 1.46-.68 0-1.23-.66-1.23-1.46 0-.8.54-1.46 1.22-1.46M692.03-202.2h79.58c-1.74-.53-5.48-1.24-4.84-3.95-3.2 4.35-10.75 3.05-12.66.9-2.14 3.7-14.56 2.3-15.43-.58-2.7 3.75-11 3.75-13.7 0-.87 2.88-13.28 4.28-15.43.6-1.9 2.13-9.47 3.43-12.65-.92.62 2.7-3.12 3.42-4.87 3.94" stroke="#000" stroke-opacity="0" fill="#394d54"/><path d="M726.84-183.3c-4.24-2.4-6.56-5.65-7.86-9.2-1.58.54-3.47.88-5.67 1.03-.8.05-1.68.08-2.6.08-1.05 0-2.16-.03-3.32-.1 3.9 4.63 8.66 8.2 17.5 8.25.65 0 1.32 0 1.96-.04z" stroke="#000" stroke-opacity="0" fill="#bfdbe0"/><path d="M720.56-189.22c-.6-.95-1.16-2.14-1.57-3.28-1.6.54-3.48.88-5.68 1.03 1.5.97 3.67 1.88 7.24 2.25z" stroke="#000" stroke-opacity="0" fill="#d4edf1"/><use xlink:href="#J" transform="matrix(1,0,0,1,662.0335675253708,-146.8333333333333) translate(34.876543209876544 17.77777777777778)"/><path d="M774.05-75.67h38.34a6 6 0 0 0 6-6v-8.16a6 6 0 0 1 6-6h22.44" stroke="#3a414a" fill="none"/><path d="M774.07-75.17h-.52v-1h.52z" stroke="#3a414a" stroke-width=".05" fill="#3a414a"/><path d="M861.6-95.83l-14.26 4.63v-9.27z" stroke="#3a414a" fill="#3a414a"/><path d="M677.63-314a6 6 0 0 1 6-6h228a6 6 0 0 1 6 6v51.33a6 6 0 0 1-6 6h-228a6 6 0 0 1-6-6z" stroke="#000" stroke-opacity="0" fill="#fff" fill-opacity="0"/><use xlink:href="#K" transform="matrix(1,0,0,1,682.6268540202966,-315) translate(73.73456790123458 31.27777777777778)"/><path d="M62.37 356a6 6 0 0 1 6-6h510.38a6 6 0 0 1 6 6v265a6 6 0 0 1-6 6H68.37a6 6 0 0 1-6-6z" stroke="#232f3e" fill="#fff" fill-opacity="0"/><path d="M62.37 350h56v56h-56v-56z" stroke="#fff" stroke-opacity="0" fill="#232f3e"/><path d="M103.25 391.22h-25c-4.13.05-7.57-3.1-7.9-7.2v-.64c-.15-3.4 1.97-6.38 5.26-7.36v-.66c.13-4.22 2.45-7.75 6.25-9.57 4.12-1.86 8.72-.96 11.8 2.3 1.08 1.1 1.84 2.2 2.44 3.6 1.2-1 2.7-1.32 4.23-.9 2.24.8 3.68 2.74 3.76 5.1 3.67.65 6.3 3.8 6.27 7.56 0 7.07-7.04 7.73-7.12 7.76zm-26.7-13.88h.02c-2.84.6-4.77 3.14-4.6 6.04v.53c.27 3.33 3.08 5.84 6.4 5.76h24.96c3.04-.3 5.4-2.64 5.68-5.7.3-3.43-2.23-6.5-5.67-6.78-.44-.05-.72-.44-.64-.87.07-1.83-1-3.44-2.73-4.13-1.32-.37-2.64.13-3.44 1.24-.2.25-.44.38-.76.33-.28-.05-.48-.24-.6-.5-.6-1.6-1.4-2.85-2.6-4.04-2.68-2.8-6.6-3.6-10.12-2-3.24 1.6-5.2 4.63-5.33 8.24-.04.4-.04.74 0 1.14.05.4-.2.76-.6.84z" stroke="#fff" stroke-opacity="0" fill="#fff"/><use xlink:href="#L" transform="matrix(1,0,0,1,133.37314597970345,369.9999999999999) translate(0 17.77777777777778)"/><path d="M42.37 46a6 6 0 0 1 6-6h548a6 6 0 0 1 6 6v598a6 6 0 0 1-6 6h-548a6 6 0 0 1-6-6z" fill="#fff" fill-opacity="0"/><path d="M46.08 40.47l.44-.18.9-.23.95-.07h2m3.96 0h3.97m3.97 0h3.97m3.97 0h3.98m3.98 0h3.97m3.97 0h3.97m3.97 0H98m3.98 0h3.97m3.97 0h3.97m3.97 0h3.97m3.97 0h3.98m3.97 0h3.97m3.97 0h3.96m3.97 0h3.97m3.98 0h3.97m3.97 0h3.97m3.96 0h3.97m3.97 0h3.97m3.97 0h3.97m4 0h3.96m3.97 0h3.97m3.97 0h3.97m3.97 0h3.98m3.97 0h3.97m3.98 0h3.97m3.97 0h3.97m3.98 0h3.97m3.97 0h3.97m3.96 0h3.98m3.97 0h3.98m3.97 0h3.97m3.97 0h3.96m3.97 0h3.97m3.98 0h3.97m3.97 0h3.97m3.96 0h3.97m3.97 0h3.97m3.97 0h3.97m4 0h3.96m3.97 0h3.97m3.97 0h3.97m3.97 0H376m3.97 0h3.97m3.97 0h3.97m3.97 0h3.97m3.98 0h3.97m3.97 0h3.97m3.96 0h3.97m3.98 0h3.98m3.97 0h3.97m3.97 0h3.96m3.97 0h3.97m3.97 0h3.97m3.98 0h3.97m3.96 0h3.97m3.97 0h3.97m3.97 0h3.97m3.98 0h3.97m3.97 0H511m3.97 0h3.97m3.97 0h3.98m3.97 0h3.97m3.97 0h3.96m3.98 0h3.97m3.98 0h3.97m3.97 0h3.97m3.96 0h3.97m3.97 0h3.98m3.97 0h3.97m3.97 0h1.97l.94.07.93.22.43.17m3.24 3.24l.18.45.22.9.07.95v2m0 3.98v4m0 3.97v4m0 3.98v3.98m0 4v4m0 3.97v4m0 3.98v3.98m0 4v3.98m0 4v3.98m0 4v3.97m0 4v3.98m0 3.98v4m0 4v3.97m0 4v3.98m0 3.98v4m0 3.98v4m0 3.98v4m0 3.97v4m0 3.98v3.98m0 4v4m0 3.97v4m0 3.98v3.98m0 4v3.98m0 4v3.98m0 4v3.97m0 4v3.98m0 3.98v4m0 4v3.97m0 4v3.98m0 3.98v4m0 3.98v4m0 3.98v4m0 3.97v4m0 3.98v3.98m0 4v4m0 3.97v4m0 3.98v3.98m0 4V343m0 4v3.98m0 4v3.97m0 4v3.98m0 3.98v4m0 4v3.97m0 4v3.98m0 3.98v4m0 3.98v4m0 3.98v4m0 3.97v4m0 3.98v3.98m0 4v4m0 3.97v4m0 3.98v3.98m0 4v3.98m0 4v3.98m0 4v3.97m0 4v3.98m0 3.98v4m0 4v3.97m0 4v3.98m0 3.98v4m0 3.98v4m0 3.98v4m0 3.97v4m0 3.98v3.98m0 4v4m0 3.97v4m0 3.98v3.98m0 4v3.98m0 4v3.98m0 4v3.97m0 4v3.98m0 3.98v4m0 4v3.97m0 4v3.98m0 3.98v4m0 3.98v2l-.07.94-.22.9-.18.45m-3.24 3.23l-.43.18-.92.23-.93.07h-1.98m-3.98 0h-3.97m-3.98 0h-3.97m-3.97 0h-3.97m-3.97 0h-3.98m-3.97 0h-3.97m-3.97 0h-3.97m-3.97 0h-3.97m-3.98 0h-3.97m-3.97 0h-3.97m-3.96 0h-3.97m-3.97 0h-3.98m-3.97 0h-3.97m-3.97 0h-3.96m-3.97 0h-3.97m-3.97 0h-3.97m-3.97 0h-4m-3.96 0h-3.97m-3.97 0h-3.97m-3.97 0h-3.97m-3.98 0h-3.97m-3.97 0h-3.97m-3.97 0h-3.97m-3.97 0h-3.98m-3.97 0h-3.97m-3.97 0h-3.96m-3.97 0h-3.98m-3.98 0h-3.97m-3.97 0H372m-3.96 0h-3.97m-3.97 0h-3.97m-3.97 0h-3.98m-3.97 0h-3.96m-3.97 0h-3.97m-3.97 0h-3.97m-3.97 0h-3.98m-3.97 0h-3.97m-3.98 0h-3.97m-3.97 0h-3.97m-3.98 0h-3.97m-3.97 0h-3.97m-3.96 0h-3.98m-3.97 0h-3.98m-3.97 0h-3.97m-3.97 0h-3.96m-3.97 0H237m-3.97 0h-3.98m-3.97 0h-3.97m-3.96 0h-3.97m-3.97 0h-3.97m-3.97 0h-3.97m-4 0h-3.96m-3.97 0h-3.97m-3.97 0h-3.97m-3.97 0h-3.98m-3.97 0h-3.97m-3.98 0h-3.97m-3.97 0h-3.97m-3.98 0h-3.97m-3.97 0h-3.97m-3.96 0h-3.97m-3.98 0h-3.98m-3.97 0h-3.97M98 650h-3.96m-3.97 0H86.1m-3.97 0h-3.97m-3.97 0h-4m-3.96 0h-3.97m-3.97 0h-3.97m-3.97 0h-2l-.92-.07-.92-.22-.44-.17m-3.23-3.24l-.18-.45-.22-.9-.08-.95v-2m0-3.98v-4m0-3.97v-4m0-3.98v-3.98m0-4v-4m0-3.97v-4m0-3.98v-3.98m0-4v-3.98m0-4v-3.98m0-4v-3.97m0-4v-3.98m0-3.98v-4m0-4v-3.97m0-4v-3.98m0-3.98v-4m0-3.98v-4m0-3.98v-4m0-3.97v-4m0-3.98v-3.98m0-4v-4m0-3.97v-4m0-3.98v-3.98m0-4v-3.98m0-4v-3.98m0-4v-3.97m0-4v-3.98m0-3.98v-4m0-4v-3.97m0-4v-3.98m0-3.98v-4m0-3.98v-4m0-3.98v-4m0-3.97v-4m0-3.98v-3.98m0-4v-4m0-3.97v-4m0-3.98v-3.98m0-4V347m0-4v-3.98m0-4v-3.97m0-4v-3.98m0-3.98v-4m0-4v-3.97m0-4v-3.98m0-3.98v-4m0-3.98v-4m0-3.98v-4m0-3.97v-4m0-3.98v-3.98m0-4v-4m0-3.97v-4m0-3.98v-3.98m0-4v-3.98m0-4v-3.98m0-4v-3.97m0-4v-3.98m0-3.98v-4m0-4v-3.97m0-4v-3.98m0-3.98v-4m0-3.98v-4m0-3.98v-4m0-3.97v-4m0-3.98v-3.98m0-4v-4m0-3.97v-4m0-3.98v-3.98m0-4v-3.98m0-4v-3.98m0-4v-3.97m0-4v-3.98m0-3.98v-4m0-4v-3.97m0-4v-3.98m0-3.98v-4m0-3.98v-2l.08-.94.22-.9.18-.45" stroke="#5a6c86" fill="none"/><path d="M324.74 425.42l57.98 8.62v5.08c0 7.55-25.98 13.65-58 13.65-32 0-57.97-6.1-57.97-13.64v-5.53z" fill="#8c3123"/><path d="M324.76 462.13c24.2 0 44.94-3.53 53.58-8.5l2.88-4.78 1.15-4.4v5.45l-19 81c0 5.08-17.3 9.1-38.6 9.1-21.32 0-38.6-4.02-38.6-9.1l-19.02-81v-5.35l4.38 9.27c8.76 4.87 29.27 8.3 53.23 8.3z" fill="#8c3123"/><path d="M324.75 420c32 0 58 6.12 58 13.62 0 7.5-26 13.57-58 13.57s-58-6.02-58-13.58c0-7.56 26-13.62 58-13.62z" fill="#e05243"/><path d="M324.74 456.6c29.85 0 54.4-5.2 57.62-12.06l-19 81c0 5.05-17.3 9.1-38.62 9.1-21.32 0-38.6-4.05-38.6-9.1l-19.02-81c3.22 6.85 27.77 12.07 57.62 12.07z" fill="#e05243"/><path d="M311.1 464.38h25.1v24.96h-25.1v-24.96zM303.5 498.17c6.84 0 12.38 5.5 12.38 12.3 0 6.8-5.54 12.3-12.38 12.3-6.83 0-12.38-5.5-12.38-12.3 0-6.8 5.55-12.3 12.38-12.3zM355.56 522.2h-24.8l12.4-22.94 12.4 22.94z" fill="#fff"/><use xlink:href="#M" transform="matrix(1,0,0,1,266.7462919594068,539.9999999999999) translate(8.092592592592588 17.77777777777778)"/><use xlink:href="#N" transform="matrix(1,0,0,1,266.7462919594068,539.9999999999999) translate(25.28395061728395 44.44444444444444)"/><path d="M440 160h80v80h-80v-80z" stroke="#fff" stroke-opacity="0" stroke-width="2" fill="#cc2264"/><path d="M497.07 193.6v-6.4c0-.6-.48-1.07-1.05-1.07h-14.96v-2.24c2.14-.43 3.72-2.03 4.15-4.17.63-2.88-1.25-5.7-4.14-6.3-2.9-.58-5.7 1.3-6.3 4.17-.57 2.88 1.27 5.7 4.16 6.3v2.23H464c-.6 0-1.05.48-1.05 1.07v4.27h-8.57c-.57 0-1.05.48-1.05 1.06v5.34c0 .58.48 1.06 1.05 1.06h8.57v2.14h-8.57c-.57 0-1.05.48-1.05 1.06v5.34c0 .58.48 1.06 1.05 1.06h8.57v4.27c0 .6.44 1.07 1.05 1.07h14.92v2.24c-2.15.43-3.72 2.03-4.16 4.17-.57 2.88 1.27 5.7 4.16 6.3 2.88.58 5.73-1.3 6.3-4.17.6-2.88-1.27-5.7-4.16-6.3v-2.23h14.96c.57 0 1.05-.48 1.05-1.07v-5.33h-2.15v4.26h-29.87v-3.2h8.53c.6 0 1.1-.48 1.1-1.06v-5.34c0-.58-.5-1.06-1.1-1.06h-8.53v-2.14h8.53c.6 0 1.1-.48 1.1-1.06v-5.34c0-.58-.5-1.06-1.1-1.06h-8.53v-3.2h29.87v5.33zm-13.87 27.73c0 1.76-1.44 3.2-3.2 3.2-1.78 0-3.18-1.44-3.18-3.2 0-1.76 1.4-3.2 3.2-3.2 1.74 0 3.18 1.44 3.18 3.2zm-10.67-18.13v3.2h-17.05v-3.2zm0-9.6v3.2h-17.05v-3.2zm4.3-14.93c0-1.76 1.4-3.2 3.18-3.2 1.76 0 3.2 1.44 3.2 3.2 0 1.76-1.44 3.2-3.2 3.2-1.78 0-3.18-1.44-3.18-3.2z" stroke="#fff" stroke-opacity="0" stroke-width="2" fill="#fff"/><path d="M505.6 195.73h-21.34c-.6 0-1.06.48-1.06 1.07v7.47c0 .58.47 1.06 1.06 1.06h21.35c.6 0 1.07-.48 1.07-1.06v-7.47c0-.6-.47-1.07-1.06-1.07zm-1.07 7.47h-19.2v-5.33h19.2z" stroke="#fff" stroke-opacity="0" stroke-width="2" fill="#fff"/><use xlink:href="#O" transform="matrix(1,0,0,1,410,248.99999999999997) translate(47.160493827160494 17.77777777777778)"/><use xlink:href="#P" transform="matrix(1,0,0,1,410,248.99999999999997) translate(21.913580246913575 44.44444444444444)"/><path d="M324.75 280.5v123.12M324.75 280.5v-.5" stroke="#3a414a" fill="none"/><path d="M324.75 418.38l-4.64-14.26h9.28z" stroke="#3a414a" fill="#3a414a"/><path d="M64.75 70.67a6 6 0 0 1 6-6h508a6 6 0 0 1 6 6v256.66a6 6 0 0 1-6 6h-508a6 6 0 0 1-6-6z" stroke="#232f3e" fill="#fff" fill-opacity="0"/><path d="M64.75 64.67h56v56h-56v-56z" stroke="#fff" stroke-opacity="0" fill="#232f3e"/><path d="M105.63 105.88h-25c-4.13.06-7.57-3.08-7.9-7.2v-.63c-.15-3.4 1.97-6.38 5.25-7.36v-.67c.12-4.22 2.44-7.75 6.24-9.58 4.12-1.84 8.72-.94 11.8 2.33 1.08 1.08 1.84 2.2 2.44 3.58 1.2-1 2.72-1.3 4.24-.9 2.24.8 3.7 2.75 3.77 5.1 3.68.66 6.32 3.8 6.28 7.57 0 7.07-7.05 7.73-7.13 7.75zM78.92 92c-2.83.6-4.75 3.15-4.6 6.05v.53c.3 3.32 3.1 5.83 6.4 5.75h24.97c3.05-.3 5.4-2.64 5.7-5.7.27-3.43-2.25-6.5-5.7-6.78-.44-.05-.72-.45-.64-.87.08-1.85-1-3.46-2.72-4.14-1.32-.37-2.64.13-3.44 1.24-.2.24-.44.37-.76.3v.02c-.28-.06-.48-.24-.6-.5-.6-1.62-1.4-2.86-2.6-4.04-2.68-2.8-6.6-3.6-10.12-2-3.24 1.6-5.2 4.64-5.32 8.25-.04.4-.04.75 0 1.14.04.4-.2.77-.6.85z" stroke="#fff" stroke-opacity="0" fill="#fff"/><use xlink:href="#Q" transform="matrix(1,0,0,1,135.7462919594068,84.66666666666666) translate(36.01 17.77777777777778)"/><use xlink:href="#R" transform="matrix(1,0,0,1,135.7462919594068,84.66666666666666) translate(72.01 17.77777777777778)"/><use xlink:href="#R" transform="matrix(1,0,0,1,135.7462919594068,84.66666666666666) translate(108.01 17.77777777777778)"/><use xlink:href="#R" transform="matrix(1,0,0,1,135.7462919594068,84.66666666666666) translate(144.01 17.77777777777778)"/><use xlink:href="#R" transform="matrix(1,0,0,1,135.7462919594068,84.66666666666666) translate(180.01 17.77777777777778)"/><use xlink:href="#R" transform="matrix(1,0,0,1,135.7462919594068,84.66666666666666) translate(216.01 17.77777777777778)"/><use xlink:href="#R" transform="matrix(1,0,0,1,135.7462919594068,84.66666666666666) translate(252.01 17.77777777777778)"/><use xlink:href="#S" transform="matrix(1,0,0,1,135.7462919594068,84.66666666666666) translate(288.01 17.77777777777778)"/><use xlink:href="#E" transform="matrix(1,0,0,1,135.7462919594068,84.66666666666666) translate(398.9359259259259 17.77777777777778)"/><path d="M348.7 223.03h-12.96c-.64 0-1.25-.38-1.5-.98l-18.16-38.9h-7.3c-.92 0-1.7-.75-1.7-1.68v-11.22c0-.92.78-1.68 1.7-1.68h16.14c.7 0 1.25.38 1.5.98l18.12 38.9h4.15c.9 0 1.68.75 1.68 1.73v11.17c0 .92-.78 1.68-1.7 1.68zm-11.92-3.43h10.18v-7.73h-3.5c-.66 0-1.26-.38-1.52-.98l-18.06-38.96H310.5v7.8h6.67c.7 0 1.3.37 1.56.97z" stroke="#fff" stroke-opacity="0" fill="#d86613"/><path d="M313.56 223.03h-13.83c-.92 0-1.7-.77-1.7-1.7.02-.28.06-.48.2-.72l14.44-30.26c.3-.6.86-.97 1.53-.97s1.24.33 1.54.94l6.9 14.32c.23.47.23.97 0 1.44l-7.55 16c-.3.6-.87.97-1.54.97zm-11.1-3.4h10l6.82-14.27-5.1-10.37z" stroke="#fff" stroke-opacity="0" fill="#d86613"/><path d="M324.75 239c-22.08 0-40-17.92-40-40s17.92-40 40-40 40 17.92 40 40-17.92 40-40 40zm0-76.56c-20.24 0-36.56 16.32-36.56 36.56 0 20.24 16.3 36.56 36.55 36.56 20.24 0 36.56-16.32 36.56-36.56 0-20.24-16.3-36.56-36.55-36.56z" stroke="#fff" stroke-opacity="0" fill="#d86613"/><use xlink:href="#F" transform="matrix(1,0,0,1,254.7462919594068,247.99999999999997) translate(29.907407407407405 17.77777777777778)"/><use xlink:href="#G" transform="matrix(1,0,0,1,254.7462919594068,247.99999999999997) translate(27.469135802469133 44.44444444444444)"/><path d="M133.56 206h80v80h-80v-80z" stroke="#000" stroke-opacity="0" fill="url(#T)"/><path d="M195.65 231.53c0 .65-.35 1.24-.88 1.56l-21.24 12.3v26.24c0 .64-.34 1.24-.88 1.56-.3.16-.63.27-.93.27-.34 0-.63-.1-.92-.27l-20.08-11.62c-.58-.37-.92-.96-.92-1.6v-25.6c0-.64.34-1.23.92-1.56l22.12-12.8c.54-.37 1.22-.37 1.8 0l20.03 9.9c.63.38.98.97.98 1.6zm-23.68 11.88l20.4-11.8-18.6-9.26-21.5 12.42v24.84l18.77 10.86v-25.5c0-.63.34-1.22.93-1.55zm25.62-6.38c.58.32.92.9.92 1.56v21.5c0 .65-.34 1.24-.93 1.56l-17.5 11.6c-.34.17-.68.28-1.02.28-.3 0-.63-.1-.88-.2-.58-.34-.92-.98-.92-1.63v-10.5c0-.64.34-1.23.83-1.55l7.95-5.97v-10.1c0-.97.78-1.4 1.07-1.56l8.67-5c.58-.33 1.26-.33 1.8 0zm-1.56 22.68v-19.94l-7.5 4.35v10.17c0 .43-.2.76-.5 1.02l-8.28 6.23v8.93z" stroke="#000" stroke-opacity="0" fill="#fff"/><use xlink:href="#I" transform="matrix(1,0,0,1,103.5597189695552,294.99999999999994) translate(46.60493827160494 17.77777777777778)"/><path d="M192.77 160.97c1.84-1.84 3.6-3.67 5.44-5.53.57-.63 1.3-1.3 1.85-1.95-.48-.74-1.28-1.28-2-1.57-1.36-.64-2.72-.43-4 .45-1.68 1.16-2.4 3-2.4 5.28.1.9.24 1.77.64 2.54.15.27.3.52.47.77m2.08 1.74c.88.38 1.92.33 2.8.13.48-.23 1.68-.84 2.08-.75h.08l.1.04c.23.16.47.37.63.7.32.75.16 1.5-.48 1.93l-.16.16c-2.33 1.6-4.8 1.37-7.05-.1-1.1-.7-1.9-1.77-2.55-3.04l-.16-.3c-1.44-3.05-1.28-6.25.4-9.15.56-1 1.28-1.78 2.15-2.37l.4-.22c2.15-1.5 4.47-1.4 6.7-.08 1.13.7 2.17 1.74 2.8 3.12l.1.25c.55 1-.1 1.87-.73 2.46-.8.7-1.52 1.54-2.24 2.27-1.68 1.65-3.28 3.33-4.88 4.98zm17.27-13.85h.24c.72 0 1.2.58 1.2 1.44 0 1.2-.96 1.5-1.76 1.5-1.12 0-2.16.78-2.88 1.67-.96 1.1-1.36 2.5-1.36 4.05v6.98c0 .82-.4 1.46-1.12 1.46h-.23c-.63 0-1.1-.64-1.1-1.46v-7.38c0-2.84 1.2-5.17 3.1-6.78 1.2-.97 2.48-1.5 3.92-1.5zm-30.22 4.96c.96-1.1 1.84-2.24 2.8-3.35.32-.3 1.28-1.6 1.68-1.6h.48v.02c.56.13.96.54.96 1.24v.3c0 .48-.4 1.05-.72 1.4-.56.7-1.12 1.37-1.68 2.05l-2.96 3.54c1.28 1.5 2.56 3 3.76 4.52.4.43.72.86 1.04 1.27.16.15.32.33.4.56.16.18.16.4.16.63v.38c-.08.65-.48 1.18-1.04 1.18h-.24c-.4 0-.88-.55-1.12-.84-.56-.64-1.12-1.32-1.68-1.97l-1.84-2.18v3.5c0 .78-.4 1.44-1.12 1.44h-.16c-.72 0-1.12-.65-1.12-1.44v-19.63c0-.8.4-1.42 1.12-1.42h.16c.72 0 1.12.64 1.12 1.43v8.98zm-7.9-1.94c-.33-.2-1.05-.27-1.45-.3-2-.1-3.44 1.27-4.32 3.4-.32.73-.4 1.52-.4 2.34 0 2.47 1.04 4.2 2.88 5.25.73.4 1.6.46 2.33.46.64 0 1.6-.47 2.16-.78l.07-.07h.47v.02c.56.14 1.04.54 1.04 1.25v.3c0 1.76-2.7 2.14-3.75 2.24-3.68.3-6.4-2.1-7.44-6.22-.17-.7-.25-1.42-.25-2.17V157c0-3.12 1.36-5.62 3.6-7.2 1.04-.75 2.16-1.14 3.44-1.14h.47c1.28 0 2.48.46 3.5 1.32l.1.07.07.1c.1.24.25.5.25.78l-.02.27c0 .75-.47 1.14-1.03 1.27l-.08.02h-.16c-.3-.03-1.1-.46-1.5-.64zm-22.08 5.48c0 2.2.88 3.8 2.48 4.97.72.53 1.52.78 2.4.78 1.76 0 3.12-1.1 4.08-2.95.47-.86.63-1.84.63-2.83 0-2.06-.78-3.6-2.22-4.74-.8-.63-1.6-.93-2.56-.93-2 0-3.52 1.23-4.4 3.38-.24.76-.4 1.53-.4 2.34zm4.56-8.6h.32c2.8 0 4.95 1.62 6.3 4.55.57 1.14.8 2.4.8 3.75v.6c0 3.1-1.27 5.6-3.5 7.2-1.04.72-2.24 1.1-3.44 1.1h-.48c-2.64 0-4.72-1.54-6.08-4.23-.56-1.25-.88-2.63-.88-4.08v-.6c0-3.12 1.28-5.6 3.52-7.2 1.04-.75 2.24-1.1 3.44-1.1zm-20.47 8.6c0 2.27.97 3.97 2.65 5.06.64.43 1.36.68 2.16.68 1.85 0 3.2-1.05 4.17-2.93.48-.88.64-1.83.64-2.85 0-1.97-.7-3.5-2.07-4.65-.8-.68-1.68-1.02-2.72-1.02-2 0-3.43 1.23-4.3 3.38-.33.76-.5 1.53-.5 2.34zm9.6-6.46v-6.1c0-.8.5-1.44 1.13-1.44h.24c.72 0 1.1.63 1.1 1.45v12.84c0 3.13-1.26 5.62-3.58 7.2-1.05.73-2.17 1.12-3.45 1.12h-.48c-2.64 0-4.72-1.55-6-4.24-.64-1.25-.96-2.63-.96-4.08v-.6c0-3.12 1.3-5.6 3.6-7.2 1.05-.75 2.17-1.1 3.37-1.1h.48c1.84 0 3.36.8 4.56 2.14zM179.68 103.07h7.22v8.7h3.57c1.68 0 3.43-.33 4.97-.98.77-.33 1.68-.77 2.45-1.3-1.06-1.57-1.55-3.57-1.7-5.5-.2-2.72.22-6.17 1.76-8.22l.77-1.03.84.8c2.3 2.17 4.2 5.2 4.48 8.65 2.73-.97 5.95-.7 8.33.92l1 .7-.5 1.2c-2.04 4.7-6.3 6.15-10.44 5.88-6.16 18.42-19.68 27.1-36 27.1-8.47 0-16.24-3.77-20.65-12.68l-.08-.16-.63-1.57c-1.48-3.95-1.97-8.22-1.7-12.54l.15-1.3h6.1v-8.7h7.13v-8.53h14.36V86h8.54v17.07z" stroke="#000" stroke-opacity="0" fill="#394d54"/><path d="M202.9 106.28c.48-4.44-2.35-7.9-4.03-9.6-2.02 2.77-2.35 9.94.8 13-1.74 1.84-5.44 3.52-9.2 3.52H144.6c-.34 4.7.33 9 1.95 12.7l.47 1.13c.33.67.74 1.3 1.14 1.92 1.9.17 3.57.2 5.18.17 3.16-.08 5.65-.54 7.6-1.34.27-.08.6.08.74.42.07.34-.07.7-.34.84-.27.12-.53.2-.8.3-1.55.5-3.16.87-5.32 1.04h-.13c-.08 0-.14 0-.2.04-.82.04-1.76.04-2.64.04-1 0-2 0-3.1-.08l-.06.04c3.84 5.1 9.82 8.17 17.3 8.17 15.86 0 29.3-8.4 35.23-27.16 4.24.5 8.34-.8 10.16-5.07-2.97-2.05-6.74-1.38-8.9-.1z" stroke="#000" stroke-opacity="0" fill="#00aada"/><path d="M202.9 106.27c.44-4.43-2.35-7.92-4.03-9.58-2 2.73-2.34 9.93.8 12.96-1.74 1.87-5.43 3.53-9.17 3.53h-43.17c-.17 7.16 2.07 12.64 6.03 15.92 3.13-.08 5.64-.54 7.6-1.34.28-.1.6.08.67.44.1.32 0 .68-.34.82-.23.1-.5.2-.8.3-1.5.5-3.28.9-5.4 1.07l-.06-.06c5.4 3.32 13.23 3.28 22.22-.83 10.06-4.56 19.38-13.35 25.9-23.37-.1.04-.15.1-.26.14z" stroke="#000" stroke-opacity="0" fill="#24b8eb"/><path d="M144.7 118.9c.28 2.5.93 4.85 1.85 7l.48 1.12c.33.67.7 1.32 1.08 1.93 1.9.16 3.68.2 5.24.16 3.13-.07 5.66-.5 7.6-1.3.28-.13.6.05.7.4.1.34-.05.7-.32.83-.27.12-.54.22-.8.3-1.52.53-3.3.88-5.4 1.04-.05.02-.22.02-.27.02-.8.05-1.72.07-2.64.07-.96 0-2-.02-3.12-.08 3.83 5.1 9.87 8.2 17.37 8.2 13.53 0 25.34-6.16 32.2-19.7H144.7z" stroke="#000" stroke-opacity="0" fill="#008bb8"/><path d="M147.75 118.9c.8 4.4 2.78 7.85 5.6 10.2 3.1-.06 5.65-.5 7.58-1.3.3-.12.63.06.72.4.1.34-.05.7-.32.84l-.8.3c-1.53.52-3.37.9-5.47 1.04 5.42 3.3 13.22 3.24 22.18-.86 5.42-2.48 10.62-6.17 15.32-10.63h-44.8z" stroke="#000" stroke-opacity="0" fill="#039bc6"/><path d="M156.05 105.1h.5v6.16h-.5v-6.17zm-.95 0h.5v6.16h-.5v-6.17zm-.93 0h.5v6.16h-.5v-6.17zm-.94 0h.5v6.16h-.5v-6.17zm-.95 0h.52v6.16h-.52v-6.17zm-.9 0h.47v6.16h-.48v-6.17zm-.53-.62h6.2v7.4h-6.2v-7.4zM163.2 96.56h.5v6.16h-.5v-6.16zm-.94 0h.5v6.16h-.5v-6.16zm-.94 0h.5v6.16h-.5v-6.16zm-.94 0h.5v6.16h-.5v-6.16zm-.94 0h.5v6.16h-.5v-6.16zm-.92 0h.5v6.16h-.5v-6.16zm-.52-.6h6.2v7.38H158v-7.4z" stroke="#000" stroke-opacity="0" fill="#00acd3"/><path d="M163.2 105.1h.5v6.16h-.5v-6.17zm-.94 0h.5v6.16h-.5v-6.17zm-.94 0h.5v6.16h-.5v-6.17zm-.94 0h.5v6.16h-.5v-6.17zm-.94 0h.5v6.16h-.5v-6.17zm-.92 0h.5v6.16h-.5v-6.17zm-.52-.62h6.2v7.4H158v-7.4z" stroke="#000" stroke-opacity="0" fill="#20c2ef"/><path d="M170.36 105.1h.5v6.16h-.5v-6.17zm-.95 0h.52v6.16h-.5v-6.17zm-.92 0h.5v6.16h-.5v-6.17zm-.94 0h.5v6.16h-.5v-6.17zm-.94 0h.5v6.16h-.5v-6.17zm-.93 0h.5v6.16h-.5v-6.17zm-.5-.62h6.2v7.4h-6.2v-7.4z" stroke="#000" stroke-opacity="0" fill="#00acd3"/><path d="M170.36 96.56h.5v6.16h-.5v-6.16zm-.95 0h.52v6.16h-.5v-6.16zm-.92 0h.5v6.16h-.5v-6.16zm-.94 0h.5v6.16h-.5v-6.16zm-.94 0h.5v6.16h-.5v-6.16zm-.93 0h.5v6.16h-.5v-6.16zm-.5-.6h6.2v7.38h-6.2v-7.4zM177.5 105.1h.5v6.16h-.5v-6.17zm-.93 0h.5v6.16h-.5v-6.17zm-.94 0h.5v6.16h-.5v-6.17zm-.94 0h.5v6.16h-.5v-6.17zm-.95 0h.5v6.16h-.5v-6.17zm-.92 0h.5v6.16h-.5v-6.17zm-.52-.62h6.2v7.4h-6.2v-7.4z" stroke="#000" stroke-opacity="0" fill="#20c2ef"/><path d="M177.5 96.56h.5v6.16h-.5v-6.16zm-.93 0h.5v6.16h-.5v-6.16zm-.94 0h.5v6.16h-.5v-6.16zm-.94 0h.5v6.16h-.5v-6.16zm-.95 0h.5v6.16h-.5v-6.16zm-.92 0h.5v6.16h-.5v-6.16zm-.52-.6h6.2v7.38h-6.2v-7.4z" stroke="#000" stroke-opacity="0" fill="#00acd3"/><path d="M177.5 88.03h.5v6.17h-.5v-6.17zm-.93 0h.5v6.17h-.5v-6.17zm-.94 0h.5v6.17h-.5v-6.17zm-.94 0h.5v6.17h-.5v-6.17zm-.95 0h.5v6.17h-.5v-6.17zm-.92 0h.5v6.17h-.5v-6.17zm-.52-.6h6.2v7.38h-6.2v-7.38z" stroke="#000" stroke-opacity="0" fill="#20c2ef"/><path d="M184.66 105.1h.5v6.16h-.5v-6.17zm-.94 0h.5v6.16h-.5v-6.17zm-.93 0h.5v6.16h-.5v-6.17zm-.96 0h.5v6.16h-.5v-6.17zm-.93 0h.52v6.16h-.5v-6.17zm-.92 0h.5v6.16h-.5v-6.17zm-.5-.62h6.2v7.4h-6.2v-7.4z" stroke="#000" stroke-opacity="0" fill="#00acd3"/><path d="M163.82 123.85c.94 0 1.7.9 1.7 2.04 0 1.1-.76 2.03-1.7 2.03-.95 0-1.7-.92-1.7-2.04 0-1.14.75-2.05 1.7-2.05" stroke="#000" stroke-opacity="0" fill="#d4edf1"/><path d="M163.82 124.43c.15 0 .3.03.44.1-.15.1-.25.3-.25.52 0 .33.23.6.5.6.2 0 .37-.14.45-.32.06.17.1.36.1.56 0 .8-.56 1.45-1.23 1.45-.68 0-1.23-.65-1.23-1.46 0-.82.54-1.47 1.22-1.47M133.56 119.63H213.14c-1.75-.53-5.5-1.24-4.86-3.94-3.18 4.33-10.74 3.03-12.65.9-2.15 3.7-14.56 2.28-15.44-.6-2.7 3.75-11 3.75-13.7 0-.87 2.88-13.28 4.3-15.43.6-1.9 2.14-9.47 3.43-12.66-.9.65 2.7-3.1 3.4-4.84 3.92" stroke="#000" stroke-opacity="0" fill="#394d54"/><path d="M168.37 138.54c-4.25-2.4-6.56-5.65-7.87-9.2-1.57.53-3.46.87-5.66 1.02-.82.06-1.7.08-2.6.08-1.06 0-2.17-.03-3.34-.1 3.9 4.62 8.66 8.18 17.52 8.25.64 0 1.3-.02 1.95-.06z" stroke="#000" stroke-opacity="0" fill="#bfdbe0"/><path d="M162.08 132.62c-.58-.95-1.16-2.14-1.57-3.3-1.56.55-3.45.9-5.65 1.04 1.5.98 3.66 1.88 7.23 2.26z" stroke="#000" stroke-opacity="0" fill="#d4edf1"/><use xlink:href="#J" transform="matrix(1,0,0,1,103.5597189695552,174.99999999999994) translate(34.876543209876544 17.77777777777778)"/><path d="M322.37 743.62v-99.74" stroke="#3a414a" fill="none"/><path d="M322.37 758.38l-4.63-14.26H327zM322.37 629.12l4.64 14.26h-9.26z" stroke="#3a414a" fill="#3a414a"/><path d="M213.56-1a6 6 0 0 1 6-6h228a6 6 0 0 1 6 6v51.33a6 6 0 0 1-6 6h-228a6 6 0 0 1-6-6z" stroke="#000" stroke-opacity="0" fill="#fff" fill-opacity="0"/><g><use xlink:href="#U" transform="matrix(1,0,0,1,218.5597189695552,-2.0000000000000355) translate(40.98765432098766 31.27777777777778)"/></g><path d="M214.06 246h29.1a6 6 0 0 0 6-6v-35a6 6 0 0 1 6-6h13.2" stroke="#3a414a" fill="none"/><path d="M214.07 246.5h-.5v-1h.5z" stroke="#3a414a" stroke-width=".05" fill="#3a414a"/><path d="M283.13 199l-14.27 4.63v-9.26z" stroke="#3a414a" fill="#3a414a"/><path d="M439.5 200h-58.43" stroke="#3a414a" fill="none"/><path d="M440 200.5h-.5v-1h.5z" stroke="#3a414a" stroke-width=".05" fill="#3a414a"/><path d="M366.3 200l14.27-4.63v9.26z" stroke="#3a414a" fill="#3a414a"/><path d="M737.13 194.33H536.4" stroke="#3a414a" fill="none"/><path d="M737.63 194.83h-.52v-1h.53z" stroke="#3a414a" stroke-width=".05" fill="#3a414a"/><path d="M521.62 194.33l14.26-4.63v9.27z" stroke="#3a414a" fill="#3a414a"/><path d="M797.63 117.95V25.38" stroke="#3a414a" fill="none"/><path d="M797.63 132.72L793 118.45h9.26zM797.63 10.62l4.63 14.26H793z" stroke="#3a414a" fill="#3a414a"/><path d="M299.08 762.7H343c6.7 0 6.7 0 6.7 6.74v29.8c0 6.75 0 6.75-6.7 6.75h-43.92c-6.7 0-6.7 0-6.7-6.76v-29.8c0-6.75 0-6.75 6.7-6.75z" fill="#7d7c7c"/><path d="M299.08 760H343c6.7 0 6.7 0 6.7 6.76v29.8c0 6.75 0 6.75-6.7 6.75h-43.92c-6.7 0-6.7 0-6.7-6.75v-29.8c0-6.75 0-6.75 6.7-6.75z" fill="#fff"/><path d="M345.68 773.8c0 5.7-4.62 10.34-10.3 10.34-5.7 0-10.32-4.63-10.32-10.34 0-5.7 4.62-10.34 10.3-10.34 5.7 0 10.32 4.63 10.32 10.34z" fill="#759c3e"/><path d="M342.57 773.8c0 1.5-1.2 2.7-2.7 2.7-1.48 0-2.7-1.2-2.7-2.7 0-1.5 1.22-2.7 2.7-2.7 1.5 0 2.7 1.2 2.7 2.7z" fill="#fff"/><path d="M331.88 778.2h-11.92l-1.08-1.88-4.03.37-1.56-1.6-1.42-.3-3.67 2.2-4.57-3.53 2.52-4.05h25.73v8.77z" fill="#759c3e"/><path d="M317 789.7c0 5.72-4.6 10.35-10.3 10.35-5.7 0-10.3-4.63-10.3-10.34 0-5.7 4.6-10.33 10.3-10.33 5.7 0 10.3 4.64 10.3 10.34z" fill="#7d7c7c"/><path d="M304.88 789.7c0 1.5-1.2 2.7-2.7 2.7-1.47 0-2.68-1.2-2.68-2.7 0-1.48 1.2-2.7 2.7-2.7 1.48 0 2.68 1.22 2.68 2.7z" fill="#fff"/><path d="M310.2 785.32h11.92l1.07 1.9 4.03-.4 1.55 1.6 1.4.3 3.7-2.2 4.56 3.52-2.5 4.06H310.2v-8.78z" fill="#7d7c7c"/><path d="M192.37 812a6 6 0 0 1 6-6h248a6 6 0 0 1 6 6v78a6 6 0 0 1-6 6h-248a6 6 0 0 1-6-6z" stroke="#000" stroke-opacity="0" fill="#fff" fill-opacity="0"/><g><use xlink:href="#x" transform="matrix(1,0,0,1,197.3731459797034,810.9999999999999) translate(37.09876543209876 30.27777777777778)"/><use xlink:href="#y" transform="matrix(1,0,0,1,197.3731459797034,810.9999999999999) translate(96.29629629629629 30.27777777777778)"/><use xlink:href="#z" transform="matrix(1,0,0,1,197.3731459797034,810.9999999999999) translate(108.64197530864197 30.27777777777778)"/><use xlink:href="#y" transform="matrix(1,0,0,1,197.3731459797034,810.9999999999999) translate(166.0493827160494 30.27777777777778)"/><use xlink:href="#A" transform="matrix(1,0,0,1,197.3731459797034,810.9999999999999) translate(178.39506172839506 30.27777777777778)"/><use xlink:href="#B" transform="matrix(1,0,0,1,197.3731459797034,810.9999999999999) translate(58.39506172839506 56.94444444444445)"/><use xlink:href="#C" transform="matrix(1,0,0,1,197.3731459797034,810.9999999999999) translate(117.5925925925926 56.94444444444445)"/></g><path d="M603.12 800H416.38" stroke="#3a414a" fill="none"/><path d="M617.88 800l-14.26 4.63v-9.26zM401.62 800l14.26-4.63v9.26z" stroke="#3a414a" fill="#3a414a"/><defs><path fill="#3a414a" d="M185-189c-5-48-123-54-124 2 14 75 158 14 163 119 3 78-121 87-175 55-17-10-28-26-33-46l33-7c5 56 141 63 141-1 0-78-155-14-162-118-5-82 145-84 179-34 5 7 8 16 11 25" id="V"/><path fill="#3a414a" d="M59-47c-2 24 18 29 38 22v24C64 9 27 4 27-40v-127H5v-23h24l9-43h21v43h35v23H59v120" id="W"/><path fill="#3a414a" d="M100-194c62-1 85 37 85 99 1 63-27 99-86 99S16-35 15-95c0-66 28-99 85-99zM99-20c44 1 53-31 53-75 0-43-8-75-51-75s-53 32-53 75 10 74 51 75" id="X"/><path fill="#3a414a" d="M114-163C36-179 61-72 57 0H25l-1-190h30c1 12-1 29 2 39 6-27 23-49 58-41v29" id="Y"/><path fill="#3a414a" d="M141-36C126-15 110 5 73 4 37 3 15-17 15-53c-1-64 63-63 125-63 3-35-9-54-41-54-24 1-41 7-42 31l-33-3c5-37 33-52 76-52 45 0 72 20 72 64v82c-1 20 7 32 28 27v20c-31 9-61-2-59-35zM48-53c0 20 12 33 32 33 41-3 63-29 60-74-43 2-92-5-92 41" id="Z"/><path fill="#3a414a" d="M177-190C167-65 218 103 67 71c-23-6-38-20-44-43l32-5c15 47 100 32 89-28v-30C133-14 115 1 83 1 29 1 15-40 15-95c0-56 16-97 71-98 29-1 48 16 59 35 1-10 0-23 2-32h30zM94-22c36 0 50-32 50-73 0-42-14-75-50-75-39 0-46 34-46 75s6 73 46 73" id="aa"/><path fill="#3a414a" d="M100-194c63 0 86 42 84 106H49c0 40 14 67 53 68 26 1 43-12 49-29l28 8c-11 28-37 45-77 45C44 4 14-33 15-96c1-61 26-98 85-98zm52 81c6-60-76-77-97-28-3 7-6 17-6 28h103" id="ab"/><g id="a"><use transform="matrix(0.06172839506172839,0,0,0.06172839506172839,0,0)" xlink:href="#V"/><use transform="matrix(0.06172839506172839,0,0,0.06172839506172839,14.814814814814813,0)" xlink:href="#W"/><use transform="matrix(0.06172839506172839,0,0,0.06172839506172839,20.98765432098765,0)" xlink:href="#X"/><use transform="matrix(0.06172839506172839,0,0,0.06172839506172839,33.33333333333333,0)" xlink:href="#Y"/><use transform="matrix(0.06172839506172839,0,0,0.06172839506172839,40.679012345679006,0)" xlink:href="#Z"/><use transform="matrix(0.06172839506172839,0,0,0.06172839506172839,53.02469135802468,0)" xlink:href="#aa"/><use transform="matrix(0.06172839506172839,0,0,0.06172839506172839,65.37037037037037,0)" xlink:href="#ab"/></g><path fill="#3a414a" d="M115-194c53 0 69 39 70 98 0 66-23 100-70 100C84 3 66-7 56-30L54 0H23l1-261h32v101c10-23 28-34 59-34zm-8 174c40 0 45-34 45-75 0-40-5-75-45-74-42 0-51 32-51 76 0 43 10 73 51 73" id="ac"/><path fill="#3a414a" d="M84 4C-5 8 30-112 23-190h32v120c0 31 7 50 39 49 72-2 45-101 50-169h31l1 190h-30c-1-10 1-25-2-33-11 22-28 36-60 37" id="ad"/><path fill="#3a414a" d="M96-169c-40 0-48 33-48 73s9 75 48 75c24 0 41-14 43-38l32 2c-6 37-31 61-74 61-59 0-76-41-82-99-10-93 101-131 147-64 4 7 5 14 7 22l-32 3c-4-21-16-35-41-35" id="ae"/><path fill="#3a414a" d="M143 0L79-87 56-68V0H24v-261h32v163l83-92h37l-77 82L181 0h-38" id="af"/><g id="b"><use transform="matrix(0.06172839506172839,0,0,0.06172839506172839,0,0)" xlink:href="#ac"/><use transform="matrix(0.06172839506172839,0,0,0.06172839506172839,12.345679012345679,0)" xlink:href="#ad"/><use transform="matrix(0.06172839506172839,0,0,0.06172839506172839,24.691358024691358,0)" xlink:href="#ae"/><use transform="matrix(0.06172839506172839,0,0,0.06172839506172839,35.80246913580247,0)" xlink:href="#af"/><use transform="matrix(0.06172839506172839,0,0,0.06172839506172839,46.91358024691358,0)" xlink:href="#ab"/><use transform="matrix(0.06172839506172839,0,0,0.06172839506172839,59.25925925925926,0)" xlink:href="#W"/></g><path fill="#3a414a" d="M206 0h-36l-40-164L89 0H53L-1-190h32L70-26l43-164h34l41 164 42-164h31" id="ag"/><path fill="#3a414a" d="M24-231v-30h32v30H24zM24 0v-190h32V0H24" id="ah"/><path fill="#3a414a" d="M106-169C34-169 62-67 57 0H25v-261h32l-1 103c12-21 28-36 61-36 89 0 53 116 60 194h-32v-121c2-32-8-49-39-48" id="ai"/><g id="c"><use transform="matrix(0.06172839506172839,0,0,0.06172839506172839,0,0)" xlink:href="#ag"/><use transform="matrix(0.06172839506172839,0,0,0.06172839506172839,15.987654320987653,0)" xlink:href="#ah"/><use transform="matrix(0.06172839506172839,0,0,0.06172839506172839,20.864197530864196,0)" xlink:href="#W"/><use transform="matrix(0.06172839506172839,0,0,0.06172839506172839,27.037037037037035,0)" xlink:href="#ai"/></g><path fill="#3a414a" d="M210-169c-67 3-38 105-44 169h-31v-121c0-29-5-50-35-48C34-165 62-65 56 0H25l-1-190h30c1 10-1 24 2 32 10-44 99-50 107 0 11-21 27-35 58-36 85-2 47 119 55 194h-31v-121c0-29-5-49-35-48" id="aj"/><path fill="#3a414a" d="M85-194c31 0 48 13 60 33l-1-100h32l1 261h-30c-2-10 0-23-3-31C134-8 116 4 85 4 32 4 16-35 15-94c0-66 23-100 70-100zm9 24c-40 0-46 34-46 75 0 40 6 74 45 74 42 0 51-32 51-76 0-42-9-74-50-73" id="ak"/><path fill="#3a414a" d="M24 0v-261h32V0H24" id="al"/><g id="d"><use transform="matrix(0.06172839506172839,0,0,0.06172839506172839,0,0)" xlink:href="#aj"/><use transform="matrix(0.06172839506172839,0,0,0.06172839506172839,18.456790123456788,0)" xlink:href="#X"/><use transform="matrix(0.06172839506172839,0,0,0.06172839506172839,30.80246913580247,0)" xlink:href="#ak"/><use transform="matrix(0.06172839506172839,0,0,0.06172839506172839,43.148148148148145,0)" xlink:href="#ab"/><use transform="matrix(0.06172839506172839,0,0,0.06172839506172839,55.49382716049382,0)" xlink:href="#al"/></g><linearGradient gradientUnits="userSpaceOnUse" id="e" x1="737.63" y1="254.33" x2="857.63" y2="134.33"><stop offset="0%" stop-color="#b0084d"/><stop offset="100%" stop-color="#ff4f8b"/></linearGradient><path fill="#3a414a" d="M205 0l-28-72H64L36 0H1l101-248h38L239 0h-34zm-38-99l-47-123c-12 45-31 82-46 123h93" id="am"/><path fill="#3a414a" d="M30-248c87 1 191-15 191 75 0 78-77 80-158 76V0H30v-248zm33 125c57 0 124 11 124-50 0-59-68-47-124-48v98" id="an"/><path fill="#3a414a" d="M33 0v-248h34V0H33" id="ao"/><g id="f"><use transform="matrix(0.06172839506172839,0,0,0.06172839506172839,0,0)" xlink:href="#am"/><use transform="matrix(0.06172839506172839,0,0,0.06172839506172839,14.814814814814813,0)" xlink:href="#an"/><use transform="matrix(0.06172839506172839,0,0,0.06172839506172839,29.629629629629626,0)" xlink:href="#ao"/></g><path fill="#3a414a" d="M143 4C61 4 22-44 18-125c-5-107 100-154 193-111 17 8 29 25 37 43l-32 9c-13-25-37-40-76-40-61 0-88 39-88 99 0 61 29 100 91 101 35 0 62-11 79-27v-45h-74v-28h105v86C228-13 192 4 143 4" id="ap"/><path fill="#3a414a" d="M179-190L93 31C79 59 56 82 12 73V49c39 6 53-20 64-50L1-190h34L92-34l54-156h33" id="aq"/><g id="g"><use transform="matrix(0.06172839506172839,0,0,0.06172839506172839,0,0)" xlink:href="#ap"/><use transform="matrix(0.06172839506172839,0,0,0.06172839506172839,17.28395061728395,0)" xlink:href="#Z"/><use transform="matrix(0.06172839506172839,0,0,0.06172839506172839,29.629629629629626,0)" xlink:href="#W"/><use transform="matrix(0.06172839506172839,0,0,0.06172839506172839,35.80246913580247,0)" xlink:href="#ab"/><use transform="matrix(0.06172839506172839,0,0,0.06172839506172839,48.148148148148145,0)" xlink:href="#ag"/><use transform="matrix(0.06172839506172839,0,0,0.06172839506172839,64.1358024691358,0)" xlink:href="#Z"/><use transform="matrix(0.06172839506172839,0,0,0.06172839506172839,76.48148148148148,0)" xlink:href="#aq"/></g><path fill="#3a414a" d="M115-194c55 1 70 41 70 98S169 2 115 4C84 4 66-9 55-30l1 105H24l-1-265h31l2 30c10-21 28-34 59-34zm-8 174c40 0 45-34 45-75s-6-73-45-74c-42 0-51 32-51 76 0 43 10 73 51 73" id="ar"/><g id="h"><use transform="matrix(0.06172839506172839,0,0,0.06172839506172839,0,0)" xlink:href="#V"/><use transform="matrix(0.06172839506172839,0,0,0.06172839506172839,14.814814814814813,0)" xlink:href="#W"/><use transform="matrix(0.06172839506172839,0,0,0.06172839506172839,20.98765432098765,0)" xlink:href="#ab"/><use transform="matrix(0.06172839506172839,0,0,0.06172839506172839,33.33333333333333,0)" xlink:href="#ar"/></g><path fill="#3a414a" d="M63-220v92h138v28H63V0H30v-248h175v28H63" id="as"/><path fill="#3a414a" d="M117-194c89-4 53 116 60 194h-32v-121c0-31-8-49-39-48C34-167 62-67 57 0H25l-1-190h30c1 10-1 24 2 32 11-22 29-35 61-36" id="at"/><path fill="#3a414a" d="M135-143c-3-34-86-38-87 0 15 53 115 12 119 90S17 21 10-45l28-5c4 36 97 45 98 0-10-56-113-15-118-90-4-57 82-63 122-42 12 7 21 19 24 35" id="au"/><g id="i"><use transform="matrix(0.06172839506172839,0,0,0.06172839506172839,0,0)" xlink:href="#as"/><use transform="matrix(0.06172839506172839,0,0,0.06172839506172839,13.518518518518517,0)" xlink:href="#ad"/><use transform="matrix(0.06172839506172839,0,0,0.06172839506172839,25.864197530864196,0)" xlink:href="#at"/><use transform="matrix(0.06172839506172839,0,0,0.06172839506172839,38.20987654320987,0)" xlink:href="#ae"/><use transform="matrix(0.06172839506172839,0,0,0.06172839506172839,49.32098765432099,0)" xlink:href="#W"/><use transform="matrix(0.06172839506172839,0,0,0.06172839506172839,55.49382716049383,0)" xlink:href="#ah"/><use transform="matrix(0.06172839506172839,0,0,0.06172839506172839,60.370370370370374,0)" xlink:href="#X"/><use transform="matrix(0.06172839506172839,0,0,0.06172839506172839,72.71604938271605,0)" xlink:href="#at"/><use transform="matrix(0.06172839506172839,0,0,0.06172839506172839,85.06172839506173,0)" xlink:href="#au"/></g><path fill="#3a414a" d="M231 0h-52l-39-155L100 0H48L-1-190h46L77-45c9-52 24-97 36-145h53l37 145 32-145h46" id="av"/><path fill="#3a414a" d="M185-48c-13 30-37 53-82 52C43 2 14-33 14-96s30-98 90-98c62 0 83 45 84 108H66c0 31 8 55 39 56 18 0 30-7 34-22zm-45-69c5-46-57-63-70-21-2 6-4 13-4 21h74" id="aw"/><path fill="#3a414a" d="M135-194c52 0 70 43 70 98 0 56-19 99-73 100-30 1-46-15-58-35L72 0H24l1-261h50v104c11-23 29-37 60-37zM114-30c31 0 40-27 40-66 0-37-7-63-39-63s-41 28-41 65c0 36 8 64 40 64" id="ax"/><g id="j"><use transform="matrix(0.06172839506172839,0,0,0.06172839506172839,0,0)" xlink:href="#av"/><use transform="matrix(0.06172839506172839,0,0,0.06172839506172839,17.28395061728395,0)" xlink:href="#aw"/><use transform="matrix(0.06172839506172839,0,0,0.06172839506172839,29.629629629629626,0)" xlink:href="#ax"/></g><path fill="#3a414a" d="M199 0l-22-63H83L61 0H9l90-248h61L250 0h-51zm-33-102l-36-108c-10 38-24 72-36 108h72" id="ay"/><path fill="#3a414a" d="M135-194c53 0 70 44 70 98 0 56-19 98-73 100-31 1-45-17-59-34 3 33 2 69 2 105H25l-1-265h48c2 10 0 23 3 31 11-24 29-35 60-35zM114-30c33 0 39-31 40-66 0-38-9-64-40-64-56 0-55 130 0 130" id="az"/><g id="k"><use transform="matrix(0.06172839506172839,0,0,0.06172839506172839,0,0)" xlink:href="#ay"/><use transform="matrix(0.06172839506172839,0,0,0.06172839506172839,15.987654320987653,0)" xlink:href="#az"/><use transform="matrix(0.06172839506172839,0,0,0.06172839506172839,29.50617283950617,0)" xlink:href="#az"/></g><path fill="#3a414a" d="M108 0H70L1-190h34L89-25l56-165h34" id="aA"/><g id="m"><use transform="matrix(0.06172839506172839,0,0,0.06172839506172839,0,0)" xlink:href="#V"/><use transform="matrix(0.06172839506172839,0,0,0.06172839506172839,14.814814814814813,0)" xlink:href="#ab"/><use transform="matrix(0.06172839506172839,0,0,0.06172839506172839,27.160493827160494,0)" xlink:href="#Y"/><use transform="matrix(0.06172839506172839,0,0,0.06172839506172839,34.50617283950617,0)" xlink:href="#aA"/><use transform="matrix(0.06172839506172839,0,0,0.06172839506172839,45.61728395061728,0)" xlink:href="#ab"/><use transform="matrix(0.06172839506172839,0,0,0.06172839506172839,57.962962962962955,0)" xlink:href="#Y"/><use transform="matrix(0.06172839506172839,0,0,0.06172839506172839,65.30864197530863,0)" xlink:href="#al"/><use transform="matrix(0.06172839506172839,0,0,0.06172839506172839,70.18518518518518,0)" xlink:href="#ab"/><use transform="matrix(0.06172839506172839,0,0,0.06172839506172839,82.53086419753086,0)" xlink:href="#au"/><use transform="matrix(0.06172839506172839,0,0,0.06172839506172839,93.64197530864197,0)" xlink:href="#au"/></g><g id="n"><use transform="matrix(0.06172839506172839,0,0,0.06172839506172839,0,0)" xlink:href="#am"/><use transform="matrix(0.06172839506172839,0,0,0.06172839506172839,14.814814814814813,0)" xlink:href="#an"/><use transform="matrix(0.06172839506172839,0,0,0.06172839506172839,29.629629629629626,0)" xlink:href="#ao"/></g><path fill="#3a414a" d="M30 0v-248h33v221h125V0H30" id="aB"/><g id="o"><use transform="matrix(0.06172839506172839,0,0,0.06172839506172839,0,0)" xlink:href="#aB"/><use transform="matrix(0.06172839506172839,0,0,0.06172839506172839,12.345679012345679,0)" xlink:href="#Z"/><use transform="matrix(0.06172839506172839,0,0,0.06172839506172839,24.691358024691358,0)" xlink:href="#aj"/><use transform="matrix(0.06172839506172839,0,0,0.06172839506172839,43.148148148148145,0)" xlink:href="#ac"/><use transform="matrix(0.06172839506172839,0,0,0.06172839506172839,55.49382716049382,0)" xlink:href="#ak"/><use transform="matrix(0.06172839506172839,0,0,0.06172839506172839,67.8395061728395,0)" xlink:href="#Z"/></g><g id="p"><use transform="matrix(0.06172839506172839,0,0,0.06172839506172839,0,0)" xlink:href="#as"/><use transform="matrix(0.06172839506172839,0,0,0.06172839506172839,13.518518518518517,0)" xlink:href="#ad"/><use transform="matrix(0.06172839506172839,0,0,0.06172839506172839,25.864197530864196,0)" xlink:href="#at"/><use transform="matrix(0.06172839506172839,0,0,0.06172839506172839,38.20987654320987,0)" xlink:href="#ae"/><use transform="matrix(0.06172839506172839,0,0,0.06172839506172839,49.32098765432099,0)" xlink:href="#W"/><use transform="matrix(0.06172839506172839,0,0,0.06172839506172839,55.49382716049383,0)" xlink:href="#ah"/><use transform="matrix(0.06172839506172839,0,0,0.06172839506172839,60.370370370370374,0)" xlink:href="#X"/><use transform="matrix(0.06172839506172839,0,0,0.06172839506172839,72.71604938271605,0)" xlink:href="#at"/></g><linearGradient gradientUnits="userSpaceOnUse" id="q" x1="1380" y1="280" x2="1460" y2="200"><stop offset="0%" stop-color="#c8511b"/><stop offset="100%" stop-color="#f90"/></linearGradient><path fill="#3a414a" d="M30 0v-248h187v28H63v79h144v27H63v87h162V0H30" id="aC"/><path fill="#3a414a" d="M212-179c-10-28-35-45-73-45-59 0-87 40-87 99 0 60 29 101 89 101 43 0 62-24 78-52l27 14C228-24 195 4 139 4 59 4 22-46 18-125c-6-104 99-153 187-111 19 9 31 26 39 46" id="aD"/><path fill="#3a414a" d="M233-177c-1 41-23 64-60 70L243 0h-38l-65-103H63V0H30v-248c88 3 205-21 203 71zM63-129c60-2 137 13 137-47 0-61-80-42-137-45v92" id="aE"/><g id="r"><use transform="matrix(0.06172839506172839,0,0,0.06172839506172839,0,0)" xlink:href="#aC"/><use transform="matrix(0.06172839506172839,0,0,0.06172839506172839,14.814814814814813,0)" xlink:href="#aD"/><use transform="matrix(0.06172839506172839,0,0,0.06172839506172839,30.80246913580247,0)" xlink:href="#aE"/></g><path fill="#3a414a" d="M30-248c118-7 216 8 213 122C240-48 200 0 122 0H30v-248zM63-27c89 8 146-16 146-99s-60-101-146-95v194" id="aF"/><g id="s"><use transform="matrix(0.06172839506172839,0,0,0.06172839506172839,0,0)" xlink:href="#aF"/><use transform="matrix(0.06172839506172839,0,0,0.06172839506172839,15.987654320987653,0)" xlink:href="#X"/><use transform="matrix(0.06172839506172839,0,0,0.06172839506172839,28.333333333333332,0)" xlink:href="#ae"/><use transform="matrix(0.06172839506172839,0,0,0.06172839506172839,39.44444444444444,0)" xlink:href="#af"/><use transform="matrix(0.06172839506172839,0,0,0.06172839506172839,50.55555555555556,0)" xlink:href="#ab"/><use transform="matrix(0.06172839506172839,0,0,0.06172839506172839,62.901234567901234,0)" xlink:href="#Y"/></g><path fill="#3a414a" d="M140-251c80 0 125 45 125 126 0 70-33 111-92 124 6 28 34 38 68 31l-1 36C177 83 129 55 120 2 51-6 15-50 15-125c0-81 44-126 125-126zm-1 214c52 0 73-35 73-88 0-50-21-86-72-86-52 0-73 35-73 86s22 88 72 88" id="aG"/><path fill="#3a414a" d="M85 4C-2 5 27-109 22-190h50c7 57-23 150 33 157 60-5 35-97 40-157h50l1 190h-47c-2-12 1-28-3-38-12 25-28 42-61 42" id="aH"/><path fill="#3a414a" d="M115-3C79 11 28 4 28-45v-112H4v-33h27l15-45h31v45h36v33H77v99c-1 23 16 31 38 25v30" id="aI"/><path fill="#3a414a" d="M12 0v-35l95-120H19v-35h142v35L67-36h103V0H12" id="aJ"/><path fill="#3a414a" d="M133-34C117-15 103 5 69 4 32 3 11-16 11-54c-1-60 55-63 116-61 1-26-3-47-28-47-18 1-26 9-28 27l-52-2c7-38 36-58 82-57s74 22 75 68l1 82c-1 14 12 18 25 15v27c-30 8-71 5-69-32zm-48 3c29 0 43-24 42-57-32 0-66-3-65 30 0 17 8 27 23 27" id="aK"/><path fill="#3a414a" d="M25 0v-261h50V0H25" id="aL"/><g id="t"><use transform="matrix(0.06172839506172839,0,0,0.06172839506172839,0,0)" xlink:href="#aG"/><use transform="matrix(0.06172839506172839,0,0,0.06172839506172839,17.28395061728395,0)" xlink:href="#aH"/><use transform="matrix(0.06172839506172839,0,0,0.06172839506172839,30.80246913580247,0)" xlink:href="#aw"/><use transform="matrix(0.06172839506172839,0,0,0.06172839506172839,43.148148148148145,0)" xlink:href="#aI"/><use transform="matrix(0.06172839506172839,0,0,0.06172839506172839,50.49382716049382,0)" xlink:href="#aJ"/><use transform="matrix(0.06172839506172839,0,0,0.06172839506172839,61.60493827160494,0)" xlink:href="#aK"/><use transform="matrix(0.06172839506172839,0,0,0.06172839506172839,73.95061728395062,0)" xlink:href="#aL"/></g><path fill="#3a414a" d="M230 0l2-204L168 0h-37L68-204 70 0H24v-248h70l56 185 57-185h69V0h-46" id="aM"/><path fill="#3a414a" d="M110-194c64 0 96 36 96 99 0 64-35 99-97 99-61 0-95-36-95-99 0-62 34-99 96-99zm-1 164c35 0 45-28 45-65 0-40-10-65-43-65-34 0-45 26-45 65 0 36 10 65 43 65" id="aN"/><path fill="#3a414a" d="M88-194c31-1 46 15 58 34l-1-101h50l1 261h-48c-2-10 0-23-3-31C134-8 116 4 84 4 32 4 16-41 15-95c0-56 19-97 73-99zm17 164c33 0 40-30 41-66 1-37-9-64-41-64s-38 30-39 65c0 43 13 65 39 65" id="aO"/><path fill="#3a414a" d="M137-138c1-29-70-34-71-4 15 46 118 7 119 86 1 83-164 76-172 9l43-7c4 19 20 25 44 25 33 8 57-30 24-41C81-84 22-81 20-136c-2-80 154-74 161-7" id="aP"/><g id="u"><use transform="matrix(0.06172839506172839,0,0,0.06172839506172839,0,0)" xlink:href="#aM"/><use transform="matrix(0.06172839506172839,0,0,0.06172839506172839,18.456790123456788,0)" xlink:href="#aN"/><use transform="matrix(0.06172839506172839,0,0,0.06172839506172839,31.9753086419753,0)" xlink:href="#aO"/><use transform="matrix(0.06172839506172839,0,0,0.06172839506172839,45.49382716049382,0)" xlink:href="#aw"/><use transform="matrix(0.06172839506172839,0,0,0.06172839506172839,57.8395061728395,0)" xlink:href="#aL"/><use transform="matrix(0.06172839506172839,0,0,0.06172839506172839,64.01234567901234,0)" xlink:href="#aP"/></g><path fill="#3a414a" d="M67-125c0 53 21 87 73 88 37 1 54-22 65-47l45 17C233-25 199 4 140 4 58 4 20-42 15-125 8-235 124-281 211-232c18 10 29 29 36 50l-46 12c-8-25-30-41-62-41-52 0-71 34-72 86" id="aQ"/><g id="v"><use transform="matrix(0.06172839506172839,0,0,0.06172839506172839,0,0)" xlink:href="#aQ"/><use transform="matrix(0.06172839506172839,0,0,0.06172839506172839,15.987654320987653,0)" xlink:href="#aK"/><use transform="matrix(0.06172839506172839,0,0,0.06172839506172839,28.333333333333332,0)" xlink:href="#aL"/><use transform="matrix(0.06172839506172839,0,0,0.06172839506172839,34.50617283950617,0)" xlink:href="#aL"/></g><path fill="#3a414a" d="M25-224v-37h50v37H25zM25 0v-190h50V0H25" id="aR"/><g id="w"><use transform="matrix(0.06172839506172839,0,0,0.06172839506172839,0,0)" xlink:href="#ay"/><use transform="matrix(0.06172839506172839,0,0,0.06172839506172839,15.987654320987653,0)" xlink:href="#az"/><use transform="matrix(0.06172839506172839,0,0,0.06172839506172839,29.50617283950617,0)" xlink:href="#aR"/></g><g id="x"><use transform="matrix(0.06172839506172839,0,0,0.06172839506172839,0,0)" xlink:href="#aE"/><use transform="matrix(0.06172839506172839,0,0,0.06172839506172839,15.987654320987653,0)" xlink:href="#ab"/><use transform="matrix(0.06172839506172839,0,0,0.06172839506172839,28.333333333333332,0)" xlink:href="#Z"/><use transform="matrix(0.06172839506172839,0,0,0.06172839506172839,40.67901234567901,0)" xlink:href="#ak"/></g><path fill="#3a414a" d="M0 4l72-265h28L28 4H0" id="aS"/><use transform="matrix(0.06172839506172839,0,0,0.06172839506172839,0,0)" xlink:href="#aS" id="y"/><path fill="#3a414a" d="M266 0h-40l-56-210L115 0H75L2-248h35L96-30l15-64 43-154h32l59 218 59-218h35" id="aT"/><g id="z"><use transform="matrix(0.06172839506172839,0,0,0.06172839506172839,0,0)" xlink:href="#aT"/><use transform="matrix(0.06172839506172839,0,0,0.06172839506172839,20.493827160493826,0)" xlink:href="#Y"/><use transform="matrix(0.06172839506172839,0,0,0.06172839506172839,27.839506172839506,0)" xlink:href="#ah"/><use transform="matrix(0.06172839506172839,0,0,0.06172839506172839,32.71604938271605,0)" xlink:href="#W"/><use transform="matrix(0.06172839506172839,0,0,0.06172839506172839,38.88888888888889,0)" xlink:href="#ab"/></g><g id="A"><use transform="matrix(0.06172839506172839,0,0,0.06172839506172839,0,0)" xlink:href="#aB"/><use transform="matrix(0.06172839506172839,0,0,0.06172839506172839,12.345679012345679,0)" xlink:href="#ah"/><use transform="matrix(0.06172839506172839,0,0,0.06172839506172839,17.22222222222222,0)" xlink:href="#au"/><use transform="matrix(0.06172839506172839,0,0,0.06172839506172839,28.333333333333332,0)" xlink:href="#W"/></g><g id="B"><use transform="matrix(0.06172839506172839,0,0,0.06172839506172839,0,0)" xlink:href="#ae"/><use transform="matrix(0.06172839506172839,0,0,0.06172839506172839,11.11111111111111,0)" xlink:href="#al"/><use transform="matrix(0.06172839506172839,0,0,0.06172839506172839,15.987654320987653,0)" xlink:href="#X"/><use transform="matrix(0.06172839506172839,0,0,0.06172839506172839,28.333333333333332,0)" xlink:href="#ad"/><use transform="matrix(0.06172839506172839,0,0,0.06172839506172839,40.67901234567901,0)" xlink:href="#ak"/></g><g id="C"><use transform="matrix(0.06172839506172839,0,0,0.06172839506172839,0,0)" xlink:href="#au"/><use transform="matrix(0.06172839506172839,0,0,0.06172839506172839,11.11111111111111,0)" xlink:href="#W"/><use transform="matrix(0.06172839506172839,0,0,0.06172839506172839,17.28395061728395,0)" xlink:href="#X"/><use transform="matrix(0.06172839506172839,0,0,0.06172839506172839,29.629629629629626,0)" xlink:href="#Y"/><use transform="matrix(0.06172839506172839,0,0,0.06172839506172839,36.9753086419753,0)" xlink:href="#Z"/><use transform="matrix(0.06172839506172839,0,0,0.06172839506172839,49.32098765432098,0)" xlink:href="#aa"/><use transform="matrix(0.06172839506172839,0,0,0.06172839506172839,61.66666666666666,0)" xlink:href="#ab"/></g><g id="D"><use transform="matrix(0.06172839506172839,0,0,0.06172839506172839,0,0)" xlink:href="#V"/><use transform="matrix(0.06172839506172839,0,0,0.06172839506172839,14.814814814814813,0)" xlink:href="#ab"/><use transform="matrix(0.06172839506172839,0,0,0.06172839506172839,27.160493827160494,0)" xlink:href="#Y"/><use transform="matrix(0.06172839506172839,0,0,0.06172839506172839,34.50617283950617,0)" xlink:href="#aA"/><use transform="matrix(0.06172839506172839,0,0,0.06172839506172839,45.61728395061728,0)" xlink:href="#ab"/><use transform="matrix(0.06172839506172839,0,0,0.06172839506172839,57.962962962962955,0)" xlink:href="#Y"/><use transform="matrix(0.06172839506172839,0,0,0.06172839506172839,65.30864197530863,0)" xlink:href="#al"/><use transform="matrix(0.06172839506172839,0,0,0.06172839506172839,70.18518518518518,0)" xlink:href="#ab"/><use transform="matrix(0.06172839506172839,0,0,0.06172839506172839,82.53086419753086,0)" xlink:href="#au"/><use transform="matrix(0.06172839506172839,0,0,0.06172839506172839,93.64197530864197,0)" xlink:href="#au"/></g><g id="E"><use transform="matrix(0.06172839506172839,0,0,0.06172839506172839,0,0)" xlink:href="#am"/><use transform="matrix(0.06172839506172839,0,0,0.06172839506172839,14.814814814814813,0)" xlink:href="#an"/><use transform="matrix(0.06172839506172839,0,0,0.06172839506172839,29.629629629629626,0)" xlink:href="#ao"/></g><g id="F"><use transform="matrix(0.06172839506172839,0,0,0.06172839506172839,0,0)" xlink:href="#aB"/><use transform="matrix(0.06172839506172839,0,0,0.06172839506172839,12.345679012345679,0)" xlink:href="#Z"/><use transform="matrix(0.06172839506172839,0,0,0.06172839506172839,24.691358024691358,0)" xlink:href="#aj"/><use transform="matrix(0.06172839506172839,0,0,0.06172839506172839,43.148148148148145,0)" xlink:href="#ac"/><use transform="matrix(0.06172839506172839,0,0,0.06172839506172839,55.49382716049382,0)" xlink:href="#ak"/><use transform="matrix(0.06172839506172839,0,0,0.06172839506172839,67.8395061728395,0)" xlink:href="#Z"/></g><g id="G"><use transform="matrix(0.06172839506172839,0,0,0.06172839506172839,0,0)" xlink:href="#as"/><use transform="matrix(0.06172839506172839,0,0,0.06172839506172839,13.518518518518517,0)" xlink:href="#ad"/><use transform="matrix(0.06172839506172839,0,0,0.06172839506172839,25.864197530864196,0)" xlink:href="#at"/><use transform="matrix(0.06172839506172839,0,0,0.06172839506172839,38.20987654320987,0)" xlink:href="#ae"/><use transform="matrix(0.06172839506172839,0,0,0.06172839506172839,49.32098765432099,0)" xlink:href="#W"/><use transform="matrix(0.06172839506172839,0,0,0.06172839506172839,55.49382716049383,0)" xlink:href="#ah"/><use transform="matrix(0.06172839506172839,0,0,0.06172839506172839,60.370370370370374,0)" xlink:href="#X"/><use transform="matrix(0.06172839506172839,0,0,0.06172839506172839,72.71604938271605,0)" xlink:href="#at"/></g><linearGradient gradientUnits="userSpaceOnUse" id="H" x1="693.55" y1="-35.67" x2="773.55" y2="-115.67"><stop offset="0%" stop-color="#c8511b"/><stop offset="100%" stop-color="#f90"/></linearGradient><g id="I"><use transform="matrix(0.06172839506172839,0,0,0.06172839506172839,0,0)" xlink:href="#aC"/><use transform="matrix(0.06172839506172839,0,0,0.06172839506172839,14.814814814814813,0)" xlink:href="#aD"/><use transform="matrix(0.06172839506172839,0,0,0.06172839506172839,30.80246913580247,0)" xlink:href="#aE"/></g><g id="J"><use transform="matrix(0.06172839506172839,0,0,0.06172839506172839,0,0)" xlink:href="#aF"/><use transform="matrix(0.06172839506172839,0,0,0.06172839506172839,15.987654320987653,0)" xlink:href="#X"/><use transform="matrix(0.06172839506172839,0,0,0.06172839506172839,28.333333333333332,0)" xlink:href="#ae"/><use transform="matrix(0.06172839506172839,0,0,0.06172839506172839,39.44444444444444,0)" xlink:href="#af"/><use transform="matrix(0.06172839506172839,0,0,0.06172839506172839,50.55555555555556,0)" xlink:href="#ab"/><use transform="matrix(0.06172839506172839,0,0,0.06172839506172839,62.901234567901234,0)" xlink:href="#Y"/></g><path fill="#3a414a" d="M76-208v77h127v40H76V0H24v-248h183v40H76" id="aU"/><path fill="#3a414a" d="M24-248c93 1 206-16 204 79-1 75-69 88-152 82V0H24v-248zm52 121c47 0 100 7 100-41 0-47-54-39-100-39v80" id="aV"/><path fill="#3a414a" d="M24 0v-248h52V0H24" id="aW"/><g id="K"><use transform="matrix(0.06172839506172839,0,0,0.06172839506172839,0,0)" xlink:href="#aU"/><use transform="matrix(0.06172839506172839,0,0,0.06172839506172839,13.518518518518517,0)" xlink:href="#aK"/><use transform="matrix(0.06172839506172839,0,0,0.06172839506172839,25.864197530864196,0)" xlink:href="#aP"/><use transform="matrix(0.06172839506172839,0,0,0.06172839506172839,38.20987654320987,0)" xlink:href="#aI"/><use transform="matrix(0.06172839506172839,0,0,0.06172839506172839,45.55555555555555,0)" xlink:href="#ay"/><use transform="matrix(0.06172839506172839,0,0,0.06172839506172839,61.5432098765432,0)" xlink:href="#aV"/><use transform="matrix(0.06172839506172839,0,0,0.06172839506172839,76.35802469135801,0)" xlink:href="#aW"/></g><g id="L"><use transform="matrix(0.06172839506172839,0,0,0.06172839506172839,0,0)" xlink:href="#V"/><use transform="matrix(0.06172839506172839,0,0,0.06172839506172839,14.814814814814813,0)" xlink:href="#W"/><use transform="matrix(0.06172839506172839,0,0,0.06172839506172839,20.98765432098765,0)" xlink:href="#X"/><use transform="matrix(0.06172839506172839,0,0,0.06172839506172839,33.33333333333333,0)" xlink:href="#Y"/><use transform="matrix(0.06172839506172839,0,0,0.06172839506172839,40.679012345679006,0)" xlink:href="#Z"/><use transform="matrix(0.06172839506172839,0,0,0.06172839506172839,53.02469135802468,0)" xlink:href="#aa"/><use transform="matrix(0.06172839506172839,0,0,0.06172839506172839,65.37037037037037,0)" xlink:href="#ab"/></g><g id="M"><use transform="matrix(0.06172839506172839,0,0,0.06172839506172839,0,0)" xlink:href="#W"/><use transform="matrix(0.06172839506172839,0,0,0.06172839506172839,6.172839506172839,0)" xlink:href="#ab"/><use transform="matrix(0.06172839506172839,0,0,0.06172839506172839,18.51851851851852,0)" xlink:href="#aj"/><use transform="matrix(0.06172839506172839,0,0,0.06172839506172839,36.9753086419753,0)" xlink:href="#ar"/><use transform="matrix(0.06172839506172839,0,0,0.06172839506172839,49.32098765432098,0)" xlink:href="#X"/><use transform="matrix(0.06172839506172839,0,0,0.06172839506172839,61.66666666666666,0)" xlink:href="#Y"/><use transform="matrix(0.06172839506172839,0,0,0.06172839506172839,69.01234567901234,0)" xlink:href="#Z"/><use transform="matrix(0.06172839506172839,0,0,0.06172839506172839,81.35802469135803,0)" xlink:href="#Y"/><use transform="matrix(0.06172839506172839,0,0,0.06172839506172839,88.70370370370371,0)" xlink:href="#aq"/></g><g id="N"><use transform="matrix(0.06172839506172839,0,0,0.06172839506172839,0,0)" xlink:href="#ac"/><use transform="matrix(0.06172839506172839,0,0,0.06172839506172839,12.345679012345679,0)" xlink:href="#ad"/><use transform="matrix(0.06172839506172839,0,0,0.06172839506172839,24.691358024691358,0)" xlink:href="#ae"/><use transform="matrix(0.06172839506172839,0,0,0.06172839506172839,35.80246913580247,0)" xlink:href="#af"/><use transform="matrix(0.06172839506172839,0,0,0.06172839506172839,46.91358024691358,0)" xlink:href="#ab"/><use transform="matrix(0.06172839506172839,0,0,0.06172839506172839,59.25925925925926,0)" xlink:href="#W"/></g><g id="O"><use transform="matrix(0.06172839506172839,0,0,0.06172839506172839,0,0)" xlink:href="#V"/><use transform="matrix(0.06172839506172839,0,0,0.06172839506172839,14.814814814814813,0)" xlink:href="#W"/><use transform="matrix(0.06172839506172839,0,0,0.06172839506172839,20.98765432098765,0)" xlink:href="#ab"/><use transform="matrix(0.06172839506172839,0,0,0.06172839506172839,33.33333333333333,0)" xlink:href="#ar"/></g><g id="P"><use transform="matrix(0.06172839506172839,0,0,0.06172839506172839,0,0)" xlink:href="#as"/><use transform="matrix(0.06172839506172839,0,0,0.06172839506172839,13.518518518518517,0)" xlink:href="#ad"/><use transform="matrix(0.06172839506172839,0,0,0.06172839506172839,25.864197530864196,0)" xlink:href="#at"/><use transform="matrix(0.06172839506172839,0,0,0.06172839506172839,38.20987654320987,0)" xlink:href="#ae"/><use transform="matrix(0.06172839506172839,0,0,0.06172839506172839,49.32098765432099,0)" xlink:href="#W"/><use transform="matrix(0.06172839506172839,0,0,0.06172839506172839,55.49382716049383,0)" xlink:href="#ah"/><use transform="matrix(0.06172839506172839,0,0,0.06172839506172839,60.370370370370374,0)" xlink:href="#X"/><use transform="matrix(0.06172839506172839,0,0,0.06172839506172839,72.71604938271605,0)" xlink:href="#at"/><use transform="matrix(0.06172839506172839,0,0,0.06172839506172839,85.06172839506173,0)" xlink:href="#au"/></g><g id="S"><use transform="matrix(0.06172839506172839,0,0,0.06172839506172839,0,0)" xlink:href="#V"/><use transform="matrix(0.06172839506172839,0,0,0.06172839506172839,14.814814814814813,0)" xlink:href="#ab"/><use transform="matrix(0.06172839506172839,0,0,0.06172839506172839,27.160493827160494,0)" xlink:href="#Y"/><use transform="matrix(0.06172839506172839,0,0,0.06172839506172839,34.50617283950617,0)" xlink:href="#aA"/><use transform="matrix(0.06172839506172839,0,0,0.06172839506172839,45.61728395061728,0)" xlink:href="#ab"/><use transform="matrix(0.06172839506172839,0,0,0.06172839506172839,57.962962962962955,0)" xlink:href="#Y"/><use transform="matrix(0.06172839506172839,0,0,0.06172839506172839,65.30864197530863,0)" xlink:href="#al"/><use transform="matrix(0.06172839506172839,0,0,0.06172839506172839,70.18518518518518,0)" xlink:href="#ab"/><use transform="matrix(0.06172839506172839,0,0,0.06172839506172839,82.53086419753086,0)" xlink:href="#au"/><use transform="matrix(0.06172839506172839,0,0,0.06172839506172839,93.64197530864197,0)" xlink:href="#au"/></g><linearGradient gradientUnits="userSpaceOnUse" id="T" x1="133.56" y1="286" x2="213.56" y2="206"><stop offset="0%" stop-color="#c8511b"/><stop offset="100%" stop-color="#f90"/></linearGradient><path fill="#3a414a" d="M190-63c-7 42-38 67-86 67-59 0-84-38-90-98-12-110 154-137 174-36l-49 2c-2-19-15-32-35-32-30 0-35 28-38 64-6 74 65 87 74 30" id="aX"/><path fill="#3a414a" d="M135-150c-39-12-60 13-60 57V0H25l-1-190h47c2 13-1 29 3 40 6-28 27-53 61-41v41" id="aY"/><path fill="#3a414a" d="M128 0H69L1-190h53L99-40l48-150h52" id="aZ"/><g id="U"><use transform="matrix(0.06172839506172839,0,0,0.06172839506172839,0,0)" xlink:href="#aM"/><use transform="matrix(0.06172839506172839,0,0,0.06172839506172839,18.456790123456788,0)" xlink:href="#aR"/><use transform="matrix(0.06172839506172839,0,0,0.06172839506172839,24.629629629629626,0)" xlink:href="#aX"/><use transform="matrix(0.06172839506172839,0,0,0.06172839506172839,36.9753086419753,0)" xlink:href="#aY"/><use transform="matrix(0.06172839506172839,0,0,0.06172839506172839,45.61728395061728,0)" xlink:href="#aN"/><use transform="matrix(0.06172839506172839,0,0,0.06172839506172839,59.1358024691358,0)" xlink:href="#aP"/><use transform="matrix(0.06172839506172839,0,0,0.06172839506172839,71.48148148148148,0)" xlink:href="#aw"/><use transform="matrix(0.06172839506172839,0,0,0.06172839506172839,83.82716049382717,0)" xlink:href="#aY"/><use transform="matrix(0.06172839506172839,0,0,0.06172839506172839,92.46913580246914,0)" xlink:href="#aZ"/><use transform="matrix(0.06172839506172839,0,0,0.06172839506172839,104.81481481481482,0)" xlink:href="#aR"/><use transform="matrix(0.06172839506172839,0,0,0.06172839506172839,110.98765432098766,0)" xlink:href="#aX"/><use transform="matrix(0.06172839506172839,0,0,0.06172839506172839,123.33333333333334,0)" xlink:href="#aw"/><use transform="matrix(0.06172839506172839,0,0,0.06172839506172839,135.679012345679,0)" xlink:href="#aP"/></g></defs></g></svg>