<svg xmlns="http://www.w3.org/2000/svg" xmlns:xlink="http://www.w3.org/1999/xlink" xmlns:lucid="lucid" width="923.37" height="1021"><g transform="translate(80.49999999999999 120.5)" lucid:page-tab-id="0_0"><path d="M360-94a6 6 0 0 1 6-6h450.37a6 6 0 0 1 6 6v548a6 6 0 0 1-6 6H366a6 6 0 0 1-6-6z" stroke="#232f3e" fill="#fff" fill-opacity="0"/><path d="M360-100h56v56h-56v-56z" stroke="#fff" stroke-opacity="0" fill="#232f3e"/><path d="M400.88-58.78h-25c-4.13.05-7.57-3.1-7.9-7.2v-.64c-.15-3.4 1.97-6.38 5.25-7.36v-.66c.12-4.22 2.44-7.75 6.24-9.57 4.13-1.86 8.73-.96 11.8 2.3 1.1 1.1 1.85 2.2 2.45 3.6 1.2-1 2.72-1.32 4.24-.9 2.24.8 3.68 2.74 3.76 5.1 3.68.65 6.32 3.8 6.28 7.56 0 7.07-7.04 7.73-7.12 7.76zm-26.7-13.88c-2.83.6-4.75 3.14-4.6 6.04v.53c.3 3.33 3.1 5.84 6.4 5.76h24.98c3.04-.3 5.4-2.64 5.68-5.7.28-3.43-2.24-6.5-5.68-6.78-.44-.05-.72-.45-.64-.87.08-1.83-1-3.44-2.72-4.13-1.32-.37-2.64.13-3.44 1.24-.2.25-.44.38-.76.33-.28-.05-.48-.24-.6-.5-.6-1.6-1.4-2.85-2.6-4.04-2.7-2.8-6.6-3.6-10.13-2-3.24 1.6-5.2 4.63-5.32 8.24-.04.4-.04.74 0 1.14.04.4-.2.76-.6.84z" stroke="#fff" stroke-opacity="0" fill="#fff"/><use xlink:href="#a" transform="matrix(1,0,0,1,431,-80) translate(0 17.77777777777778)"/><use xlink:href="#b" transform="matrix(1,0,0,1,431,-80) translate(123.27160493827161 17.77777777777778)"/><path d="M63.33-35.33h120v120h-120v-120z" stroke="#000" stroke-opacity="0" fill="url(#c)"/><path d="M154.05 26.57V7.72h-3.8v13.16h-3.14l-3.13 1.84c-1.56-2.54-4.13-4.54-7-5.38-2.57 1.15-5.63 1.07-8.2 0-4.94 1.46-8.4 5.92-8.74 11.07h11.3v3.78h-15.18c-1 0-1.9-.84-1.9-1.92V7.72h-28.4v26.92c0 1.7 1.16 3.16 2.56 3.16h37.24v3.77H88.4c-3.54 0-6.35-3.16-6.35-6.93v-40.6c0-3.78 2.8-6.93 6.36-6.93h63.17c3.47 0 6.27 3.16 6.27 6.93v32.54zm.24 35.76c-2.4 1.08-5.04 1.7-7.7 1.7-.73 0-1.47-.08-2.13-.16-3.3-.38-6.44-1.7-9-3.7-4.95-3.9-7.5-10-6.77-16.22.74-5.92 4.38-11.08 9.66-13.77 3.22-1.6 6.85-2.3 10.4-1.84 5.95.7 11.15 4.3 13.87 9.6 1.65 3.24 2.3 6.78 1.82 10.32-.4 3.54-1.82 6.84-4.13 9.54-1.65 1.84-3.72 3.46-6.03 4.53zm-5.95-30.3c-.58 0-1.16-.08-1.73-.08-2.32 0-4.46.54-6.53 1.54-4.22 2.14-7.03 6.22-7.6 10.9-.58 4.94 1.4 9.7 5.28 12.86 2.06 1.6 4.54 2.6 7.1 2.92 2.64.3 5.37-.15 7.76-1.23 1.82-.85 3.47-2.15 4.8-3.62 1.8-2.15 2.96-4.7 3.3-7.53.32-2.77-.17-5.62-1.5-8.16-2.14-4.15-6.27-7-10.9-7.6zm5.7-28v-10c0-1.7-1.16-3.15-2.48-3.15H88.4c-1.4 0-2.55 1.46-2.55 3.15v10h28.4V-3.5c0-1 .9-1.86 1.9-1.86h32.28c1 0 1.82.85 1.82 1.85v7.53zm-7.52-5.7h-28.48v23.24c1.82-3.3 4.8-6 8.5-7.46-1.15-1.46-1.73-3.22-1.73-5.07 0-4.7 3.8-8.46 8.5-8.46s8.5 3.77 8.5 8.46c0 2-.74 3.85-1.97 5.38 2.64 1.17 4.95 3 6.68 5.32zm-1.98 54.47c-.33.3-.82.54-1.32.54-.5 0-1-.24-1.4-.54l-5.3-5.3 2.74-2.63 3.96 3.93 9.16-9.16 2.72 2.7zm-6.52-43.77c0-2.62-2.06-4.7-4.7-4.7-2.65 0-4.8 2.08-4.8 4.7 0 1.6 1 3.23 2.48 4 1.4.77 3.15.77 4.63 0 1.5-.77 2.4-2.4 2.4-4zm-48.38 8.15V13.4h17v3.78zm0 9.4V22.8h11.4v3.77zm13.3 0V22.8h5.6v3.77z" stroke="#000" stroke-opacity="0" fill="#fff"/><use xlink:href="#d" transform="matrix(1,0,0,1,33.33333333333337,93.66666666666661) translate(12.932098765432102 17.77777777777778)"/><use xlink:href="#e" transform="matrix(1,0,0,1,33.33333333333337,93.66666666666661) translate(95.5246913580247 17.77777777777778)"/><use xlink:href="#f" transform="matrix(1,0,0,1,33.33333333333337,93.66666666666661) translate(49.96913580246913 44.44444444444444)"/><path d="M582.37-35.33h120v120h-120v-120z" stroke="#fff" stroke-opacity="0" fill="#d6242d"/><path d="M677.9-4.93h-71.05c-2.48 0-4.48 2-4.48 4.5v50.2c0 2.48 2 4.5 4.48 4.5h71.04c2.47 0 4.47-2.02 4.47-4.5V-.43c0-2.5-2-4.5-4.48-4.5zm1.27 54.7c0 .7-.56 1.3-1.28 1.3h-71.05c-.72 0-1.28-.6-1.28-1.3V-.43c0-.72.56-1.3 1.28-1.3h71.04c.7 0 1.27.58 1.27 1.3z" stroke="#fff" stroke-opacity="0" fill="#fff"/><path d="M647.17 15.87h16v3.2h-16v-3.2zM669.57 15.87h3.2v3.2h-3.2v-3.2zM640.3 21.17c-.3-.35-.68-.52-1.13-.52h-22.4v-8c.03-1.85.87-3.45 2.4-4.53 1.7-1.3 3.5-1.86 5.6-1.86 2.18-.04 4.07.65 5.76 2.03 1.4 1.07 2.18 2.58 2.24 4.36v8h3.2V12c-.06-2.63-1.25-4.83-3.4-6.4-2.33-1.76-4.85-2.58-7.8-2.53-6.17 0-11.2 4-11.2 8.94v8.65h-3.2c-.9 0-1.6.73-1.6 1.6v22.42c0 .86.7 1.6 1.6 1.6h28.8c.9 0 1.6-.74 1.6-1.6V22.25c0-.43-.16-.78-.44-1.08zm-2.73 7.5h-4.8v3.2h4.8v3.2h-4.8v3.2h4.8v4.8h-25.6V23.9h25.6z" stroke="#fff" stroke-opacity="0" fill="#fff"/><path d="M624.77 26.38c-2 0-3.7 1.2-4.38 3.07-.9 2.43.35 5.13 2.77 6.02v4.4h3.2v-4.4c1.88-.7 3.06-2.4 3.07-4.38 0-2.6-2.08-4.7-4.67-4.72zm0 6.72c-1.12 0-2.02-.9-2.02-2.03s.9-2.03 2.02-2.03 2.04.9 2.04 2.03c0 1.12-.9 2.03-2.03 2.03zM647.17 23.87h11.2v3.2h-11.2v-3.2zM664.77 23.87h8v3.2h-8v-3.2zM647.17 31.87h20.8v3.2h-20.8v-3.2z" stroke="#fff" stroke-opacity="0" fill="#fff"/><use xlink:href="#g" transform="matrix(1,0,0,1,552.3731459797035,93.66666666666664) translate(70.27777777777777 17.77777777777778)"/><path d="M594.84 524.97h81.6c12.46 0 12.46 0 12.46 12.46v55c0 12.46 0 12.46-12.47 12.46h-81.6c-12.46 0-12.46 0-12.46-12.48v-55c0-12.45 0-12.45 12.47-12.45z" fill="#7d7c7c"/><path d="M594.84 520h81.6c12.46 0 12.46 0 12.46 12.47v55c0 12.46 0 12.46-12.47 12.46h-81.6c-12.46 0-12.46 0-12.46-12.47v-55c0-12.46 0-12.46 12.47-12.46z" fill="#fff"/><path d="M681.4 545.46c0 10.53-8.57 19.07-19.14 19.07-10.58 0-19.15-8.54-19.15-19.07 0-10.54 8.58-19.08 19.16-19.08 10.57 0 19.15 8.54 19.15 19.08z" fill="#759c3e"/><path d="M675.65 545.46c0 2.75-2.24 4.98-5 4.98-2.77 0-5-2.23-5-4.98 0-2.75 2.23-4.98 5-4.98 2.76 0 5 2.23 5 4.98z" fill="#fff"/><path d="M655.76 553.57h-22.14l-2-3.5-7.5.7-2.88-2.93-2.63-.56-6.8 4.07-8.5-6.5 4.66-7.5h47.8v16.22z" fill="#759c3e"/><path d="M628.15 574.82c0 10.53-8.58 19.07-19.15 19.07-10.57 0-19.15-8.55-19.15-19.08 0-10.54 8.58-19.08 19.15-19.08 10.57 0 19.15 8.54 19.15 19.08z" fill="#7d7c7c"/><path d="M605.62 574.8c0 2.76-2.25 5-5 5-2.77 0-5-2.24-5-5 0-2.74 2.23-4.97 5-4.97 2.75 0 5 2.23 5 4.98z" fill="#fff"/><path d="M615.5 566.7h22.14l2 3.5 7.5-.7 2.88 2.93 2.63.57 6.82-4.07 8.5 6.48-4.67 7.52h-47.8v-16.2z" fill="#7d7c7c"/><path d="M699.35 597.97c0 14.36-11.7 26.02-26.13 26.02s-26.13-11.67-26.13-26.03c0-14.37 11.7-26.03 26.12-26.03 14.42 0 26.13 11.66 26.13 26.03z" fill="#fff"/><path d="M673.22 627c-16.1 0-29.14-13.02-29.14-29.04s13.05-29.03 29.14-29.03c16.1 0 29.14 13 29.14 29.03 0 16.02-13.05 29.03-29.14 29.03zm0-52.1c-12.76 0-23.14 10.35-23.14 23.06 0 12.7 10.38 23.05 23.14 23.05s23.14-10.33 23.14-23.04c-.06-12.72-10.38-23-23.14-23.05z" fill="#4f4f4f"/><path d="M661.14 596.97h14.1v6h-14.1v-6z" fill="#4f4f4f"/><path d="M672.22 579.82h6.02v23.15h-6.02v-23.15z" fill="#4f4f4f"/><use xlink:href="#h" transform="matrix(1,0,0,1,582.3731459797035,627) translate(10.092592592592588 17.77777777777778)"/><use xlink:href="#i" transform="matrix(1,0,0,1,582.3731459797035,627) translate(24.19753086419753 44.44444444444444)"/><use xlink:href="#j" transform="matrix(1,0,0,1,582.3731459797035,627) translate(32.839506172839506 71.11111111111111)"/><path d="M762.93 284.84c3.57 0 6.44 2.56 6.44 5.73v90.7c0 3.16-2.87 5.72-6.44 5.72H688.8c-3.56 0-6.43-2.57-6.43-5.74v-90.8c0-3.16 2.87-5.72 6.44-5.72h74.13z" fill="#7d7c7c"/><path d="M762.93 280.1c3.57 0 6.44 2.56 6.44 5.73v90.7c0 3.16-2.87 5.72-6.44 5.72H688.8c-3.56 0-6.43-2.56-6.43-5.73v-90.8c0-3.16 2.87-5.72 6.44-5.72h74.13z" fill="#d2d3d3"/><path d="M701.1 302.22l-5.98-5.8-6.58 5.9 12.43 11.14 20.97-18.8-4.78-4.37-16.06 11.92zM701.1 328.92l-5.98-5.82-6.58 5.9 12.43 11.14 20.97-18.8-4.78-4.38-16.06 11.96z" fill="#759c3e"/><path d="M701.78 355.6l-12.8-10.32h6.25l9.73 8.3 10.2-8.3h5.77l-12.8 10.33 13.47 10.93h-6.42l-10.5-8.77-10.82 8.77h-5.68z" fill="#e05243"/><use xlink:href="#k" transform="matrix(1,0,0,1,682.3731459797035,387.00000000000006) translate(-15.635802469135811 17.77777777777778)"/><path d="M159.75 581.43c-9.08-.03-16.42-7.52-16.36-16.7.05-9.2 7.45-16.62 16.53-16.6 6.8.05 12.6 4 15.16 10.4h2.68l3.4-3.46c.66-.67 1.73-.67 2.4 0l3.4 3.46h1.13l3.4-3.46c.67-.67 1.74-.67 2.4 0h.06l3.4 3.46h3.1c.5 0 .84.13 1.14.43l1.5 1.3-2.27 2.6-.96-.9h-3.52c-.48 0-.9-.17-1.2-.5l-2.68-2.67-2.63 2.66c-.3.33-.72.5-1.2.5h-2.56c-.48 0-.84-.17-1.2-.5l-2.62-2.67-2.7 2.66c-.3.33-.7.5-1.18.5h-4.54c-.78.03-1.5-.44-1.73-1.17-1.3-4.23-4.3-7.23-8.4-8.6-6.88-2.2-14.22 1.64-16.43 8.6-2.2 6.92 1.6 14.34 8.48 16.57 6.86 2.23 14.2-1.6 16.36-8.56.25-.75.96-1.22 1.74-1.18h15.4v3.42h-14.2c-2.57 6.46-8.43 10.42-15.3 10.4zm-4.42-10.32c-3.47 0-6.2-2.82-6.2-6.25 0-3.46 2.74-6.3 6.2-6.3 3.4 0 6.15 2.84 6.15 6.3 0 3.43-2.75 6.2-6.15 6.2zm0-9.08h-.06c-1.55.04-2.75 1.3-2.75 2.87 0 1.52 1.26 2.78 2.8 2.78 1.56 0 2.75-1.3 2.75-2.83v-.03c0-1.56-1.25-2.83-2.74-2.83zM206.9 553.2c-6.88.05-12.68-3.9-15.3-10.32H189l-3.43 3.42c-.64.7-1.72.7-2.36 0l-3.43-3.42h-1.14l-3.44 3.42c-.65.7-1.73.7-2.36 0l-3.44-3.42h-2.93c-.45 0-.83-.13-1.15-.4l-5.1-4.56c-.7-.63-.75-1.7-.18-2.42l3.88-4.53c.32-.4.77-.6 1.28-.6h26.4c3.45-8.5 13.06-12.6 21.47-9.14 8.4 3.46 12.47 13.17 9.04 21.65-2.54 6.38-8.33 10.34-15.14 10.38zm-18.6-13.88h4.52c.77-.03 1.47.43 1.72 1.2 1.34 4.22 4.27 7.22 8.47 8.55 6.88 2.22 14.2-1.6 16.43-8.55 2.17-6.95-1.6-14.37-8.46-16.6-6.88-2.22-14.26 1.63-16.43 8.55-.25.77-.95 1.26-1.72 1.23h-26.86l-2.23 2.63 3.38 3h3.25c.45 0 .83.16 1.2.5l2.62 2.68 2.68-2.68c.3-.33.7-.5 1.2-.5h2.55c.45 0 .9.17 1.2.5l2.62 2.7 2.68-2.7c.3-.33.7-.5 1.2-.5zm23.05 3.43c-3.38 0-6.18-2.8-6.18-6.25 0-3.46 2.8-6.26 6.18-6.26 3.44 0 6.24 2.8 6.24 6.25-.08 3.45-2.8 6.25-6.25 6.25zm0-9.05c-1.53 0-2.8 1.26-2.8 2.8 0 1.56 1.27 2.82 2.8 2.82 1.6 0 2.8-1.26 2.8-2.83 0-1.53-1.27-2.73-2.8-2.73zM184.93 590.33h-39.9c-.95 0-1.7-.77-1.7-1.72v-7.98h3.4l.02 6.35h38.18z" stroke="#fff" stroke-opacity="0" fill="#d6242d"/><path d="M205.66 600c-9.75 0-17.66-8-17.66-17.87 0-9.86 7.9-17.86 17.66-17.86s17.67 8 17.67 17.87c0 9.86-7.9 17.86-17.67 17.86zm0-32.26c-7.88 0-14.27 6.46-14.27 14.4 0 7.96 6.38 14.43 14.26 14.43s14.28-6.47 14.28-14.44c-.03-7.93-6.4-14.4-14.28-14.4z" stroke="#fff" stroke-opacity="0" fill="#d6242d"/><path d="M207.38 585.47H196.1v-3.43h7.88v-11.2h3.4v14.63z" stroke="#fff" stroke-opacity="0" fill="#d6242d"/><path d="M145.16 566.48l10.73-13.8 9.93-11.4 45.72-4.3-.13 51.75-66.52.1z" stroke="#fff" stroke-opacity="0" stroke-width=".37" fill="#fff" fill-opacity="0"/><use xlink:href="#l" transform="matrix(1,0,0,1,113.33333333333334,609) translate(17.654320987654316 17.77777777777778)"/><use xlink:href="#m" transform="matrix(1,0,0,1,113.33333333333334,609) translate(4.629629629629633 44.44444444444444)"/><use xlink:href="#j" transform="matrix(1,0,0,1,113.33333333333334,609) translate(81.04938271604938 44.44444444444444)"/><path d="M140 766a6 6 0 0 1 6-6h348a6 6 0 0 1 6 6v108a6 6 0 0 1-6 6H146a6 6 0 0 1-6-6z" stroke="#3a414a" fill="#fff"/><use xlink:href="#n" transform="matrix(1,0,0,1,152,772) translate(122.5679012345679 38.77777777777778)"/><use xlink:href="#o" transform="matrix(1,0,0,1,152,772) translate(173.92592592592592 38.77777777777778)"/><use xlink:href="#p" transform="matrix(1,0,0,1,152,772) translate(91.64197530864197 65.44444444444446)"/><use xlink:href="#q" transform="matrix(1,0,0,1,152,772) translate(150.8395061728395 65.44444444444446)"/><path d="M627.07 361.73h.05c2.87 0 5.25-2.36 5.25-5.27 0-.3 0-.58-.12-.87-2.08-16.63-11.63-30.23-29.7-30.23-18.13 0-27.9 11.7-29.82 30.22-.24 2.93 1.9 5.55 4.83 5.88h49.5z" stroke="#000" stroke-opacity="0" fill="#0078d4"/><path d="M602.68 329.6c-3.36.04-6.24-.8-9.07-2.66l9.02 23.42 8.87-23.2c-2.8 1.68-5.55 2.45-8.82 2.45z" stroke="#000" stroke-opacity="0" fill="#fff" fill-opacity=".8"/><path d="M619.3 312.88c0 9.22-7.48 16.7-16.7 16.7-9.2 0-16.67-7.48-16.67-16.7 0-9.22 7.48-16.7 16.68-16.7 9.22 0 16.7 7.48 16.7 16.7z" stroke="#000" stroke-opacity="0" fill="#0078d4"/><path d="M593.6 378c4.37 0 7.93-3.56 7.93-7.94v-.92c-3.12-24.9-17.3-45.14-44.4-45.14-27 0-41.8 17.17-44.76 44.93-.35 4.37 2.77 8.26 7.14 8.75h73.92z" stroke="#000" stroke-opacity="0" fill="url(#r)"/><path d="M557.5 329.95c-4.96-.03-9.17-1.3-13.33-4l13.32 35 13.3-34.7c-4.2 2.55-8.38 3.74-13.3 3.7z" stroke="#000" stroke-opacity="0" fill="#fff" fill-opacity=".8"/><path d="M582.2 305c0 13.78-11.17 24.98-24.95 24.98-13.77 0-24.96-11.2-24.96-25 0-13.78 11.18-24.98 24.95-24.98 13.78 0 24.96 11.2 24.96 25z" stroke="#000" stroke-opacity="0" fill="url(#s)"/><use xlink:href="#t" transform="matrix(1,0,0,1,482.3731459797035,387) translate(53.611111111111114 17.77777777777778)"/><path d="M482.37 233.33a6 6 0 0 1 6-6h308a6 6 0 0 1 6 6v186a6 6 0 0 1-6 6h-308a6 6 0 0 1-6-6z" fill="#fff" fill-opacity="0"/><path d="M486.08 227.8l.44-.17.92-.22.93-.07h1.98m3.95 0h3.94m3.95 0h3.94m3.95 0h3.94m3.95 0h3.94m3.95 0h3.94m3.94 0h3.95m3.95 0h3.95m3.95 0h3.95m3.95 0h3.94m3.95 0h3.95m3.95 0h3.95m3.95 0h3.95m3.95 0H593m3.96 0h3.95m3.96 0h3.95m3.96 0h3.95m3.95 0h3.95m3.95 0h3.95m3.95 0h3.95m3.95 0h3.95m3.95 0h3.94m3.94 0h3.95m3.94 0H672m3.94 0h3.95m3.94 0h3.94m3.95 0h3.95m3.95 0h3.95m3.95 0h3.95m3.94 0h3.95m3.95 0h3.95m3.95 0h3.95m3.95 0h3.95m3.94 0h3.96m3.95 0h3.96m3.95 0h3.96m3.95 0h3.95m3.95 0h3.95m3.95 0h3.95m3.95 0h1.97l.94.08.93.23.43.18m3.24 3.24l.18.44.22.92.07.93v2.02m0 4.05v4.04m0 4.05v4.03m0 4.04v4.05m0 4.04v4.04m0 4.05v4.04m0 4.03v4.05m0 4.04v4.04m0 4.05v4.05m0 4.04v4.04m0 4.04v4.05m0 4.04v4.04m0 4.06v4.04m0 4.04v4.05m0 4.03v4.04m0 4.05v4.04m0 4.04v4.05m0 4.04v4.03m0 4.05v4.04m0 4.04V389m0 4.05v4.04m0 4.04v4.04m0 4.05v4.04m0 4.04v2.03l-.07.94-.22.92-.18.42m-3.24 3.24l-.43.18-.92.22-.93.07h-1.97m-3.95 0h-3.95m-3.95 0h-3.95m-3.95 0h-3.94m-3.94 0h-3.95m-3.94 0h-3.95m-3.94 0H747m-3.93 0h-3.95m-3.95 0h-3.95m-3.95 0h-3.95m-3.95 0h-3.95m-3.94 0h-3.95m-3.95 0h-3.95m-3.95 0h-3.95m-3.95 0h-3.94m-3.95 0h-3.96m-3.95 0h-3.96m-3.95 0h-3.96m-3.95 0h-3.96m-3.94 0h-3.95m-3.95 0h-3.95m-3.95 0h-3.95m-3.95 0h-3.95m-3.94 0h-3.94m-3.95 0h-3.94m-3.95 0h-3.94m-3.95 0h-3.93m-3.95 0h-3.95m-3.95 0h-3.95m-3.95 0h-3.95m-3.95 0h-3.94m-3.95 0h-3.95m-3.95 0h-3.95m-3.95 0h-3.95m-3.94 0h-3.95m-3.96 0H518m-3.96 0h-3.95m-3.96 0h-3.95m-3.95 0h-3.95m-3.95 0h-1.98l-.94-.07-.9-.22-.45-.18m-3.23-3.24l-.18-.43-.22-.93-.08-.94v-2.02m0-4.03v-4.04m0-4.05v-4.04m0-4.05v-4.05m0-4.04v-4.04m0-4.04v-4.04m0-4.05v-4.04m0-4.05v-4.05m0-4.04v-4.04m0-4.05v-4.04m0-4.04v-4.06m0-4.04v-4.04m0-4.05v-4.03m0-4.04v-4.05m0-4.04v-4.05m0-4.05V296m0-4.04v-4.04m0-4.04v-4.05m0-4.04v-4.05m0-4.05v-4.04m0-4.04v-4.05m0-4.04v-4.04m0-4.06v-4.04m0-4.05v-2.02l.08-.94.22-.92.18-.44" stroke="#5a6c86" fill="none"/><path d="M3.33-94a6 6 0 0 1 6-6h225.63a6 6 0 0 1 6 6v548a6 6 0 0 1-6 6H9.33a6 6 0 0 1-6-6z" stroke="#232f3e" fill="#fff" fill-opacity="0"/><path d="M3.33-100h56v56h-56v-56z" stroke="#fff" stroke-opacity="0" fill="#232f3e"/><path d="M44.2-58.78h-25c-4.1.05-7.56-3.1-7.88-7.2v-.64c-.16-3.4 1.96-6.38 5.25-7.36v-.66c.1-4.22 2.44-7.75 6.24-9.57 4.13-1.86 8.73-.96 11.8 2.3 1.1 1.1 1.85 2.2 2.45 3.6 1.2-1 2.72-1.32 4.24-.9 2.23.8 3.67 2.74 3.75 5.1 3.68.65 6.32 3.8 6.28 7.56 0 7.07-7.04 7.73-7.12 7.76zM17.53-72.66c-2.83.6-4.76 3.14-4.6 6.04v.53c.28 3.33 3.08 5.84 6.4 5.76H44.3c3.03-.3 5.4-2.64 5.67-5.7.28-3.43-2.24-6.5-5.68-6.78-.45-.05-.73-.45-.65-.87.08-1.83-1-3.44-2.72-4.13-1.32-.37-2.64.13-3.44 1.24-.2.25-.45.38-.77.33-.28-.05-.48-.24-.6-.5-.6-1.6-1.4-2.85-2.6-4.04-2.68-2.8-6.6-3.6-10.12-2-3.23 1.6-5.2 4.63-5.3 8.24-.05.4-.05.74 0 1.14.03.4-.2.76-.62.84z" stroke="#fff" stroke-opacity="0" fill="#fff"/><use xlink:href="#u" transform="matrix(1,0,0,1,74.33333333333334,-80) translate(0 17.77777777777778)"/><path d="M642.37 426.33v77.3" stroke="#3a414a" fill="none"/><path d="M642.87 426.35h-1v-.52h1z" stroke="#3a414a" stroke-width=".05" fill="#3a414a"/><path d="M642.37 518.38l-4.63-14.26H647z" stroke="#3a414a" fill="#3a414a"/><path d="M81.65 600H5c-.87 0-1.67-.76-1.67-1.7v-5.12c0-18.18 11.92-33.43 29.52-37.7.48-.1.88-.05 1.28.17 5.92 3.2 12.48 3.2 18.4 0 .4-.22.8-.26 1.2-.17 17.68 4.27 29.6 19.52 29.6 37.7v5.13c0 .94-.8 1.7-1.68 1.7zm-74.88-3.43H79.9v-3.4c.07-16.35-10.57-30.07-26.33-34.17-3.36 1.64-6.48 2.4-10.24 2.4s-6.88-.7-10.24-2.4c-15.77 4.1-26.4 17.82-26.33 34.18z" stroke="#fff" stroke-opacity="0" fill="#232f3e"/><path d="M43.34 561.3c-3.67 0-6.8-.78-10.03-2.56-9.95-5.58-13.5-18.2-7.92-28.17 5.57-9.95 18.17-13.5 28.08-7.93 6.73 3.76 10.57 10.33 10.57 18.05 0 7.76-3.92 14.36-10.74 18.04-3.23 1.73-6.32 2.56-9.96 2.56zm0-37.83c-6.6-.17-12.26 3.18-15.44 8.96-4.5 8.4-1.4 18.8 6.93 23.34 5.4 2.93 11.36 2.93 16.77 0 5.7-3.1 9-8.68 8.96-15.2-.04-9.5-7.76-17.14-17.22-17.1z" stroke="#fff" stroke-opacity="0" fill="#232f3e"/><use xlink:href="#v" transform="matrix(1,0,0,1,-26.666666666666657,609) translate(48.425925925925924 17.77777777777778)"/><use xlink:href="#w" transform="matrix(1,0,0,1,-26.666666666666657,609) translate(16.388888888888886 44.44444444444444)"/><path d="M139 820H26a6 6 0 0 1-6-6V696.38" stroke="#3a414a" fill="none"/><path d="M139.5 820.5h-.5v-1h.5z" stroke="#3a414a" stroke-width=".05" fill="#3a414a"/><path d="M20 681.62l4.64 14.26h-9.28z" stroke="#3a414a" fill="#3a414a"/><path d="M43.33 499.5V306a6 6 0 0 1 6-6h48a6 6 0 0 0 6-6V176.38M43.33 499.5v.5" stroke="#3a414a" fill="none"/><path d="M103.33 161.62l4.64 14.26H98.7z" stroke="#3a414a" fill="#3a414a"/><path d="M183.33 483.62V305.67a6 6 0 0 0-6-6h-48a6 6 0 0 1-6-6v-133.5" stroke="#3a414a" fill="none"/><path d="M183.33 498.38l-4.63-14.26h9.27z" stroke="#3a414a" fill="#3a414a"/><path d="M123.33 160.18v-.5" stroke="#3a414a" fill="none"/><path d="M402.37-35.33h120v120h-120v-120z" stroke="#000" stroke-opacity="0" fill="url(#x)"/><path d="M493.08 26.57V7.72h-3.8v13.16h-3.13L483 22.71c-1.56-2.54-4.12-4.54-7-5.38-2.56 1.15-5.62 1.07-8.18 0-4.95 1.46-8.42 5.92-8.75 11.07h11.3v3.78H455.2c-1 0-1.9-.84-1.9-1.92V7.72h-28.4v26.92c0 1.7 1.15 3.16 2.55 3.16h37.24v3.77h-37.25c-3.55 0-6.36-3.16-6.36-6.93v-40.6c0-3.78 2.8-6.93 6.35-6.93h63.16c3.48 0 6.28 3.16 6.28 6.93v32.54zm.25 35.76c-2.4 1.08-5.03 1.7-7.68 1.7-.74 0-1.48-.08-2.14-.16-3.3-.38-6.43-1.7-9-3.7-4.94-3.9-7.5-10-6.76-16.22.74-5.92 4.38-11.08 9.66-13.77 3.22-1.6 6.85-2.3 10.4-1.84 5.95.7 11.15 4.3 13.87 9.6 1.65 3.24 2.3 6.78 1.82 10.32-.43 3.54-1.83 6.84-4.14 9.54-1.65 1.84-3.72 3.46-6.03 4.53zm-5.94-30.3c-.6 0-1.17-.08-1.75-.08-2.3 0-4.45.54-6.52 1.54-4.2 2.14-7 6.22-7.6 10.9-.57 4.94 1.4 9.7 5.3 12.86 2.06 1.6 4.53 2.6 7.1 2.92 2.63.3 5.36-.15 7.75-1.23 1.82-.85 3.47-2.15 4.8-3.62 1.8-2.15 2.96-4.7 3.3-7.53.32-2.77-.17-5.62-1.5-8.16-2.14-4.15-6.27-7-10.9-7.6zm5.7-28l-.02-10c0-1.7-1.15-3.15-2.47-3.15h-63.15c-1.4 0-2.56 1.46-2.56 3.15v10h28.4V-3.5c0-1 .9-1.86 1.9-1.86h32.27c1 0 1.82.85 1.82 1.85v7.53zm-7.53-5.7H457.1v23.24c1.8-3.3 4.78-6 8.5-7.46-1.16-1.46-1.74-3.22-1.74-5.07 0-4.7 3.8-8.46 8.5-8.46s8.5 3.77 8.5 8.46c0 2-.74 3.85-1.98 5.38 2.65 1.17 4.96 3 6.7 5.32zM483.6 52.8c-.34.3-.84.54-1.33.54-.5 0-1-.24-1.4-.54l-5.3-5.3 2.74-2.63 3.97 3.93 9.16-9.16 2.73 2.7zm-6.53-43.77c0-2.62-2.06-4.7-4.7-4.7-2.65 0-4.8 2.08-4.8 4.7 0 1.6 1 3.23 2.48 4 1.4.77 3.14.77 4.63 0 1.48-.77 2.4-2.4 2.4-4zm-48.38 8.15V13.4h17v3.78zm0 9.4V22.8h11.38v3.77zm13.28 0V22.8h5.62v3.77z" stroke="#000" stroke-opacity="0" fill="#fff"/><use xlink:href="#d" transform="matrix(1,0,0,1,372.37314597970345,93.66666666666664) translate(1.2654320987654444 17.77777777777778)"/><use xlink:href="#y" transform="matrix(1,0,0,1,372.37314597970345,93.66666666666664) translate(83.85802469135804 17.77777777777778)"/><use xlink:href="#z" transform="matrix(1,0,0,1,372.37314597970345,93.66666666666664) translate(136.820987654321 17.77777777777778)"/><path d="M522.87 24.67H546" stroke="#3a414a" fill="none"/><path d="M522.9 25.17h-.53v-1h.52z" stroke="#3a414a" stroke-width=".05" fill="#3a414a"/><path d="M560.75 24.67L546.5 29.3v-9.27z" stroke="#3a414a" fill="#3a414a"/><path d="M436.4 581.43c-9.06-.03-16.4-7.52-16.35-16.7.06-9.2 7.47-16.62 16.54-16.6 6.8.05 12.6 4 15.16 10.4h2.7l3.4-3.46c.64-.67 1.72-.67 2.38 0l3.4 3.46h1.13l3.4-3.46c.66-.67 1.74-.67 2.4 0h.06l3.4 3.46h3.1c.48 0 .84.13 1.14.43l1.5 1.3-2.28 2.6-.96-.9H473c-.46 0-.88-.17-1.18-.5l-2.7-2.67-2.6 2.66c-.3.33-.73.5-1.2.5h-2.57c-.48 0-.84-.17-1.2-.5l-2.63-2.67-2.68 2.66c-.3.33-.72.5-1.2.5h-4.54c-.77.03-1.5-.44-1.73-1.17-1.3-4.23-4.3-7.23-8.42-8.6-6.86-2.2-14.2 1.64-16.42 8.6-2.2 6.92 1.62 14.34 8.48 16.57 6.88 2.23 14.22-1.6 16.37-8.56.24-.75.96-1.22 1.74-1.18h15.4v3.42h-14.2c-2.57 6.46-8.42 10.42-15.3 10.4zM432 571.1c-3.47 0-6.2-2.82-6.2-6.25 0-3.46 2.73-6.3 6.2-6.3 3.4 0 6.14 2.84 6.14 6.3 0 3.43-2.74 6.2-6.14 6.2zm0-9.08h-.06c-1.56.04-2.75 1.3-2.75 2.87 0 1.52 1.24 2.78 2.8 2.78 1.55 0 2.74-1.3 2.74-2.83v-.03c0-1.56-1.25-2.83-2.75-2.83zM483.56 553.2c-6.88.05-12.67-3.9-15.28-10.32h-2.6l-3.45 3.42c-.63.7-1.72.7-2.35 0l-3.44-3.42h-1.14l-3.44 3.42c-.64.7-1.72.7-2.36 0l-3.44-3.42h-2.93c-.44 0-.82-.13-1.14-.4l-5.1-4.56c-.7-.63-.77-1.7-.2-2.42l3.9-4.53c.3-.4.75-.6 1.26-.6h26.42c3.44-8.5 13.05-12.6 21.46-9.14 8.4 3.46 12.47 13.17 9.03 21.65-2.54 6.38-8.33 10.34-15.15 10.38zm-18.6-13.88h4.53c.75-.03 1.45.43 1.7 1.2 1.35 4.22 4.28 7.22 8.48 8.55 6.87 2.22 14.2-1.6 16.42-8.55 2.16-6.95-1.6-14.37-8.47-16.6-6.87-2.22-14.26 1.63-16.42 8.55-.25.77-.94 1.26-1.7 1.23h-26.87l-2.23 2.63 3.37 3h3.25c.44 0 .83.16 1.2.5l2.62 2.68 2.67-2.68c.33-.33.7-.5 1.22-.5h2.55c.44 0 .9.17 1.2.5l2.62 2.7 2.66-2.7c.32-.33.7-.5 1.2-.5zm23.06 3.43c-3.38 0-6.18-2.8-6.18-6.25 0-3.46 2.8-6.26 6.18-6.26 3.43 0 6.23 2.8 6.23 6.25-.06 3.45-2.8 6.25-6.23 6.25zm0-9.05c-1.53 0-2.8 1.26-2.8 2.8 0 1.56 1.27 2.82 2.8 2.82 1.6 0 2.8-1.26 2.8-2.83 0-1.53-1.28-2.73-2.8-2.73zM461.6 590.33h-39.9c-.95 0-1.7-.77-1.7-1.72v-7.98h3.4v6.35h38.2z" stroke="#fff" stroke-opacity="0" fill="#d6242d"/><path d="M482.33 600c-9.75 0-17.67-8-17.67-17.87 0-9.86 7.92-17.86 17.67-17.86 9.75 0 17.67 8 17.67 17.87 0 9.86-7.92 17.86-17.67 17.86zm0-32.26c-7.88 0-14.27 6.46-14.27 14.4 0 7.96 6.4 14.43 14.27 14.43 7.88 0 14.28-6.47 14.28-14.44-.03-7.93-6.4-14.4-14.27-14.4z" stroke="#fff" stroke-opacity="0" fill="#d6242d"/><path d="M484.05 585.47h-11.28v-3.43h7.87v-11.2h3.4v14.63z" stroke="#fff" stroke-opacity="0" fill="#d6242d"/><path d="M421.83 566.48l10.73-13.8 9.93-11.4 45.72-4.3-.13 51.75-66.54.1z" stroke="#fff" stroke-opacity="0" stroke-width=".37" fill="#fff" fill-opacity="0"/><use xlink:href="#l" transform="matrix(1,0,0,1,390.0000000000001,609) translate(17.654320987654316 17.77777777777778)"/><use xlink:href="#m" transform="matrix(1,0,0,1,390.0000000000001,609) translate(4.629629629629633 44.44444444444444)"/><use xlink:href="#j" transform="matrix(1,0,0,1,390.0000000000001,609) translate(81.04938271604938 44.44444444444444)"/><path d="M460 529.88v-373.5" stroke="#3a414a" fill="none"/><path d="M460.5 530.38h-1v-.52h1z" stroke="#3a414a" stroke-width=".05" fill="#3a414a"/><path d="M460 141.62l4.63 14.26h-9.26z" stroke="#3a414a" fill="#3a414a"/><path d="M642.37 120.5v89.95M642.37 120.5v-.5" stroke="#3a414a" fill="none"/><path d="M642.37 225.22l-4.63-14.27H647z" stroke="#3a414a" fill="#3a414a"/><g><path d="M-54 333.33a6 6 0 0 1-6-6V-29.33a6 6 0 0 1 6-6h51.33a6 6 0 0 1 6 6v356.66a6 6 0 0 1-6 6z" stroke="#000" stroke-opacity="0" fill="#fff" fill-opacity="0"/></g><g><use xlink:href="#A" transform="matrix(6.123233995736766e-17,-1,1,6.123233995736766e-17,-54.999999999999986,328.33333333333326) translate(42.61728395061729 31.27777777777778)"/><use xlink:href="#B" transform="matrix(6.123233995736766e-17,-1,1,6.123233995736766e-17,-54.999999999999986,328.33333333333326) translate(106.69135802469137 31.27777777777778)"/><use xlink:href="#C" transform="matrix(6.123233995736766e-17,-1,1,6.123233995736766e-17,-54.999999999999986,328.33333333333326) translate(137.55555555555557 31.27777777777778)"/><use xlink:href="#D" transform="matrix(6.123233995736766e-17,-1,1,6.123233995736766e-17,-54.999999999999986,328.33333333333326) translate(168.41975308641977 31.27777777777778)"/><use xlink:href="#E" transform="matrix(6.123233995736766e-17,-1,1,6.123233995736766e-17,-54.999999999999986,328.33333333333326) translate(232.55555555555557 31.27777777777778)"/></g><path d="M460 676.38V759" stroke="#3a414a" fill="none"/><path d="M460 661.62l4.63 14.26h-9.26z" stroke="#3a414a" fill="#3a414a"/><path d="M460.5 759.5h-1v-.5h1z" stroke="#3a414a" stroke-width=".05" fill="#3a414a"/><path d="M640 720.5V814a6 6 0 0 1-6 6H516.88M640 720.5v-.5" stroke="#3a414a" fill="none"/><path d="M502.12 820l14.26-4.63v9.26z" stroke="#3a414a" fill="#3a414a"/><path d="M180 743.12V660.5" stroke="#3a414a" fill="none"/><path d="M180 757.88l-4.63-14.26h9.26z" stroke="#3a414a" fill="#3a414a"/><path d="M180 660.5v-.5" stroke="#3a414a" fill="none"/><defs><path fill="#3a414a" d="M205 0l-28-72H64L36 0H1l101-248h38L239 0h-34zm-38-99l-47-123c-12 45-31 82-46 123h93" id="F"/><path fill="#3a414a" d="M84 4C-5 8 30-112 23-190h32v120c0 31 7 50 39 49 72-2 45-101 50-169h31l1 190h-30c-1-10 1-25-2-33-11 22-28 36-60 37" id="G"/><path fill="#3a414a" d="M59-47c-2 24 18 29 38 22v24C64 9 27 4 27-40v-127H5v-23h24l9-43h21v43h35v23H59v120" id="H"/><path fill="#3a414a" d="M100-194c62-1 85 37 85 99 1 63-27 99-86 99S16-35 15-95c0-66 28-99 85-99zM99-20c44 1 53-31 53-75 0-43-8-75-51-75s-53 32-53 75 10 74 51 75" id="I"/><path fill="#3a414a" d="M114-163C36-179 61-72 57 0H25l-1-190h30c1 12-1 29 2 39 6-27 23-49 58-41v29" id="J"/><path fill="#3a414a" d="M24-231v-30h32v30H24zM24 0v-190h32V0H24" id="K"/><path fill="#3a414a" d="M135-143c-3-34-86-38-87 0 15 53 115 12 119 90S17 21 10-45l28-5c4 36 97 45 98 0-10-56-113-15-118-90-4-57 82-63 122-42 12 7 21 19 24 35" id="L"/><path fill="#3a414a" d="M141-36C126-15 110 5 73 4 37 3 15-17 15-53c-1-64 63-63 125-63 3-35-9-54-41-54-24 1-41 7-42 31l-33-3c5-37 33-52 76-52 45 0 72 20 72 64v82c-1 20 7 32 28 27v20c-31 9-61-2-59-35zM48-53c0 20 12 33 32 33 41-3 63-29 60-74-43 2-92-5-92 41" id="M"/><path fill="#3a414a" d="M117-194c89-4 53 116 60 194h-32v-121c0-31-8-49-39-48C34-167 62-67 57 0H25l-1-190h30c1 10-1 24 2 32 11-22 29-35 61-36" id="N"/><g id="a"><use transform="matrix(0.06172839506172839,0,0,0.06172839506172839,0,0)" xlink:href="#F"/><use transform="matrix(0.06172839506172839,0,0,0.06172839506172839,14.814814814814813,0)" xlink:href="#G"/><use transform="matrix(0.06172839506172839,0,0,0.06172839506172839,27.160493827160494,0)" xlink:href="#H"/><use transform="matrix(0.06172839506172839,0,0,0.06172839506172839,33.333333333333336,0)" xlink:href="#I"/><use transform="matrix(0.06172839506172839,0,0,0.06172839506172839,45.67901234567901,0)" xlink:href="#J"/><use transform="matrix(0.06172839506172839,0,0,0.06172839506172839,53.02469135802469,0)" xlink:href="#K"/><use transform="matrix(0.06172839506172839,0,0,0.06172839506172839,57.901234567901234,0)" xlink:href="#L"/><use transform="matrix(0.06172839506172839,0,0,0.06172839506172839,69.01234567901234,0)" xlink:href="#M"/><use transform="matrix(0.06172839506172839,0,0,0.06172839506172839,81.35802469135803,0)" xlink:href="#H"/><use transform="matrix(0.06172839506172839,0,0,0.06172839506172839,87.53086419753086,0)" xlink:href="#K"/><use transform="matrix(0.06172839506172839,0,0,0.06172839506172839,92.4074074074074,0)" xlink:href="#I"/><use transform="matrix(0.06172839506172839,0,0,0.06172839506172839,104.75308641975309,0)" xlink:href="#N"/></g><path fill="#3a414a" d="M87 75C49 33 22-17 22-94c0-76 28-126 65-167h31c-38 41-64 92-64 168S80 34 118 75H87" id="O"/><path fill="#3a414a" d="M233-177c-1 41-23 64-60 70L243 0h-38l-65-103H63V0H30v-248c88 3 205-21 203 71zM63-129c60-2 137 13 137-47 0-61-80-42-137-45v92" id="P"/><path fill="#3a414a" d="M160-131c35 5 61 23 61 61C221 17 115-2 30 0v-248c76 3 177-17 177 60 0 33-19 50-47 57zm-97-11c50-1 110 9 110-42 0-47-63-36-110-37v79zm0 115c55-2 124 14 124-45 0-56-70-42-124-44v89" id="Q"/><path fill="#3a414a" d="M212-179c-10-28-35-45-73-45-59 0-87 40-87 99 0 60 29 101 89 101 43 0 62-24 78-52l27 14C228-24 195 4 139 4 59 4 22-46 18-125c-6-104 99-153 187-111 19 9 31 26 39 46" id="R"/><path fill="#3a414a" d="M33-261c38 41 65 92 65 168S71 34 33 75H2C39 34 66-17 66-93S39-220 2-261h31" id="S"/><g id="b"><use transform="matrix(0.06172839506172839,0,0,0.06172839506172839,0,0)" xlink:href="#O"/><use transform="matrix(0.06172839506172839,0,0,0.06172839506172839,7.345679012345679,0)" xlink:href="#P"/><use transform="matrix(0.06172839506172839,0,0,0.06172839506172839,23.333333333333332,0)" xlink:href="#Q"/><use transform="matrix(0.06172839506172839,0,0,0.06172839506172839,38.148148148148145,0)" xlink:href="#F"/><use transform="matrix(0.06172839506172839,0,0,0.06172839506172839,52.96296296296296,0)" xlink:href="#R"/><use transform="matrix(0.06172839506172839,0,0,0.06172839506172839,68.95061728395062,0)" xlink:href="#S"/></g><linearGradient gradientUnits="userSpaceOnUse" id="c" x1="63.33" y1="84.67" x2="183.33" y2="-35.33"><stop offset="0%" stop-color="#bd0816"/><stop offset="100%" stop-color="#ff5252"/></linearGradient><path fill="#3a414a" d="M177-190C167-65 218 103 67 71c-23-6-38-20-44-43l32-5c15 47 100 32 89-28v-30C133-14 115 1 83 1 29 1 15-40 15-95c0-56 16-97 71-98 29-1 48 16 59 35 1-10 0-23 2-32h30zM94-22c36 0 50-32 50-73 0-42-14-75-50-75-39 0-46 34-46 75s6 73 46 73" id="T"/><g id="d"><use transform="matrix(0.06172839506172839,0,0,0.06172839506172839,0,0)" xlink:href="#R"/><use transform="matrix(0.06172839506172839,0,0,0.06172839506172839,15.987654320987653,0)" xlink:href="#I"/><use transform="matrix(0.06172839506172839,0,0,0.06172839506172839,28.333333333333332,0)" xlink:href="#T"/><use transform="matrix(0.06172839506172839,0,0,0.06172839506172839,40.67901234567901,0)" xlink:href="#N"/><use transform="matrix(0.06172839506172839,0,0,0.06172839506172839,53.02469135802469,0)" xlink:href="#K"/><use transform="matrix(0.06172839506172839,0,0,0.06172839506172839,57.901234567901234,0)" xlink:href="#H"/><use transform="matrix(0.06172839506172839,0,0,0.06172839506172839,64.07407407407408,0)" xlink:href="#I"/></g><path fill="#3a414a" d="M33 0v-248h34V0H33" id="U"/><path fill="#3a414a" d="M85-194c31 0 48 13 60 33l-1-100h32l1 261h-30c-2-10 0-23-3-31C134-8 116 4 85 4 32 4 16-35 15-94c0-66 23-100 70-100zm9 24c-40 0-46 34-46 75 0 40 6 74 45 74 42 0 51-32 51-76 0-42-9-74-50-73" id="V"/><path fill="#3a414a" d="M100-194c63 0 86 42 84 106H49c0 40 14 67 53 68 26 1 43-12 49-29l28 8c-11 28-37 45-77 45C44 4 14-33 15-96c1-61 26-98 85-98zm52 81c6-60-76-77-97-28-3 7-6 17-6 28h103" id="W"/><path fill="#3a414a" d="M179-190L93 31C79 59 56 82 12 73V49c39 6 53-20 64-50L1-190h34L92-34l54-156h33" id="X"/><g id="e"><use transform="matrix(0.06172839506172839,0,0,0.06172839506172839,0,0)" xlink:href="#U"/><use transform="matrix(0.06172839506172839,0,0,0.06172839506172839,6.172839506172839,0)" xlink:href="#V"/><use transform="matrix(0.06172839506172839,0,0,0.06172839506172839,18.51851851851852,0)" xlink:href="#W"/><use transform="matrix(0.06172839506172839,0,0,0.06172839506172839,30.864197530864196,0)" xlink:href="#N"/><use transform="matrix(0.06172839506172839,0,0,0.06172839506172839,43.20987654320987,0)" xlink:href="#H"/><use transform="matrix(0.06172839506172839,0,0,0.06172839506172839,49.382716049382715,0)" xlink:href="#K"/><use transform="matrix(0.06172839506172839,0,0,0.06172839506172839,54.25925925925926,0)" xlink:href="#H"/><use transform="matrix(0.06172839506172839,0,0,0.06172839506172839,60.4320987654321,0)" xlink:href="#X"/></g><path fill="#3a414a" d="M115-194c55 1 70 41 70 98S169 2 115 4C84 4 66-9 55-30l1 105H24l-1-265h31l2 30c10-21 28-34 59-34zm-8 174c40 0 45-34 45-75s-6-73-45-74c-42 0-51 32-51 76 0 43 10 73 51 73" id="Y"/><path fill="#3a414a" d="M108 0H70L1-190h34L89-25l56-165h34" id="Z"/><g id="f"><use transform="matrix(0.06172839506172839,0,0,0.06172839506172839,0,0)" xlink:href="#Y"/><use transform="matrix(0.06172839506172839,0,0,0.06172839506172839,12.345679012345679,0)" xlink:href="#J"/><use transform="matrix(0.06172839506172839,0,0,0.06172839506172839,19.691358024691358,0)" xlink:href="#I"/><use transform="matrix(0.06172839506172839,0,0,0.06172839506172839,32.03703703703704,0)" xlink:href="#Z"/><use transform="matrix(0.06172839506172839,0,0,0.06172839506172839,43.14814814814815,0)" xlink:href="#K"/><use transform="matrix(0.06172839506172839,0,0,0.06172839506172839,48.0246913580247,0)" xlink:href="#V"/><use transform="matrix(0.06172839506172839,0,0,0.06172839506172839,60.370370370370374,0)" xlink:href="#W"/><use transform="matrix(0.06172839506172839,0,0,0.06172839506172839,72.71604938271605,0)" xlink:href="#J"/></g><path fill="#3a414a" d="M240 0l2-218c-23 76-54 145-80 218h-23L58-218 59 0H30v-248h44l77 211c21-75 51-140 76-211h43V0h-30" id="aa"/><g id="g"><use transform="matrix(0.06172839506172839,0,0,0.06172839506172839,0,0)" xlink:href="#U"/><use transform="matrix(0.06172839506172839,0,0,0.06172839506172839,6.172839506172839,0)" xlink:href="#F"/><use transform="matrix(0.06172839506172839,0,0,0.06172839506172839,20.98765432098765,0)" xlink:href="#aa"/></g><path fill="#3a414a" d="M210-169c-67 3-38 105-44 169h-31v-121c0-29-5-50-35-48C34-165 62-65 56 0H25l-1-190h30c1 10-1 24 2 32 10-44 99-50 107 0 11-21 27-35 58-36 85-2 47 119 55 194h-31v-121c0-29-5-49-35-48" id="ab"/><g id="h"><use transform="matrix(0.06172839506172839,0,0,0.06172839506172839,0,0)" xlink:href="#H"/><use transform="matrix(0.06172839506172839,0,0,0.06172839506172839,6.172839506172839,0)" xlink:href="#W"/><use transform="matrix(0.06172839506172839,0,0,0.06172839506172839,18.51851851851852,0)" xlink:href="#ab"/><use transform="matrix(0.06172839506172839,0,0,0.06172839506172839,36.9753086419753,0)" xlink:href="#Y"/><use transform="matrix(0.06172839506172839,0,0,0.06172839506172839,49.32098765432098,0)" xlink:href="#I"/><use transform="matrix(0.06172839506172839,0,0,0.06172839506172839,61.66666666666666,0)" xlink:href="#J"/><use transform="matrix(0.06172839506172839,0,0,0.06172839506172839,69.01234567901234,0)" xlink:href="#M"/><use transform="matrix(0.06172839506172839,0,0,0.06172839506172839,81.35802469135803,0)" xlink:href="#J"/><use transform="matrix(0.06172839506172839,0,0,0.06172839506172839,88.70370370370371,0)" xlink:href="#X"/></g><path fill="#3a414a" d="M96-169c-40 0-48 33-48 73s9 75 48 75c24 0 41-14 43-38l32 2c-6 37-31 61-74 61-59 0-76-41-82-99-10-93 101-131 147-64 4 7 5 14 7 22l-32 3c-4-21-16-35-41-35" id="ac"/><g id="i"><use transform="matrix(0.06172839506172839,0,0,0.06172839506172839,0,0)" xlink:href="#F"/><use transform="matrix(0.06172839506172839,0,0,0.06172839506172839,14.814814814814813,0)" xlink:href="#ac"/><use transform="matrix(0.06172839506172839,0,0,0.06172839506172839,25.925925925925924,0)" xlink:href="#ac"/><use transform="matrix(0.06172839506172839,0,0,0.06172839506172839,37.03703703703704,0)" xlink:href="#W"/><use transform="matrix(0.06172839506172839,0,0,0.06172839506172839,49.382716049382715,0)" xlink:href="#L"/><use transform="matrix(0.06172839506172839,0,0,0.06172839506172839,60.49382716049382,0)" xlink:href="#L"/></g><path fill="#3a414a" d="M143 0L79-87 56-68V0H24v-261h32v163l83-92h37l-77 82L181 0h-38" id="ad"/><g id="j"><use transform="matrix(0.06172839506172839,0,0,0.06172839506172839,0,0)" xlink:href="#H"/><use transform="matrix(0.06172839506172839,0,0,0.06172839506172839,6.172839506172839,0)" xlink:href="#I"/><use transform="matrix(0.06172839506172839,0,0,0.06172839506172839,18.51851851851852,0)" xlink:href="#ad"/><use transform="matrix(0.06172839506172839,0,0,0.06172839506172839,29.62962962962963,0)" xlink:href="#W"/><use transform="matrix(0.06172839506172839,0,0,0.06172839506172839,41.97530864197531,0)" xlink:href="#N"/></g><g id="k"><use transform="matrix(0.06172839506172839,0,0,0.06172839506172839,0,0)" xlink:href="#Y"/><use transform="matrix(0.06172839506172839,0,0,0.06172839506172839,12.345679012345679,0)" xlink:href="#W"/><use transform="matrix(0.06172839506172839,0,0,0.06172839506172839,24.691358024691358,0)" xlink:href="#J"/><use transform="matrix(0.06172839506172839,0,0,0.06172839506172839,32.03703703703704,0)" xlink:href="#ab"/><use transform="matrix(0.06172839506172839,0,0,0.06172839506172839,50.49382716049382,0)" xlink:href="#K"/><use transform="matrix(0.06172839506172839,0,0,0.06172839506172839,55.37037037037037,0)" xlink:href="#L"/><use transform="matrix(0.06172839506172839,0,0,0.06172839506172839,66.48148148148148,0)" xlink:href="#L"/><use transform="matrix(0.06172839506172839,0,0,0.06172839506172839,77.5925925925926,0)" xlink:href="#K"/><use transform="matrix(0.06172839506172839,0,0,0.06172839506172839,82.46913580246914,0)" xlink:href="#I"/><use transform="matrix(0.06172839506172839,0,0,0.06172839506172839,94.81481481481482,0)" xlink:href="#N"/><use transform="matrix(0.06172839506172839,0,0,0.06172839506172839,107.16049382716051,0)" xlink:href="#L"/></g><path fill="#3a414a" d="M127-220V0H93v-220H8v-28h204v28h-85" id="ae"/><g id="l"><use transform="matrix(0.06172839506172839,0,0,0.06172839506172839,0,0)" xlink:href="#ae"/><use transform="matrix(0.06172839506172839,0,0,0.06172839506172839,11.049382716049381,0)" xlink:href="#W"/><use transform="matrix(0.06172839506172839,0,0,0.06172839506172839,23.39506172839506,0)" xlink:href="#ab"/><use transform="matrix(0.06172839506172839,0,0,0.06172839506172839,41.85185185185185,0)" xlink:href="#Y"/><use transform="matrix(0.06172839506172839,0,0,0.06172839506172839,54.197530864197525,0)" xlink:href="#I"/><use transform="matrix(0.06172839506172839,0,0,0.06172839506172839,66.5432098765432,0)" xlink:href="#J"/><use transform="matrix(0.06172839506172839,0,0,0.06172839506172839,73.88888888888889,0)" xlink:href="#M"/><use transform="matrix(0.06172839506172839,0,0,0.06172839506172839,86.23456790123457,0)" xlink:href="#J"/><use transform="matrix(0.06172839506172839,0,0,0.06172839506172839,93.58024691358025,0)" xlink:href="#X"/></g><g id="m"><use transform="matrix(0.06172839506172839,0,0,0.06172839506172839,0,0)" xlink:href="#K"/><use transform="matrix(0.06172839506172839,0,0,0.06172839506172839,4.876543209876543,0)" xlink:href="#V"/><use transform="matrix(0.06172839506172839,0,0,0.06172839506172839,17.22222222222222,0)" xlink:href="#W"/><use transform="matrix(0.06172839506172839,0,0,0.06172839506172839,29.5679012345679,0)" xlink:href="#N"/><use transform="matrix(0.06172839506172839,0,0,0.06172839506172839,41.913580246913575,0)" xlink:href="#H"/><use transform="matrix(0.06172839506172839,0,0,0.06172839506172839,48.08641975308642,0)" xlink:href="#K"/><use transform="matrix(0.06172839506172839,0,0,0.06172839506172839,52.96296296296296,0)" xlink:href="#H"/><use transform="matrix(0.06172839506172839,0,0,0.06172839506172839,59.135802469135804,0)" xlink:href="#X"/></g><path fill="#3a414a" d="M266 0h-40l-56-210L115 0H75L2-248h35L96-30l15-64 43-154h32l59 218 59-218h35" id="af"/><path fill="#3a414a" d="M115-194c53 0 69 39 70 98 0 66-23 100-70 100C84 3 66-7 56-30L54 0H23l1-261h32v101c10-23 28-34 59-34zm-8 174c40 0 45-34 45-75 0-40-5-75-45-74-42 0-51 32-51 76 0 43 10 73 51 73" id="ag"/><g id="n"><use transform="matrix(0.06172839506172839,0,0,0.06172839506172839,0,0)" xlink:href="#af"/><use transform="matrix(0.06172839506172839,0,0,0.06172839506172839,20.493827160493826,0)" xlink:href="#W"/><use transform="matrix(0.06172839506172839,0,0,0.06172839506172839,32.839506172839506,0)" xlink:href="#ag"/></g><g id="o"><use transform="matrix(0.06172839506172839,0,0,0.06172839506172839,0,0)" xlink:href="#F"/><use transform="matrix(0.06172839506172839,0,0,0.06172839506172839,14.814814814814813,0)" xlink:href="#Y"/><use transform="matrix(0.06172839506172839,0,0,0.06172839506172839,27.160493827160494,0)" xlink:href="#Y"/></g><path fill="#3a414a" d="M106-169C34-169 62-67 57 0H25v-261h32l-1 103c12-21 28-36 61-36 89 0 53 116 60 194h-32v-121c2-32-8-49-39-48" id="ah"/><g id="p"><use transform="matrix(0.06172839506172839,0,0,0.06172839506172839,0,0)" xlink:href="#O"/><use transform="matrix(0.06172839506172839,0,0,0.06172839506172839,7.345679012345679,0)" xlink:href="#F"/><use transform="matrix(0.06172839506172839,0,0,0.06172839506172839,22.160493827160494,0)" xlink:href="#G"/><use transform="matrix(0.06172839506172839,0,0,0.06172839506172839,34.50617283950617,0)" xlink:href="#H"/><use transform="matrix(0.06172839506172839,0,0,0.06172839506172839,40.67901234567901,0)" xlink:href="#ah"/></g><path fill="#3a414a" d="M206 0h-36l-40-164L89 0H53L-1-190h32L70-26l43-164h34l41 164 42-164h31" id="ai"/><path fill="#3a414a" d="M101-234c-31-9-42 10-38 44h38v23H63V0H32v-167H5v-23h27c-7-52 17-82 69-68v24" id="aj"/><path fill="#3a414a" d="M24 0v-261h32V0H24" id="ak"/><g id="q"><use transform="matrix(0.06172839506172839,0,0,0.06172839506172839,0,0)" xlink:href="#ai"/><use transform="matrix(0.06172839506172839,0,0,0.06172839506172839,15.987654320987653,0)" xlink:href="#I"/><use transform="matrix(0.06172839506172839,0,0,0.06172839506172839,28.333333333333332,0)" xlink:href="#J"/><use transform="matrix(0.06172839506172839,0,0,0.06172839506172839,35.67901234567901,0)" xlink:href="#ad"/><use transform="matrix(0.06172839506172839,0,0,0.06172839506172839,46.79012345679013,0)" xlink:href="#aj"/><use transform="matrix(0.06172839506172839,0,0,0.06172839506172839,52.96296296296297,0)" xlink:href="#ak"/><use transform="matrix(0.06172839506172839,0,0,0.06172839506172839,57.83950617283951,0)" xlink:href="#I"/><use transform="matrix(0.06172839506172839,0,0,0.06172839506172839,70.18518518518519,0)" xlink:href="#ai"/><use transform="matrix(0.06172839506172839,0,0,0.06172839506172839,86.17283950617285,0)" xlink:href="#S"/></g><linearGradient gradientUnits="userSpaceOnUse" id="r" x1="572.47" y1="268.04" x2="572.47" y2="402.17"><stop offset="22%" stop-color="#32d4f5"/><stop offset="100%" stop-color="#198ab3"/></linearGradient><linearGradient gradientUnits="userSpaceOnUse" id="s" x1="567.25" y1="275.82" x2="580.21" y2="407.4"><stop offset="22%" stop-color="#32d4f5"/><stop offset="100%" stop-color="#198ab3"/></linearGradient><path fill="#3a414a" d="M143 4C61 4 22-44 18-125c-5-107 100-154 193-111 17 8 29 25 37 43l-32 9c-13-25-37-40-76-40-61 0-88 39-88 99 0 61 29 100 91 101 35 0 62-11 79-27v-45h-74v-28h105v86C228-13 192 4 143 4" id="al"/><g id="t"><use transform="matrix(0.06172839506172839,0,0,0.06172839506172839,0,0)" xlink:href="#al"/><use transform="matrix(0.06172839506172839,0,0,0.06172839506172839,17.28395061728395,0)" xlink:href="#J"/><use transform="matrix(0.06172839506172839,0,0,0.06172839506172839,24.629629629629626,0)" xlink:href="#I"/><use transform="matrix(0.06172839506172839,0,0,0.06172839506172839,36.9753086419753,0)" xlink:href="#G"/><use transform="matrix(0.06172839506172839,0,0,0.06172839506172839,49.32098765432098,0)" xlink:href="#Y"/><use transform="matrix(0.06172839506172839,0,0,0.06172839506172839,61.66666666666666,0)" xlink:href="#L"/></g><g id="u"><use transform="matrix(0.06172839506172839,0,0,0.06172839506172839,0,0)" xlink:href="#F"/><use transform="matrix(0.06172839506172839,0,0,0.06172839506172839,14.814814814814813,0)" xlink:href="#G"/><use transform="matrix(0.06172839506172839,0,0,0.06172839506172839,27.160493827160494,0)" xlink:href="#H"/><use transform="matrix(0.06172839506172839,0,0,0.06172839506172839,33.333333333333336,0)" xlink:href="#ah"/><use transform="matrix(0.06172839506172839,0,0,0.06172839506172839,45.67901234567901,0)" xlink:href="#W"/><use transform="matrix(0.06172839506172839,0,0,0.06172839506172839,58.02469135802469,0)" xlink:href="#N"/><use transform="matrix(0.06172839506172839,0,0,0.06172839506172839,70.37037037037037,0)" xlink:href="#H"/><use transform="matrix(0.06172839506172839,0,0,0.06172839506172839,76.5432098765432,0)" xlink:href="#K"/><use transform="matrix(0.06172839506172839,0,0,0.06172839506172839,81.41975308641975,0)" xlink:href="#aj"/><use transform="matrix(0.06172839506172839,0,0,0.06172839506172839,87.59259259259258,0)" xlink:href="#K"/><use transform="matrix(0.06172839506172839,0,0,0.06172839506172839,92.46913580246913,0)" xlink:href="#ac"/><use transform="matrix(0.06172839506172839,0,0,0.06172839506172839,103.58024691358024,0)" xlink:href="#M"/><use transform="matrix(0.06172839506172839,0,0,0.06172839506172839,115.92592592592592,0)" xlink:href="#H"/><use transform="matrix(0.06172839506172839,0,0,0.06172839506172839,122.09876543209876,0)" xlink:href="#K"/><use transform="matrix(0.06172839506172839,0,0,0.06172839506172839,126.9753086419753,0)" xlink:href="#I"/><use transform="matrix(0.06172839506172839,0,0,0.06172839506172839,139.320987654321,0)" xlink:href="#N"/></g><g id="v"><use transform="matrix(0.06172839506172839,0,0,0.06172839506172839,0,0)" xlink:href="#G"/><use transform="matrix(0.06172839506172839,0,0,0.06172839506172839,12.345679012345679,0)" xlink:href="#L"/><use transform="matrix(0.06172839506172839,0,0,0.06172839506172839,23.45679012345679,0)" xlink:href="#W"/><use transform="matrix(0.06172839506172839,0,0,0.06172839506172839,35.80246913580247,0)" xlink:href="#J"/></g><g id="w"><use transform="matrix(0.06172839506172839,0,0,0.06172839506172839,0,0)" xlink:href="#ac"/><use transform="matrix(0.06172839506172839,0,0,0.06172839506172839,11.11111111111111,0)" xlink:href="#J"/><use transform="matrix(0.06172839506172839,0,0,0.06172839506172839,18.45679012345679,0)" xlink:href="#W"/><use transform="matrix(0.06172839506172839,0,0,0.06172839506172839,30.80246913580247,0)" xlink:href="#V"/><use transform="matrix(0.06172839506172839,0,0,0.06172839506172839,43.148148148148145,0)" xlink:href="#W"/><use transform="matrix(0.06172839506172839,0,0,0.06172839506172839,55.49382716049382,0)" xlink:href="#N"/><use transform="matrix(0.06172839506172839,0,0,0.06172839506172839,67.8395061728395,0)" xlink:href="#H"/><use transform="matrix(0.06172839506172839,0,0,0.06172839506172839,74.01234567901234,0)" xlink:href="#K"/><use transform="matrix(0.06172839506172839,0,0,0.06172839506172839,78.88888888888889,0)" xlink:href="#M"/><use transform="matrix(0.06172839506172839,0,0,0.06172839506172839,91.23456790123457,0)" xlink:href="#ak"/><use transform="matrix(0.06172839506172839,0,0,0.06172839506172839,96.11111111111111,0)" xlink:href="#L"/></g><linearGradient gradientUnits="userSpaceOnUse" id="x" x1="402.37" y1="84.67" x2="522.37" y2="-35.33"><stop offset="0%" stop-color="#bd0816"/><stop offset="100%" stop-color="#ff5252"/></linearGradient><path fill="#3a414a" d="M232-93c-1 65-40 97-104 97C67 4 28-28 28-90v-158h33c8 89-33 224 67 224 102 0 64-133 71-224h33v155" id="am"/><g id="y"><use transform="matrix(0.06172839506172839,0,0,0.06172839506172839,0,0)" xlink:href="#am"/><use transform="matrix(0.06172839506172839,0,0,0.06172839506172839,15.987654320987653,0)" xlink:href="#L"/><use transform="matrix(0.06172839506172839,0,0,0.06172839506172839,27.098765432098766,0)" xlink:href="#W"/><use transform="matrix(0.06172839506172839,0,0,0.06172839506172839,39.44444444444444,0)" xlink:href="#J"/></g><g id="z"><use transform="matrix(0.06172839506172839,0,0,0.06172839506172839,0,0)" xlink:href="#Y"/><use transform="matrix(0.06172839506172839,0,0,0.06172839506172839,12.345679012345679,0)" xlink:href="#I"/><use transform="matrix(0.06172839506172839,0,0,0.06172839506172839,24.691358024691358,0)" xlink:href="#I"/><use transform="matrix(0.06172839506172839,0,0,0.06172839506172839,37.03703703703704,0)" xlink:href="#ak"/></g><g id="A"><use transform="matrix(0.06172839506172839,0,0,0.06172839506172839,0,0)" xlink:href="#R"/><use transform="matrix(0.06172839506172839,0,0,0.06172839506172839,15.987654320987653,0)" xlink:href="#I"/><use transform="matrix(0.06172839506172839,0,0,0.06172839506172839,28.333333333333332,0)" xlink:href="#G"/><use transform="matrix(0.06172839506172839,0,0,0.06172839506172839,40.67901234567901,0)" xlink:href="#ak"/><use transform="matrix(0.06172839506172839,0,0,0.06172839506172839,45.55555555555556,0)" xlink:href="#V"/></g><g id="B"><use transform="matrix(0.06172839506172839,0,0,0.06172839506172839,0,0)" xlink:href="#ag"/><use transform="matrix(0.06172839506172839,0,0,0.06172839506172839,12.345679012345679,0)" xlink:href="#W"/></g><g id="C"><use transform="matrix(0.06172839506172839,0,0,0.06172839506172839,0,0)" xlink:href="#M"/><use transform="matrix(0.06172839506172839,0,0,0.06172839506172839,12.345679012345679,0)" xlink:href="#N"/></g><g id="D"><use transform="matrix(0.06172839506172839,0,0,0.06172839506172839,0,0)" xlink:href="#M"/><use transform="matrix(0.06172839506172839,0,0,0.06172839506172839,12.345679012345679,0)" xlink:href="#ac"/><use transform="matrix(0.06172839506172839,0,0,0.06172839506172839,23.45679012345679,0)" xlink:href="#H"/><use transform="matrix(0.06172839506172839,0,0,0.06172839506172839,29.62962962962963,0)" xlink:href="#K"/><use transform="matrix(0.06172839506172839,0,0,0.06172839506172839,34.50617283950617,0)" xlink:href="#Z"/><use transform="matrix(0.06172839506172839,0,0,0.06172839506172839,45.61728395061728,0)" xlink:href="#W"/></g><g id="E"><use transform="matrix(0.06172839506172839,0,0,0.06172839506172839,0,0)" xlink:href="#V"/><use transform="matrix(0.06172839506172839,0,0,0.06172839506172839,12.345679012345679,0)" xlink:href="#K"/><use transform="matrix(0.06172839506172839,0,0,0.06172839506172839,17.22222222222222,0)" xlink:href="#J"/><use transform="matrix(0.06172839506172839,0,0,0.06172839506172839,24.5679012345679,0)" xlink:href="#W"/><use transform="matrix(0.06172839506172839,0,0,0.06172839506172839,36.913580246913575,0)" xlink:href="#ac"/><use transform="matrix(0.06172839506172839,0,0,0.06172839506172839,48.02469135802468,0)" xlink:href="#H"/><use transform="matrix(0.06172839506172839,0,0,0.06172839506172839,54.197530864197525,0)" xlink:href="#I"/><use transform="matrix(0.06172839506172839,0,0,0.06172839506172839,66.5432098765432,0)" xlink:href="#H"/><use transform="matrix(0.06172839506172839,0,0,0.06172839506172839,72.71604938271604,0)" xlink:href="#X"/></g></defs></g></svg>